<svg width="199" height="36" viewBox="0 0 199 36" fill="none" xmlns="http://www.w3.org/2000/svg">
<g clip-path="url(#clip0_551_1165)">
<ellipse cx="18.3348" cy="21.6" rx="12.15" ry="9.9" fill="#1F0061"/>
<path d="M35.2688 17.5657C34.9851 14.574 34.0143 5.38815 34.0005 5.04663C33.9849 4.64657 33.4134 4.1372 33.4134 4.87683C33.4134 5.38813 32.9515 11.2603 32.9515 15.5088C32.9026 15.4365 32.8732 15.3975 32.8732 15.3975H31.8163C29.9179 10.7431 24.8742 7.36502 18.8812 7.16011H18.7462H18.6131C18.5113 7.16011 18.4174 7.16011 18.3038 7.16011C18.1981 7.16011 18.0964 7.16011 17.9946 7.16011H17.8615H17.7304C11.7355 7.35526 6.68986 10.7431 4.79138 15.3975H3.81278L3.73645 15.5088C3.73645 11.2603 3.27259 5.38813 3.27259 4.87683C3.27259 4.1372 2.70109 4.64657 2.68543 5.04663C2.67369 5.38815 1.70684 14.574 1.41913 17.5657C1.00251 18.12 0.779747 18.7953 0.785003 19.488C0.785003 20.5945 1.51895 21.7732 2.42121 21.7732C2.65059 22.4122 2.96315 23.0186 3.35089 23.5764H4.80115C6.75835 28.3811 12.0702 31.8255 18.3058 31.8255C24.5415 31.8255 29.8532 28.3811 31.8105 23.5764H33.3312C33.718 23.018 34.0306 22.4118 34.2608 21.7732C35.1631 21.7732 35.8951 20.6023 35.8951 19.488C35.9022 18.7963 35.6823 18.1212 35.2688 17.5657ZM18.3038 30.9922C11.8294 30.9922 6.58222 26.7886 6.58222 21.6014C6.58222 17.7218 9.518 14.3925 13.7044 12.9601L14.4697 14.8492C14.5355 15.0112 14.6484 15.1499 14.7938 15.2476C14.9392 15.3453 15.1105 15.3975 15.2858 15.3975H21.3414C21.5167 15.3975 21.6881 15.3453 21.8335 15.2476C21.9789 15.1499 22.0917 15.0112 22.1576 14.8492L22.9209 12.9679C27.0975 14.4042 30.0236 17.7277 30.0236 21.6014C30.0236 26.7886 24.7763 30.9922 18.3038 30.9922Z" fill="#F6C349"/>
<path d="M22.1941 18.8362C21.8255 18.8362 21.4721 18.9822 21.2115 19.242C20.9509 19.5019 20.8044 19.8544 20.8044 20.2218V23.5823C20.8044 23.9498 20.9509 24.3023 21.2115 24.5621C21.4721 24.822 21.8255 24.9679 22.1941 24.9679C22.5626 24.9679 22.9161 24.822 23.1767 24.5621C23.4373 24.3023 23.5837 23.9498 23.5837 23.5823V20.2218C23.5837 19.8544 23.4373 19.5019 23.1767 19.242C22.9161 18.9822 22.5626 18.8362 22.1941 18.8362Z" fill="white"/>
<path d="M14.4109 18.8362C14.0423 18.8362 13.6889 18.9822 13.4283 19.242C13.1676 19.5019 13.0212 19.8544 13.0212 20.2218V23.5823C13.0212 23.9498 13.1676 24.3023 13.4283 24.5621C13.6889 24.822 14.0423 24.9679 14.4109 24.9679C14.7794 24.9679 15.1328 24.822 15.3935 24.5621C15.6541 24.3023 15.8005 23.9498 15.8005 23.5823V20.2218C15.8005 19.8544 15.6541 19.5019 15.3935 19.242C15.1328 18.9822 14.7794 18.8362 14.4109 18.8362Z" fill="white"/>
<path d="M18.3226 28.0888C17.5162 28.0888 16.8586 27.5034 16.8586 26.7871H17.3322C17.3322 27.2457 17.7766 27.6185 18.3226 27.6185C18.8687 27.6185 19.3149 27.2457 19.3149 26.7871H19.7886C19.7886 27.5053 19.131 28.0888 18.3226 28.0888Z" fill="white" stroke="black" stroke-width="0.0930302" stroke-miterlimit="10"/>
<path d="M43.6526 18.5386C43.6526 12.4835 47.4893 8.17261 53.734 8.17261C58.9467 8.17261 62.5294 11.1992 63.3874 16.3111H59.8693C59.2399 13.1695 56.9199 11.2557 53.7399 11.2557C49.7018 11.2557 47.1804 14.0836 47.1804 18.5386C47.1804 23.1087 49.7018 25.9074 53.7399 25.9074C56.9765 25.9074 59.2399 24.05 59.8693 20.8812H63.3874C62.4707 26.0788 58.976 29.0197 53.734 29.0197C47.5752 29.0157 43.6526 24.7906 43.6526 18.5386Z" fill="black"/>
<path d="M82.5757 28.5892V7.16919H85.9554V28.5892H82.5757Z" fill="black"/>
<path d="M88.936 28.5892V7.16919H92.3157V28.5892H88.936Z" fill="black"/>
<path d="M94.4985 24.3859C94.5282 20.8447 98.0496 20.0983 100.999 19.7592C103.292 19.5019 104.98 19.4162 105.01 18.2177C104.98 16.7326 103.837 15.7621 101.882 15.7621C99.8775 15.7621 98.4448 16.8456 98.2452 18.4183H94.8365C95.1512 15.2183 98.015 12.9907 101.94 12.9907C106.044 12.9907 108.297 15.2183 108.297 18.4476V25.3018C108.297 25.7306 108.528 25.9585 109.043 25.9585H109.873V28.5877H108.27C106.722 28.5877 105.778 27.9582 105.52 26.8161C105.455 26.6498 105.408 26.4774 105.377 26.3016C104.488 27.9309 102.827 28.9014 100.251 28.9014C96.7561 28.9033 94.463 27.2176 94.4985 24.3859ZM105.01 22.9008V20.7882C104.437 21.673 102.977 21.8737 101.373 22.0725C99.4823 22.3024 97.9071 22.5578 97.9071 24.1578C97.9071 25.4714 98.9663 26.243 100.942 26.243C103.257 26.247 105.005 24.9334 105.005 22.9046L105.01 22.9008Z" fill="black"/>
<path d="M114.631 25.9037L114.316 28.5892H111.595V7.16919H114.974V15.4207C116.063 13.9356 117.867 12.9924 120.015 12.9924C124.026 12.9924 126.856 16.2489 126.856 20.932C126.856 25.7009 124.02 29.0141 119.982 29.0141C117.58 29.016 115.575 27.8174 114.631 25.9037ZM123.395 20.9341C123.395 17.9348 121.706 15.8514 119.243 15.8514C116.752 15.8514 114.974 17.9075 114.974 20.8483C114.974 23.9665 116.752 26.1609 119.243 26.1609C121.704 26.1609 123.393 24.0191 123.393 20.9341H123.395Z" fill="black"/>
<path d="M135.281 28.5896V8.6001H138.719V25.5085H148.945V28.5936L135.281 28.5896Z" fill="black"/>
<path d="M150.289 24.3859C150.319 20.8447 153.843 20.0983 156.792 19.7592C159.083 19.5019 160.773 19.4162 160.802 18.2177C160.773 16.7326 159.63 15.7621 157.675 15.7621C155.67 15.7621 154.239 16.8456 154.038 18.4183H150.634C150.948 15.2183 153.814 12.9907 157.738 12.9907C161.833 12.9907 164.096 15.2183 164.096 18.4476V25.3018C164.096 25.7306 164.325 25.9585 164.84 25.9585H165.672V28.5877H164.067C162.521 28.5877 161.575 27.9582 161.317 26.8161C161.253 26.6496 161.205 26.4773 161.174 26.3016C160.286 27.9309 158.633 28.9014 156.047 28.9014C152.549 28.9033 150.262 27.2176 150.289 24.3859ZM160.802 22.9008V20.7882C160.23 21.673 158.768 21.8737 157.164 22.0725C155.274 22.3024 153.698 22.5578 153.698 24.1578C153.698 25.4714 154.759 26.243 156.735 26.243C159.056 26.247 160.802 24.9334 160.802 22.9046V22.9008Z" fill="black"/>
<path d="M167.333 28.5886V13.4517H170.053L170.341 15.6793C171.285 14.1085 173.205 12.9937 175.468 12.9937C178.704 12.9937 180.823 15.1647 180.823 18.5636V28.5886H177.444V18.7332C177.444 17.0473 176.326 15.9346 174.435 15.9346C172.231 15.9346 170.742 17.4468 170.722 19.4171V28.5768L167.333 28.5886Z" fill="black"/>
<path d="M182.686 20.9341C182.686 16.2567 185.579 12.9943 189.617 12.9943C191.766 12.9943 193.541 13.8791 194.6 15.3076V7.16919H197.982V28.5892H195.26L194.945 25.9037C194.087 27.8174 192.195 29.0219 189.732 29.0219C185.636 29.016 182.686 25.703 182.686 20.9341ZM194.608 20.9048C194.608 17.9075 192.89 15.8222 190.428 15.8222C187.906 15.8222 186.159 17.9348 186.159 20.9633C186.159 23.9918 187.879 26.1609 190.371 26.1609C192.863 26.1609 194.6 23.9957 194.6 20.9048H194.608Z" fill="black"/>
<path d="M132.702 25.4826C132.702 25.2874 132.598 25.1069 132.429 25.0094L130.523 23.9122C130.354 23.8146 130.145 23.8151 129.976 23.9133L128.057 25.027C127.889 25.1243 127.785 25.3031 127.785 25.4966L127.777 27.7101C127.777 27.9054 127.88 28.0859 128.049 28.1834L129.955 29.2806C130.125 29.3781 130.334 29.3776 130.503 29.2795L132.422 28.1661C132.59 28.0687 132.694 27.8899 132.694 27.6963L132.702 25.4826Z" fill="black"/>
<path fill-rule="evenodd" clip-rule="evenodd" d="M79.4499 16.2243C79.9114 16.49 80.195 16.9819 80.1931 17.5139L80.1691 24.4728C80.1674 25.0003 79.8852 25.4876 79.4279 25.753L73.3958 29.2532C72.9346 29.5207 72.3656 29.5219 71.9041 29.2561L65.9105 25.8058C65.4489 25.54 65.1654 25.048 65.1672 24.516L65.1924 17.5576C65.1943 17.0303 65.4763 16.5432 65.9334 16.2779L71.9644 12.7771C72.4256 12.5094 72.9947 12.5082 73.4563 12.7739L79.4499 16.2243ZM74.9936 17.0211C76.4123 17.8377 77.2836 19.3629 77.278 20.998C77.2724 22.6355 76.3852 24.1677 74.9658 24.9913C73.5485 25.8137 71.7882 25.8238 70.3695 25.0071C68.9507 24.1903 68.0792 22.6648 68.0851 21.0294C68.091 19.3925 68.9779 17.8608 70.3966 17.0373C71.8141 16.2145 73.5748 16.2042 74.9936 17.0211Z" fill="black"/>
</g>
<defs>
<clipPath id="clip0_551_1165">
<rect width="198" height="36" fill="white" transform="translate(0.785156)"/>
</clipPath>
</defs>
</svg>
