<svg width="100" height="36" viewBox="0 0 100 36" fill="none" xmlns="http://www.w3.org/2000/svg">
<path d="M3.06777 0H5.35038V2.25H3.06777V0Z" fill="#D543ED"/>
<path d="M7.63299 4.5H5.35038V6.75L3.06777 6.75V15.75H0.785156V27H3.06777V31.5H5.35038V33.75H7.63299V36H21.3286V33.75H23.6113L23.6112 31.5H25.8938V29.25H28.1765V18H25.8938V13.5H23.6112L23.6113 9H21.3286V6.75L23.6113 6.75V4.5H21.3286V6.75H19.046V4.5H16.7634V2.25H12.1982V0H9.91558V4.5H12.1982V6.75H9.91558V11.25L7.63299 11.25V9H5.35038V6.75H7.63299V4.5Z" fill="#D543ED"/>
<path d="M14.4809 6.75H16.7635V9H19.0461V11.25H21.3287V15.75L23.6114 15.75V20.25H25.8939V29.25H23.6113L23.6114 31.5H21.3287V33.75H9.91568V31.5H5.35048V27H3.06787V18H5.35048V13.5H12.1983V11.25L14.4809 11.25V6.75Z" fill="#9250FF"/>
<path d="M7.6331 9H5.35048V11.25H7.6331V9Z" fill="#9250FF"/>
<path d="M14.4808 11.25H16.7634V13.5H14.4808V11.25Z" fill="#9787FC"/>
<path d="M21.3286 22.5V18H19.046V13.5L16.7634 13.5V15.75L12.1982 15.75V18H9.91554L9.91557 15.75H7.63295V20.25H5.35034V31.5H9.91554V33.75H21.3286V29.25H23.6112V22.5H21.3286Z" fill="#9787FC"/>
<path d="M16.7635 15.75H14.4809V18H16.7635V15.75Z" fill="white"/>
<path fill-rule="evenodd" clip-rule="evenodd" d="M9.91564 20.25V22.5H7.63306V31.5H9.91564V33.75H19.0461V31.5H21.3287V22.5H19.0461V20.25H9.91564ZM9.91564 24.75H12.1983V29.25H9.91564V24.75ZM19.0461 29.25V24.75L16.7635 24.75V29.25H19.0461Z" fill="white"/>
<path d="M34.4373 12.326H44.2199V16.0434H39.1329V17.8043H42.459V20.3478H39.1329V23.6739H34.4373V12.326Z" fill="#202020"/>
<path d="M45.5894 12.326H49.5025V23.6739H45.5894V12.326Z" fill="#202020"/>
<path d="M67.3068 16.826V14.6739H70.2416V12.326H63.1981V23.6739H70.2416V21.326H67.3068V19.1739H69.2633V16.826H67.3068Z" fill="#202020"/>
<path d="M71.6112 12.326H81.3938V15.6521H76.5025V18H79.6329V20.3478H76.5025V23.6739H71.6112V12.326Z" fill="#202020"/>
<path d="M86.872 12.326H82.7633V23.6739H89.0242V21.326H86.872V12.326Z" fill="#202020"/>
<path fill-rule="evenodd" clip-rule="evenodd" d="M50.872 12.326H59.872V13.5H61.8286V18.1956H59.872V19.9565H61.8286V23.6739H56.9373V20.3478H54.7851V23.6739H50.872V12.326ZM57.9155 15.0652V17.413H54.7851V15.0652H57.9155Z" fill="#202020"/>
<path d="M93.1329 12.326H88.6329V16.826H90.1981V18H91.1764V19.1739H92.1546V23.6739H96.2633V19.1739H97.2416V18H98.2199V16.826H99.7851V12.326H95.2851V16.826H93.1329V12.326Z" fill="#202020"/>
</svg>
