<svg width="166" height="36" viewBox="0 0 166 36" fill="none" xmlns="http://www.w3.org/2000/svg">
<g clip-path="url(#clip0_176_1186)">
<path d="M33.2269 4.05518L21.3078 16.9605L26.1445 34.1184L38.0635 21.213L33.2269 4.05518Z" fill="#1A16B8"/>
<path d="M24.6385 36C18.1744 34.8771 11.7179 33.7201 5.31834 32.2558C5.85322 31.5123 6.3881 30.765 6.92298 30.0177C11.6307 30.9547 16.3384 31.8917 21.2547 32.8742C19.9839 28.4889 18.8003 24.4868 17.6812 20.4657C17.4271 19.5553 16.9453 19.1797 16.0425 18.9939C11.7331 18.1176 7.43889 17.1768 3.14089 16.2626C2.26081 15.9743 1.37314 15.7239 0.43236 15.7618C-0.349094 14.6959 0.00369843 13.8992 0.883782 13.0229C4.92762 9.01705 8.91455 4.95424 12.9167 0.902821C13.4477 0.364148 13.8916 -0.132796 14.821 0.0341169C20.625 1.06973 26.4404 2.04086 32.2519 3.03475C31.6678 3.84655 31.1101 4.68111 30.2907 5.29186C25.4085 4.44213 20.5263 3.60377 15.6517 2.72748C14.8134 2.57574 14.3847 3.03854 13.8954 3.53549C10.9099 6.56647 7.90928 9.57848 4.93141 12.617C4.61276 12.9433 4.03236 13.1595 4.24859 13.8613C9.25217 14.9349 14.2823 16.0122 19.3086 17.0933C19.5894 18.0417 19.8815 18.9863 20.1508 19.9384C21.653 25.2948 23.1438 30.6512 24.6423 36.0038L24.6385 36Z" fill="white"/>
<path d="M30.2907 5.28806C31.1101 4.67731 31.6678 3.84275 32.252 3.03094C32.9613 3.10681 33.7655 2.83368 34.1677 3.79723C34.5963 4.81767 33.8718 5.28047 33.3293 5.85708C29.9455 9.47225 26.5845 13.1064 23.1628 16.6836C22.4231 17.4575 22.2334 18.1327 22.5521 19.1759C23.7167 22.9922 24.7712 26.8425 25.8941 30.7802C26.8956 30.4387 27.3356 29.5625 27.9464 28.9138C30.0973 26.6339 32.3051 24.3995 34.2815 21.9755C35.4688 20.5188 36.6182 20.3178 38.2684 21.2244C37.8928 22.15 37.0772 22.7494 36.4361 23.455C32.8513 27.3926 29.2437 31.3112 25.6286 35.2261C25.3478 35.5296 25.1506 35.9848 24.6271 35.9962C23.1325 30.6398 21.6378 25.2834 20.1356 19.9308C19.8701 18.9787 19.5742 18.0341 19.2935 17.0857C22.9542 13.1519 26.6149 9.21809 30.2793 5.28806H30.2907Z" fill="white"/>
<path d="M0.432358 15.7618C1.37314 15.7239 2.26081 15.9705 3.14089 16.2626C4.40032 20.8489 5.66355 25.4352 6.92298 30.0215C6.3881 30.7688 5.85322 31.5123 5.31834 32.2596C4.45343 31.2847 4.40412 30.0063 4.07788 28.8455C2.8488 24.4906 1.36934 20.2002 0.432358 15.7656V15.7618Z" fill="white"/>
<path d="M30.2907 5.28812C26.63 9.22195 22.9693 13.1558 19.3049 17.0858C14.2785 16.0085 9.25217 14.9273 4.2448 13.8538C4.03236 13.152 4.60897 12.932 4.92762 12.6095C7.90549 9.57474 10.9061 6.55893 13.8916 3.52795C14.3809 3.03101 14.8096 2.5682 15.648 2.71994C20.5226 3.60003 25.4085 4.43459 30.2869 5.28433L30.2907 5.28812Z" fill="#1A16B8"/>
<path d="M6.92308 30.0214C5.66365 25.4351 4.40042 20.8488 3.14099 16.2625C7.43899 17.1805 11.737 18.1175 16.0426 18.9938C16.9454 19.1797 17.431 19.5552 17.6813 20.4657C18.7966 24.4867 19.984 28.4889 21.2548 32.8741C16.3385 31.8954 11.6308 30.9584 6.92308 30.0176V30.0214Z" fill="#1A16B8"/>
<path d="M54.0379 22.0438C54.9256 22.0438 55.6426 21.9452 56.1964 21.7517C57.2472 21.3761 57.7707 20.6819 57.7707 19.6653C57.7707 19.0735 57.5089 18.6107 56.9892 18.2883C56.4695 17.9696 55.6501 17.6889 54.5387 17.4461L52.6343 17.0174C50.7642 16.5964 49.4706 16.1336 48.7574 15.6404C47.5473 14.8097 46.9403 13.5123 46.9403 11.7483C46.9403 10.1399 47.5245 8.8008 48.6967 7.73484C49.8689 6.66887 51.5873 6.13779 53.8558 6.13779C55.7488 6.13779 57.3648 6.63852 58.7039 7.64379C60.043 8.64906 60.741 10.1058 60.8093 12.0177H57.1979C57.1334 10.9365 56.6592 10.1664 55.7829 9.71123C55.1987 9.41155 54.4704 9.25981 53.5979 9.25981C52.6305 9.25981 51.8567 9.45328 51.2801 9.844C50.7035 10.2347 50.4152 10.7772 50.4152 11.479C50.4152 12.1201 50.6997 12.6019 51.2687 12.9167C51.6329 13.1291 52.4143 13.3757 53.6093 13.6602L56.7085 14.4038C58.0666 14.73 59.0908 15.1624 59.7812 15.7087C60.8548 16.5546 61.3897 17.7799 61.3897 19.3808C61.3897 20.9816 60.7599 22.3852 59.5043 23.4739C58.2487 24.5589 56.4733 25.1013 54.1821 25.1013C51.8908 25.1013 49.9979 24.5664 48.655 23.4967C47.3121 22.4269 46.6407 20.9589 46.6407 19.0887H50.2255C50.3393 19.9119 50.5631 20.5226 50.8969 20.9323C51.5077 21.672 52.5509 22.0438 54.0303 22.0438H54.0379Z" fill="#1A16B8"/>
<path d="M73.9802 24.6423L71.8938 14.9576L69.7846 24.6423H66.1732L62.4404 11.3462H66.1732L68.2482 20.883L70.1639 11.3462H73.6881L75.7138 20.9209L77.7888 11.3462H81.4116L77.5574 24.6423H73.984H73.9802Z" fill="#1A16B8"/>
<path d="M83.8242 12.7877C84.7422 11.6156 86.3203 11.0314 88.5584 11.0314C90.0151 11.0314 91.3087 11.3197 92.4354 11.8963C93.5658 12.4729 94.1311 13.5616 94.1311 15.1662V21.2661C94.1311 21.6872 94.1386 22.1993 94.1538 22.8025C94.1766 23.2577 94.2486 23.5688 94.3625 23.7281C94.4763 23.8874 94.647 24.024 94.8746 24.1302V24.6423H91.0925C90.9863 24.373 90.9142 24.1226 90.8725 23.8874C90.8307 23.6522 90.8004 23.3829 90.7738 23.0832C90.2921 23.6029 89.742 24.0467 89.1161 24.4109C88.3688 24.8434 87.5228 25.0558 86.5783 25.0558C85.3757 25.0558 84.3818 24.7106 83.5966 24.024C82.8113 23.3374 82.4206 22.3624 82.4206 21.103C82.4206 19.468 83.0503 18.2845 84.3098 17.5523C85.0002 17.154 86.0168 16.8695 87.3597 16.6988L88.5433 16.5509C89.1844 16.4712 89.6434 16.3688 89.9203 16.2474C90.4172 16.0349 90.6638 15.7049 90.6638 15.2611C90.6638 14.7148 90.4742 14.3393 90.0948 14.1344C89.7155 13.9258 89.1616 13.8233 88.4295 13.8233C87.6063 13.8233 87.0259 14.0282 86.6845 14.4341C86.4417 14.7338 86.2786 15.1435 86.1951 15.6556H82.8417C82.9138 14.491 83.24 13.5388 83.8166 12.7877H83.8242ZM86.4113 22.131C86.7376 22.4004 87.1359 22.5331 87.6063 22.5331C88.3536 22.5331 89.044 22.3131 89.6737 21.8731C90.3034 21.433 90.6297 20.6326 90.6562 19.4718V18.1782C90.4362 18.3148 90.2162 18.4286 89.9924 18.5121C89.7686 18.5993 89.4613 18.6752 89.0706 18.7511L88.2891 18.899C87.557 19.028 87.0335 19.1873 86.7148 19.3732C86.1799 19.6918 85.9106 20.1812 85.9106 20.8488C85.9106 21.4444 86.0775 21.8693 86.4113 22.131Z" fill="#1A16B8"/>
<path d="M108.353 12.7763C109.426 13.922 109.961 15.6063 109.961 17.8255C109.961 20.166 109.434 21.9527 108.383 23.1818C107.329 24.4109 105.974 25.0255 104.317 25.0255C103.258 25.0255 102.382 24.7599 101.684 24.2326C101.301 23.9405 100.929 23.5119 100.561 22.9504V29.8773H97.1203V11.35H100.451V13.315C100.827 12.7384 101.225 12.2832 101.646 11.9494C102.42 11.3576 103.338 11.0579 104.404 11.0579C105.955 11.0579 107.275 11.6307 108.357 12.7763H108.353ZM106.376 17.9962C106.376 16.9719 106.141 16.0653 105.675 15.2762C105.208 14.4872 104.449 14.0927 103.398 14.0927C102.139 14.0927 101.27 14.692 100.8 15.887C100.557 16.5205 100.436 17.3247 100.436 18.3034C100.436 19.8474 100.845 20.9323 101.669 21.5582C102.158 21.9224 102.735 22.1083 103.402 22.1083C104.37 22.1083 105.109 21.7327 105.618 20.9854C106.126 20.2381 106.38 19.2404 106.38 17.9962H106.376Z" fill="#1A16B8"/>
<path d="M125.442 23.3032C124.099 24.5323 122.385 25.1468 120.295 25.1468C117.707 25.1468 115.674 24.3161 114.195 22.6583C112.715 20.993 111.976 18.7055 111.976 15.8035C111.976 12.6663 112.818 10.2461 114.502 8.54663C115.966 7.06718 117.829 6.32745 120.09 6.32745C123.113 6.32745 125.325 7.32134 126.725 9.30533C127.498 10.4206 127.912 11.5359 127.969 12.6587H124.213C123.97 11.7976 123.656 11.1452 123.272 10.7089C122.59 9.92745 121.577 9.53673 120.234 9.53673C118.891 9.53673 117.791 10.0868 117.002 11.1907C116.213 12.2908 115.818 13.8499 115.818 15.868C115.818 17.8861 116.236 19.3959 117.07 20.4012C117.905 21.4065 118.963 21.9072 120.249 21.9072C121.535 21.9072 122.571 21.4748 123.261 20.6137C123.644 20.1508 123.959 19.4566 124.213 18.5272H127.935C127.608 20.4885 126.781 22.0817 125.446 23.307L125.442 23.3032Z" fill="#1A16B8"/>
<path d="M142.528 16.8354V24.6423H138.977V16.5546C138.977 15.8377 138.856 15.2611 138.613 14.821C138.295 14.2027 137.695 13.8954 136.808 13.8954C135.92 13.8954 135.192 14.2027 134.717 14.8172C134.243 15.4318 134.004 16.3081 134.004 17.4461V24.6423H130.541V6.72577H134.004V13.0798C134.509 12.306 135.093 11.7673 135.753 11.4638C136.413 11.1603 137.111 11.0048 137.843 11.0048C138.666 11.0048 139.41 11.149 140.081 11.4335C140.753 11.718 141.303 12.1542 141.735 12.7384C142.099 13.2354 142.323 13.7437 142.407 14.271C142.486 14.7945 142.528 15.6518 142.528 16.8392V16.8354Z" fill="#1A16B8"/>
<path d="M146.272 12.7877C147.19 11.6156 148.768 11.0314 151.006 11.0314C152.463 11.0314 153.757 11.3197 154.883 11.8963C156.014 12.4729 156.579 13.5616 156.579 15.1662V21.2661C156.579 21.6872 156.587 22.1993 156.602 22.8025C156.625 23.2577 156.697 23.5688 156.81 23.7281C156.924 23.8874 157.095 24.024 157.323 24.1302V24.6423H153.541C153.434 24.373 153.362 24.1226 153.32 23.8874C153.279 23.6522 153.248 23.3829 153.222 23.0832C152.74 23.6029 152.19 24.0467 151.564 24.4109C150.817 24.8434 149.971 25.0558 149.026 25.0558C147.824 25.0558 146.83 24.7106 146.045 24.024C145.259 23.3374 144.869 22.3624 144.869 21.103C144.869 19.468 145.498 18.2845 146.758 17.5523C147.448 17.154 148.465 16.8695 149.808 16.6988L150.991 16.5509C151.632 16.4712 152.091 16.3688 152.368 16.2474C152.865 16.0349 153.112 15.7049 153.112 15.2611C153.112 14.7148 152.922 14.3393 152.543 14.1344C152.163 13.9258 151.61 13.8233 150.878 13.8233C150.054 13.8233 149.474 14.0282 149.133 14.4341C148.89 14.7338 148.727 15.1435 148.643 15.6556H145.29C145.362 14.491 145.688 13.5388 146.265 12.7877H146.272ZM148.859 22.131C149.186 22.4004 149.584 22.5331 150.054 22.5331C150.802 22.5331 151.492 22.3131 152.122 21.8731C152.751 21.433 153.078 20.6326 153.104 19.4718V18.1782C152.884 18.3148 152.664 18.4286 152.44 18.5121C152.217 18.5993 151.909 18.6752 151.519 18.7511L150.737 18.899C150.005 19.028 149.481 19.1873 149.163 19.3732C148.628 19.6918 148.359 20.1812 148.359 20.8488C148.359 21.4444 148.526 21.8693 148.859 22.131Z" fill="#1A16B8"/>
<path d="M165.752 22.1652V24.7637L164.105 24.8244C162.463 24.8813 161.34 24.5968 160.741 23.9709C160.35 23.5726 160.156 22.958 160.156 22.131V13.9447H158.301V11.4676H160.156V7.76138H163.597V11.4676H165.756V13.9447H163.597V20.9702C163.597 21.5165 163.665 21.8541 163.806 21.9869C163.942 22.1197 164.367 22.1879 165.073 22.1879C165.179 22.1879 165.289 22.1879 165.407 22.1804C165.524 22.1766 165.642 22.169 165.756 22.1614L165.752 22.1652Z" fill="#1A16B8"/>
</g>
<defs>
<clipPath id="clip0_176_1186">
<rect width="165.752" height="36" fill="white"/>
</clipPath>
</defs>
</svg>
