<svg width="33" height="33" viewBox="0 0 33 33" fill="none" xmlns="http://www.w3.org/2000/svg">
<g clip-path="url(#clip0_787_861)">
<path fill-rule="evenodd" clip-rule="evenodd" d="M16.5132 0.286377C7.65833 0.286377 0.5 7.49748 0.5 16.4186C0.5 23.5497 5.08659 29.5861 11.4494 31.7225C12.2449 31.8831 12.5363 31.3754 12.5363 30.9483C12.5363 30.5743 12.5101 29.2924 12.5101 27.9567C8.0556 28.9184 7.12799 26.0336 7.12799 26.0336C6.41212 24.164 5.35143 23.6835 5.35143 23.6835C3.89348 22.6952 5.45763 22.6952 5.45763 22.6952C7.07489 22.8021 7.9235 24.3511 7.9235 24.3511C9.35491 26.8082 11.6615 26.1139 12.5894 25.6865C12.7218 24.6448 13.1463 23.9237 13.597 23.5232C10.0442 23.1492 6.30625 21.7604 6.30625 15.5638C6.30625 13.801 6.94214 12.3587 7.94973 11.2371C7.79075 10.8365 7.23386 9.18029 8.10903 6.96353C8.10903 6.96353 9.46111 6.53611 12.5098 8.61946C13.815 8.26634 15.1611 8.0867 16.5132 8.08519C17.8653 8.08519 19.2436 8.27235 20.5164 8.61946C23.5654 6.53611 24.9175 6.96353 24.9175 6.96353C25.7926 9.18029 25.2354 10.8365 25.0764 11.2371C26.1106 12.3587 26.7202 13.801 26.7202 15.5638C26.7202 21.7604 22.9823 23.1223 19.4029 23.5232C19.9864 24.0306 20.4898 24.9919 20.4898 26.5145C20.4898 28.6778 20.4636 30.414 20.4636 30.948C20.4636 31.3754 20.7553 31.8831 21.5505 31.7229C27.9133 29.5857 32.4999 23.5497 32.4999 16.4186C32.5261 7.49748 25.3416 0.286377 16.5132 0.286377Z" fill="#55B8FF"/>
</g>
<defs>
<clipPath id="clip0_787_861">
<rect width="32" height="32" fill="white" transform="translate(0.5 0.286377)"/>
</clipPath>
</defs>
</svg>
