<svg width="33" height="33" viewBox="0 0 33 33" fill="none" xmlns="http://www.w3.org/2000/svg">
<rect x="0.5" y="0.286377" width="32" height="32" rx="16" fill="#55B8FF"/>
<g clip-path="url(#clip0_787_864)">
<path d="M25.5 16.1571C25.5 18.5416 25.1004 20.4758 24.6073 20.4758C24.1142 20.4758 23.7147 18.5421 23.7147 16.1571C23.7147 13.7721 24.1143 11.8384 24.6073 11.8384C25.1002 11.8384 25.5 13.7719 25.5 16.1571Z" fill="#030227"/>
<path d="M23.2221 16.1572C23.2221 18.8192 22.0857 20.9781 20.6838 20.9781C19.2819 20.9781 18.1455 18.8192 18.1455 16.1572C18.1455 13.4953 19.2818 11.3364 20.6837 11.3364C22.0855 11.3364 23.222 13.4946 23.222 16.1572" fill="#030227"/>
<path d="M17.6531 16.1572C17.6531 18.9852 15.3802 21.2778 12.5766 21.2778C9.77305 21.2778 7.5 18.9847 7.5 16.1572C7.5 13.3296 9.77287 11.0364 12.5766 11.0364C15.3804 11.0364 17.6531 13.3291 17.6531 16.1572Z" fill="#030227"/>
</g>
<defs>
<clipPath id="clip0_787_864">
<rect width="18" height="18" fill="white" transform="translate(7.5 7.28638)"/>
</clipPath>
</defs>
</svg>
