<svg width="33" height="33" viewBox="0 0 33 33" fill="none" xmlns="http://www.w3.org/2000/svg">
<g clip-path="url(#clip0_787_869)">
<path fill-rule="evenodd" clip-rule="evenodd" d="M32.5 16.2864C32.5 25.1229 25.3366 32.2864 16.5 32.2864C7.66344 32.2864 0.5 25.1229 0.5 16.2864C0.5 7.44982 7.66344 0.286377 16.5 0.286377C25.3366 0.286377 32.5 7.44982 32.5 16.2864ZM17.0734 12.0983C15.5171 12.7456 12.4068 14.0853 7.74252 16.1175C6.98511 16.4187 6.58834 16.7133 6.55222 17.0014C6.49118 17.4884 7.10095 17.6801 7.93129 17.9412C8.04424 17.9767 8.16127 18.0135 8.28125 18.0525C9.09818 18.3181 10.1971 18.6287 10.7684 18.6411C11.2866 18.6523 11.865 18.4386 12.5035 18.0002C16.8615 15.0584 19.1112 13.5715 19.2524 13.5394C19.3521 13.5168 19.4901 13.4884 19.5837 13.5715C19.6772 13.6547 19.668 13.8121 19.6581 13.8544C19.5977 14.1119 17.2042 16.3372 15.9655 17.4887C15.5793 17.8477 15.3054 18.1024 15.2494 18.1606C15.124 18.2908 14.9962 18.4141 14.8733 18.5325C14.1144 19.2641 13.5452 19.8128 14.9048 20.7088C15.5582 21.1393 16.081 21.4954 16.6026 21.8506C17.1722 22.2385 17.7404 22.6254 18.4755 23.1073C18.6628 23.23 18.8416 23.3575 19.0159 23.4817C19.6788 23.9543 20.2743 24.3789 21.0101 24.3112C21.4377 24.2719 21.8793 23.8699 22.1036 22.6708C22.6336 19.8372 23.6755 13.6977 23.9163 11.1677C23.9374 10.946 23.9108 10.6623 23.8895 10.5378C23.8682 10.4133 23.8237 10.2359 23.6618 10.1045C23.4701 9.94896 23.1742 9.91616 23.0418 9.91849C22.44 9.92909 21.5167 10.2501 17.0734 12.0983Z" fill="#55B8FF"/>
</g>
<defs>
<clipPath id="clip0_787_869">
<rect width="32" height="32" fill="white" transform="translate(0.5 0.286377)"/>
</clipPath>
</defs>
</svg>
