<svg width="143" height="36" viewBox="0 0 143 36" fill="none" xmlns="http://www.w3.org/2000/svg">
<g clip-path="url(#clip0_551_1156)">
<path d="M36.749 17.0637C36.7695 16.6681 36.6842 16.5317 36.2443 16.5351C32.5785 16.5556 28.9161 16.5488 25.2503 16.5454C24.5273 16.5454 23.8317 16.4021 23.1565 16.1259C22.7984 15.9793 22.8087 15.8804 23.0712 15.6212C24.7763 13.9435 26.4711 12.2487 28.1625 10.5539C28.8411 9.87188 28.8956 8.95458 28.3057 8.35781C27.6851 7.73036 26.795 7.78152 26.0823 8.49422C24.5683 10.0015 23.0576 11.5087 21.5469 13.0194C21.281 13.2854 21.0354 13.5752 20.749 13.8923C20.4318 13.2308 20.2307 12.6477 20.2136 12.01C20.1147 11.8565 20.1625 11.686 20.1625 11.5224C20.1625 7.83608 20.1556 4.1498 20.1693 0.463527C20.1693 0.122521 20.1079 -0.0172912 19.726 0.00316916C19.0576 0.0372698 18.3824 0.0372698 17.714 0.00316916C17.3389 -0.0138811 17.2673 0.115701 17.2673 0.460117C17.2809 4.1157 17.2775 7.77128 17.2741 11.4269C17.2741 11.5906 17.3287 11.7611 17.2162 11.9145C17.2162 12.5931 17.0081 13.2137 16.7319 13.773C15.6953 12.7738 14.662 11.7849 13.6424 10.7824C12.8615 10.0117 12.1079 9.21374 11.3236 8.44989C10.7063 7.84972 9.72765 7.85995 9.18204 8.43966C8.6262 9.0296 8.66371 9.90939 9.2707 10.53C9.63217 10.8983 9.99704 11.27 10.3619 11.6383C11.6884 12.9819 13.015 14.3288 14.3517 15.6622C14.6143 15.9213 14.5699 16.0032 14.2494 16.1328C13.5913 16.4021 12.9127 16.542 12.2034 16.5454C10.2971 16.5488 8.38749 16.542 6.48127 16.5454C4.55799 16.5488 2.63471 16.559 0.714844 16.5658C0.718254 17.5309 0.725074 18.4959 0.728484 19.461C0.895577 19.4644 1.06267 19.4712 1.22976 19.4712C4.94333 19.4712 8.65348 19.4746 12.3636 19.4712C13.1173 19.4712 13.8265 19.6451 14.5461 20.01C13.9254 20.6272 13.3287 21.2171 12.7387 21.8071C11.5384 23.0006 10.3381 24.1941 9.14453 25.3945C8.61938 25.923 8.51708 26.646 8.85467 27.2359C9.1684 27.7883 9.80608 28.0509 10.4676 27.9077C10.8121 27.8327 11.061 27.6178 11.3031 27.3757C13.0695 25.6093 14.8393 23.8463 16.6296 22.0594C17.0968 22.8403 17.2503 23.6656 17.2503 24.5283C17.2503 28.1975 17.2571 31.8702 17.2434 35.5394C17.2434 35.894 17.3219 36.0168 17.6936 35.9998C18.3483 35.9691 19.0064 35.9657 19.6612 35.9998C20.067 36.0202 20.2 35.9179 20.1966 35.4848C20.1761 31.7815 20.1863 28.0816 20.1863 24.3783C20.1863 23.6008 20.35 22.8642 20.7763 22.0901C20.8717 22.2265 20.9229 22.3254 20.9979 22.4004C22.72 24.1498 24.4387 25.8992 26.171 27.6383C26.8053 28.276 27.7089 28.2998 28.2989 27.727C28.8956 27.1438 28.8956 26.2538 28.2682 25.6025C27.2486 24.5522 26.2153 23.5155 25.1855 22.4755C24.4012 21.6775 23.6168 20.8796 22.7984 20.0475C23.5486 19.6622 24.2818 19.4678 25.0798 19.4712C28.8206 19.4746 32.5615 19.4712 36.3023 19.4814C36.6638 19.4814 36.7661 19.3859 36.749 19.0279C36.7217 18.3732 36.7183 17.7184 36.749 17.0637ZM18.7166 19.8293C18.1914 19.1097 17.5879 18.5164 16.8854 17.9981C17.5947 17.4661 18.1812 16.8761 18.7166 16.1737C19.2486 16.883 19.8283 17.4763 20.541 17.9878C19.8487 18.5232 19.2315 19.1029 18.7166 19.8293Z" fill="black"/>
<path d="M54.6178 17.524C54.6212 16.5487 54.5155 15.5769 54.3075 14.6255C53.9938 13.1796 53.4584 11.8395 52.3604 10.7755C50.0381 8.52829 44.4967 8.49419 42.6928 13.1285C41.8437 15.3041 41.68 17.5615 41.9085 19.8599C41.9733 20.5283 42.0961 21.1864 42.2734 21.8309C43.0884 24.7636 44.8855 26.2879 47.9307 26.472C51.0304 26.6562 53.3425 25.4251 54.2393 21.9639C54.6178 20.5044 54.6758 19.021 54.6178 17.524ZM45.7448 18.1106C45.7755 16.7602 45.7994 15.4371 46.1745 14.1515C46.3075 13.6979 46.4848 13.2614 46.7713 12.8795C47.2623 12.2282 47.917 11.9895 48.7048 12.1395C49.5164 12.2896 49.8642 12.9068 50.154 13.5888C50.2188 13.7423 50.1336 13.8139 50.0449 13.8991C48.657 15.2904 47.2657 16.6851 45.8744 18.073C45.8574 18.0935 45.8198 18.0901 45.7448 18.1106ZM50.1745 22.2572C49.871 23.079 49.397 23.7474 48.4081 23.8156C47.5249 23.8736 46.553 23.154 46.3586 22.3015C46.3348 22.1856 46.3518 22.0969 46.4405 22.0185C46.4848 21.9776 46.5257 21.9332 46.5701 21.8889C47.9204 20.559 49.2742 19.2256 50.6724 17.848C50.7031 19.3757 50.6962 20.8488 50.1745 22.2572Z" fill="#3AC89F"/>
<path d="M77.9905 26.3596C76.398 26.3392 74.6998 26.0698 73.2369 24.9751C71.8967 23.9726 71.2352 22.5642 70.8601 20.9854C70.8123 20.791 70.8908 20.7467 71.0476 20.716C72.1252 20.5182 73.2062 20.3238 74.2804 20.1158C74.502 20.0715 74.5668 20.1363 74.6009 20.3511C74.6555 20.7262 74.7612 21.0911 74.9112 21.4423C75.5796 23.0144 76.8925 23.4918 78.4202 23.4713C78.9215 23.4645 79.4193 23.3792 79.8831 23.1542C81.0869 22.5676 81.3426 21.0877 80.4014 20.1397C80.04 19.7748 79.5967 19.5497 79.1159 19.3861C77.8609 18.9564 76.5822 18.6222 75.3034 18.2914C74.2292 18.0118 73.2198 17.5787 72.4628 16.7262C70.6146 14.6495 71.3 11.1985 73.9087 9.96065C76.4219 8.77054 79.0408 8.72962 81.6086 9.86517C83.1841 10.5608 84.04 11.8805 84.4731 13.5037C84.5276 13.7151 84.5072 13.8208 84.2582 13.8686C83.1807 14.0732 82.1065 14.2982 81.0357 14.5267C80.8482 14.5676 80.8141 14.4892 80.7663 14.3358C80.1389 12.3682 78.5055 11.5702 76.5378 12.2624C75.8968 12.4875 75.4739 12.8967 75.3955 13.5992C75.317 14.2778 75.7092 14.6802 76.2275 14.9939C76.9982 15.4577 77.8644 15.6316 78.7271 15.826C79.9957 16.1124 81.2165 16.5318 82.3588 17.1525C84.2378 18.1721 85.121 19.7475 84.9334 21.8856C84.7663 23.8157 83.5217 25.2514 81.5063 25.8925C80.4185 26.2369 79.3 26.3494 77.9939 26.3596H77.9905Z" fill="black"/>
<path d="M127.678 17.1422C126.877 14.4858 124.545 13.2513 121.871 14.0152C120.841 14.3084 120.023 14.912 119.317 15.8668C119.317 15.3315 119.297 14.9325 119.324 14.5403C119.348 14.1993 119.269 14.0697 118.891 14.0834C117.973 14.1141 117.056 14.1141 116.142 14.0834C115.75 14.0697 115.672 14.1891 115.672 14.5608C115.685 18.704 115.682 22.8472 115.682 26.9905C115.682 28.0714 115.696 29.1524 115.675 30.2334C115.668 30.5608 115.771 30.646 116.088 30.6324C116.759 30.6119 117.431 30.6358 118.103 30.6222C118.495 30.6154 119.007 30.7961 119.245 30.5472C119.481 30.3016 119.314 29.7935 119.314 29.4014C119.324 27.8396 119.317 26.2778 119.317 24.6068C120.224 25.7287 121.349 26.2402 122.666 26.3016C124.927 26.4073 126.744 25.531 127.539 23.3315C128.275 21.2957 128.299 19.2087 127.678 17.1422ZM124.019 21.8617C123.661 23.0416 122.737 23.652 121.568 23.5531C120.343 23.4474 119.576 22.6938 119.395 21.415C119.337 20.9922 119.293 20.5693 119.32 20.1908C119.303 19.5599 119.344 18.9836 119.494 18.421C119.784 17.3332 120.558 16.7432 121.738 16.6955C122.846 16.6512 123.655 17.1729 124.016 18.2266C124.432 19.4304 124.384 20.658 124.019 21.8617Z" fill="black"/>
<path d="M139.027 22.3596C138.836 22.3357 138.792 22.4414 138.737 22.5676C138.461 23.1916 137.946 23.5122 137.312 23.6724C136.435 23.8941 135.583 23.7782 134.768 23.4133C133.99 23.0689 133.54 22.4516 133.325 21.6366C133.216 21.224 133.319 21.1354 133.742 21.1388C136.534 21.1592 139.331 21.1422 142.123 21.1558C142.492 21.1592 142.584 21.0569 142.574 20.7023C142.56 20.1533 142.536 19.6077 142.485 19.062C142.253 16.5795 140.882 14.8472 138.56 14.1516C137.056 13.7014 135.522 13.6639 133.994 14.0356C132.442 14.4107 131.181 15.2223 130.43 16.6648C129.544 18.3732 129.281 20.1805 129.782 22.0595C130.219 23.6997 131.198 24.9308 132.78 25.5787C135.051 26.513 137.387 26.5676 139.706 25.7662C141.158 25.2649 142.181 24.2658 142.785 22.7961C141.506 22.6494 140.265 22.513 139.027 22.3596ZM133.22 18.5437C133.366 17.4832 134.1 16.7091 135.273 16.4227C136.916 16.0203 138.492 16.8455 138.874 18.3118C138.965 18.6687 138.834 18.8472 138.481 18.8472H136.054C135.201 18.8472 134.345 18.8404 133.489 18.8506C133.24 18.8574 133.186 18.7961 133.22 18.5437Z" fill="black"/>
<path d="M112.282 15.7407C110.979 14.2709 109.23 13.8856 107.368 13.8242C107.187 13.8242 107.003 13.8072 106.819 13.8242C105.158 13.9777 103.607 14.4005 102.41 15.6623C101.401 16.7296 100.991 18.0527 100.828 19.4679C100.626 21.1968 101.169 23.976 103.494 25.282C105.046 26.1516 106.717 26.4483 108.48 26.2027C109.817 26.0186 111.071 25.6196 112.067 24.6546C114.291 22.5062 114.4 18.1311 112.282 15.7407ZM109.881 21.4014C109.585 22.7995 108.736 23.5258 107.344 23.5531C106.011 23.5838 105.094 22.8916 104.756 21.5719C104.497 20.5659 104.497 19.5531 104.766 18.5472C105.083 17.3468 105.922 16.7023 107.153 16.6853C108.435 16.6682 109.387 17.3468 109.765 18.5608C109.936 19.0996 109.987 19.6588 110.001 20.2727C109.97 20.6171 109.963 21.0126 109.881 21.4014Z" fill="black"/>
<path d="M99.5215 21.8992C98.9179 23.8906 97.7858 25.3774 95.7432 25.9674C93.7039 26.5539 91.6545 26.4516 89.6835 25.6809C87.6204 24.8762 86.6826 23.2155 86.4064 21.1046C86.2632 20.0168 86.3655 18.9495 86.6758 17.8992C87.1907 16.1396 88.3126 14.9222 90.0483 14.3288C92.4524 13.507 94.8122 13.5309 97.0356 14.9256C98.0347 15.5531 98.6929 16.4772 99.1873 17.5309C99.2999 17.7696 99.2487 17.8344 98.9964 17.8719C97.9563 18.0322 96.9196 18.2163 95.883 18.3834C95.7227 18.4107 95.5761 18.4414 95.4635 18.2299C94.86 17.0739 93.9017 16.5386 92.6025 16.7568C91.3135 16.975 90.5837 17.8105 90.2973 19.0518C90.0722 20.0202 90.0859 20.9887 90.4439 21.9265C90.8531 22.9972 91.8284 23.5837 93.1004 23.5531C94.3041 23.5224 95.1396 22.912 95.4772 21.7866C95.5488 21.5513 95.617 21.4354 95.9034 21.4797C96.507 21.5718 97.114 21.6161 97.721 21.6843C98.3109 21.7525 98.8975 21.8242 99.5249 21.8992H99.5215Z" fill="black"/>
<path d="M69.3936 26.1755C68.0227 26.1755 66.7439 26.1686 65.4618 26.1823C65.2299 26.1823 65.148 26.0493 65.0491 25.8924C64.2614 24.6443 63.4703 23.3997 62.6757 22.155C62.5871 22.0186 62.5359 21.8481 62.3416 21.756C61.53 23.0041 60.6877 24.2351 59.9238 25.5105C59.6101 26.0322 59.2589 26.2232 58.6553 26.1925C57.5743 26.1414 56.4899 26.1789 55.385 26.1789C55.3748 25.9743 55.5248 25.872 55.6169 25.7492C56.923 24.0067 58.2222 22.2573 59.5487 20.5284C59.7806 20.2249 59.7567 20.0442 59.5453 19.7509C58.2836 18.0152 57.0423 16.2624 55.7942 14.5131C55.7772 14.4892 55.7669 14.4619 55.7533 14.4312C55.8147 14.2982 55.9374 14.3596 56.0295 14.3596C57.1139 14.3562 58.1983 14.3664 59.2793 14.3494C59.5419 14.346 59.6885 14.4346 59.8249 14.6563C60.5888 15.918 61.3697 17.1729 62.1438 18.4278C62.3995 18.8438 62.4029 18.8438 62.6689 18.4142C63.4294 17.1831 64.2 15.9589 64.94 14.7177C65.1139 14.4244 65.3049 14.3391 65.6323 14.346C66.7678 14.3664 67.9068 14.3528 69.1276 14.3528C68.2444 15.5872 67.4123 16.7432 66.5803 17.9027C66.1199 18.5472 65.6698 19.1985 65.1855 19.8259C64.9639 20.1124 64.9468 20.3033 65.1855 20.6068C66.4916 22.2914 67.7704 23.9998 69.0594 25.6981C69.1583 25.8276 69.2503 25.964 69.4038 26.1755H69.3936Z" fill="#3AC89F"/>
</g>
<defs>
<clipPath id="clip0_551_1156">
<rect width="142.07" height="36" fill="white" transform="translate(0.714844)"/>
</clipPath>
</defs>
</svg>
