<svg width="36" height="36" viewBox="0 0 36 36" fill="none" xmlns="http://www.w3.org/2000/svg">
<g clip-path="url(#clip0_176_1081)">
<path d="M35.9991 35.6463C35.9991 35.9064 35.9667 36 35.6652 36C23.8833 35.9901 12.1014 35.9901 0.3195 35.9991C0.0432 36 0.0009 35.9343 0.0009 35.6742C0.0099 29.7837 0.0081 23.8932 0.0081 18.0036C0.0081 12.114 0.0099 6.2523 0 0.3771C0 0.0873 0.0342 0 0.3591 0C12.1257 0.0117 23.8923 0.0108 35.6598 0.0018C35.9478 0.0018 36.0009 0.0756 36 0.3492C35.9928 12.1149 35.9928 23.8806 35.9991 35.6463Z" fill="#FE3400"/>
<path d="M16.0686 16.2549C15.8787 16.4727 15.8562 16.8183 15.8607 17.0928C15.8751 17.8299 15.8688 18.567 15.8652 19.3041C15.8652 19.3509 15.8652 19.3977 15.8751 19.4427C15.8895 19.5048 15.9237 19.5615 15.9615 19.6128C16.2549 20.0106 16.7544 20.142 17.2251 20.1492C18.1872 20.1636 19.1502 20.1051 20.1114 20.187C20.1213 20.187 20.1321 20.1888 20.1393 20.1969C20.1456 20.2041 20.1465 20.2149 20.1465 20.2248C20.1537 20.7207 20.0601 21.3597 20.3202 21.8106C20.5371 22.1859 20.9781 22.2804 21.3813 22.2849C22.4757 22.2993 23.5701 22.2876 24.6645 22.2885C25.1748 22.2885 25.6842 22.2993 26.1936 22.2903C26.4483 22.2867 26.5743 22.3542 26.5707 22.6431C26.5536 23.9472 26.5545 25.2513 26.5491 26.5545C24.5169 26.5644 22.4847 26.5689 20.4525 26.586C20.1375 26.5887 20.1294 26.4069 20.1285 26.181C20.1249 25.2495 20.1636 24.3081 20.1258 23.3784C20.115 23.1003 20.0385 22.7916 19.8081 22.6134C19.4427 22.3308 18.9468 22.3173 18.5058 22.311C17.9892 22.3038 17.4708 22.3056 16.9542 22.3209C16.5681 22.3326 16.1865 22.4784 15.966 22.8096C15.8148 23.0562 15.8589 23.3145 15.8571 23.5935C15.8544 23.9238 15.8517 24.2532 15.8499 24.5835C15.8445 25.2432 15.84 25.9029 15.8346 26.5635C14.1273 26.5716 12.42 26.5869 10.7118 26.5851C10.3113 26.5851 9.70561 26.6049 9.53731 26.5131C9.40231 26.4384 9.43201 25.7166 9.43201 25.3044C9.43201 25.0569 9.43201 24.8103 9.43201 24.5628C9.43201 24.1479 9.43201 23.7321 9.43111 23.3172C9.43111 22.9023 9.43111 22.4865 9.43111 22.0716C9.43111 21.6567 9.43111 21.2409 9.43111 20.826C9.43111 20.4111 9.43111 19.9953 9.43111 19.5804C9.43111 19.1655 9.43111 18.7497 9.43111 18.3348C9.43111 17.9199 9.43111 17.5041 9.43111 17.0892C9.43111 16.6743 9.43111 16.2585 9.43111 15.8436C9.43111 15.4287 9.43111 15.0129 9.43111 14.598C9.43111 14.1831 9.43111 13.7673 9.43111 13.3524C9.43111 12.9375 9.43111 12.5217 9.43111 12.1068C9.43111 11.6919 9.43111 11.2761 9.43111 10.8612C9.43111 10.6533 9.43111 10.4463 9.43111 10.2384C9.43111 10.116 9.43111 9.99541 9.42571 9.87301C9.41941 9.74521 9.42391 9.61651 9.43651 9.48871C9.43741 9.47701 9.43921 9.46531 9.44551 9.45541C9.45811 9.43471 9.48601 9.43111 9.51031 9.42931C9.60391 9.42481 9.69841 9.43291 9.79291 9.43291C9.89191 9.43291 9.99091 9.43291 10.0899 9.43291C10.2861 9.43291 10.4823 9.43291 10.6785 9.43291C11.0934 9.43291 11.5092 9.43291 11.9241 9.43291C12.339 9.43291 12.7548 9.43291 13.1697 9.43291C13.5846 9.43291 14.0004 9.43291 14.4153 9.43291C14.7933 9.43291 15.1713 9.43291 15.5484 9.43291C15.6483 9.43291 15.7608 9.39871 15.8418 9.49591C15.8616 9.51931 15.8427 9.64441 15.8436 9.67681C15.8436 9.74791 15.8454 9.81991 15.8463 9.89101C15.8481 10.0287 15.8508 10.1655 15.8535 10.3032C15.858 10.5777 15.8634 10.8531 15.8661 11.1276C15.8688 11.4021 15.8697 11.6766 15.8652 11.952C15.8616 12.1941 15.8301 12.447 15.8544 12.6882C15.8787 12.9294 15.9669 13.1463 16.11 13.3299C16.1928 13.437 16.2945 13.5297 16.4124 13.5972C16.5447 13.6728 16.6878 13.6746 16.8381 13.689C17.2404 13.7268 17.6445 13.7304 18.0486 13.7304C18.4527 13.7304 18.8901 13.7403 19.2789 13.6404C19.8846 13.4829 20.1402 13.1706 20.1429 12.5685C20.1483 11.6541 20.1582 10.7397 20.1429 9.82531C20.1384 9.50671 20.2527 9.41581 20.5614 9.41761C22.4199 9.42751 24.2793 9.42571 26.1378 9.41221C26.469 9.41041 26.5806 9.51841 26.5761 9.85231C26.5599 11.0214 26.559 12.1905 26.5752 13.3596C26.5797 13.6773 26.4447 13.7322 26.1738 13.7304C25.0677 13.725 23.9616 13.7277 22.8555 13.7286C22.2633 13.7286 21.6684 13.6746 21.0807 13.7637C20.8764 13.7943 20.6451 13.8555 20.4867 13.9959C20.3553 14.1111 20.2239 14.2506 20.1735 14.4225C20.1231 14.5944 20.1474 14.7861 20.1474 14.9661V15.4638C20.1474 15.5268 20.1465 15.5907 20.1474 15.6537C20.1474 15.6861 20.1492 15.7185 20.1519 15.7509C20.1537 15.7725 20.1564 15.7968 20.1465 15.8175C20.1186 15.8742 20.0385 15.8517 19.9899 15.8499C19.8981 15.8463 19.8063 15.8517 19.7145 15.8517C19.2924 15.858 18.8694 15.8625 18.4473 15.867C18.3519 15.8679 18.2565 15.8688 18.1611 15.8697C17.5428 15.8751 16.8858 15.7914 16.3143 16.0776C16.2432 16.1136 16.173 16.1541 16.1145 16.2072C16.0983 16.2216 16.083 16.2378 16.0686 16.254V16.2549Z" fill="white"/>
</g>
<defs>
<clipPath id="clip0_176_1081">
<rect width="36" height="36" fill="white"/>
</clipPath>
</defs>
</svg>
