<svg width="125" height="36" viewBox="0 0 125 36" fill="none" xmlns="http://www.w3.org/2000/svg">
<g clip-path="url(#clip0_176_1016)">
<mask id="mask0_176_1016" style="mask-type:luminance" maskUnits="userSpaceOnUse" x="0" y="0" width="125" height="36">
<path d="M124.043 0.194122H0.391304V35.806H124.043V0.194122Z" fill="white"/>
</mask>
<g mask="url(#mask0_176_1016)">
<path d="M18.1972 35.8059C28.0312 35.8059 36.0031 27.8339 36.0031 18C36.0031 8.16613 28.0312 0.194122 18.1972 0.194122C8.36327 0.194122 0.391304 8.16613 0.391304 18C0.391304 27.8339 8.36327 35.8059 18.1972 35.8059Z" fill="#1C68F3"/>
<path d="M96.7422 13.5202C100.006 13.5202 103.714 14.7743 103.935 18.7874H99.3725C99.2771 17.6273 98.2002 17.0944 96.7743 17.0944C95.443 17.0944 94.8412 17.596 94.8412 18.1917C94.8412 18.6933 95.2216 19.1636 96.426 19.3831L99.3091 19.8534C102.192 20.3863 104.094 21.7658 104.094 24.4622C104.094 27.9736 100.893 29.6039 96.901 29.6039C92.8769 29.6039 89.6134 27.9423 89.2964 23.8978L93.8591 23.9291C94.0805 25.2459 95.1895 25.8417 96.8056 25.8417C98.1681 25.8417 98.9922 25.4341 98.9922 24.7757C98.9922 24.274 98.5171 23.8664 97.5029 23.7097L94.3975 23.1767C91.7358 22.7378 89.8983 21.2642 89.8983 18.5992C89.8983 15.4013 92.6546 13.5202 96.7422 13.5202ZM77.5088 13.5794C79.1851 13.5794 80.5766 14.0178 81.7161 14.7381V13.9239H86.8398V29.1134H81.7161V28.2677C80.5766 28.9881 79.1851 29.4266 77.5088 29.4266C73.3651 29.4266 69.8857 26.0128 69.8857 21.503C69.8857 16.9617 73.3651 13.5794 77.5088 13.5794ZM47.4945 7.78448L55.1781 19.1797L62.8298 7.78448H66.8303V29.1309H61.4645V18.4263L56.6703 25.7405V25.7719H53.6858V25.7405L48.8598 18.3635L48.8915 29.1309H43.5257V7.78448H47.4945ZM112.05 6.89751V19.6425L117.412 13.9433H123.536L117.697 20.1436L124.043 29.1309H117.888L114.207 23.87L112.05 26.156V29.1309H106.91V6.89751H112.05ZM78.5207 17.7134C76.4333 17.7134 74.915 19.4046 74.915 21.503C74.915 23.6013 76.4333 25.2611 78.5207 25.2611C79.6594 25.2611 80.7668 24.948 81.7161 23.8518V19.154C80.7668 18.0579 79.6594 17.7134 78.5207 17.7134Z" fill="#1C68F3"/>
<path fill-rule="evenodd" clip-rule="evenodd" d="M28.9446 13.6232V19.5363H10.9207L10.1453 19.5364C10.966 23.1243 14.2233 25.8043 18.1166 25.8043C21.3353 25.8043 24.1194 23.9725 25.4512 21.3104H28.9446V26.2773C28.9446 27.453 27.9762 28.406 26.7817 28.406H9.4788C8.2843 28.406 7.31593 27.453 7.31593 26.2773V13.6232H28.9446ZM23.3768 21.3104C22.2298 22.9609 20.3017 24.044 18.1166 24.044C15.9315 24.044 14.0035 22.9609 12.8564 21.3104H23.3768ZM13.5041 15.0424C11.8092 15.0424 10.407 16.2759 10.1738 17.8807H12.0174C12.2201 17.263 12.8091 16.8163 13.5041 16.8163C14.1992 16.8163 14.7882 17.263 14.9909 17.8807H16.8345C16.6013 16.2759 15.1991 15.0424 13.5041 15.0424ZM22.7564 15.0424C21.0614 15.0424 19.6592 16.2759 19.426 17.8807H21.2697C21.4724 17.263 22.0613 16.8163 22.7564 16.8163C23.4514 16.8163 24.0404 17.263 24.2431 17.8807H26.0868C25.8536 16.2759 24.4514 15.0424 22.7564 15.0424ZM26.7817 7.11876C27.9762 7.11876 28.9446 8.07183 28.9446 9.24746V11.8492H7.31593V9.24746C7.31593 8.07183 8.2843 7.11876 9.4788 7.11876H26.7817Z" fill="white"/>
</g>
</g>
<defs>
<clipPath id="clip0_176_1016">
<rect width="124.435" height="36" fill="white"/>
</clipPath>
</defs>
</svg>
