<svg width="91" height="36" viewBox="0 0 91 36" fill="none" xmlns="http://www.w3.org/2000/svg">
<g clip-path="url(#clip0_551_1100)">
<path d="M16.9524 25.714C24.0238 25.714 29.8095 19.9283 29.8095 12.8569C29.8095 9.89976 28.9095 7.32833 27.2381 5.14261C28.7809 3.98547 29.8095 2.0569 29.8095 -0.000244141H16.9524C9.88093 -0.000244141 4.09521 5.78547 4.09521 12.8569C4.09521 19.9283 9.88093 25.714 16.9524 25.714ZM16.9524 5.91404C20.8095 5.91404 23.8952 8.99976 23.8952 12.8569C23.8952 16.714 20.8095 19.7998 16.9524 19.7998C13.0952 19.7998 10.0095 16.714 10.0095 12.8569C10.0095 8.99976 13.0952 5.91404 16.9524 5.91404Z" fill="#00DF9B"/>
<path d="M33.4096 29.1854C32.6382 27.2569 31.0953 25.8426 29.0382 25.1997C25.6953 28.414 21.3239 30.0854 17.081 30.0854C12.7096 30.0854 8.46673 28.414 5.12387 25.1997C3.06673 25.8426 1.52387 27.2569 0.752441 29.1854C5.12387 33.6854 11.0382 35.9997 16.9524 35.9997C22.8667 35.9997 28.781 33.6854 33.4096 29.1854Z" fill="#2471FE"/>
<path d="M73.3952 4.24292C71.7238 4.24292 70.5667 5.40006 70.5667 7.07149C70.5667 8.74292 71.7238 9.90006 73.3952 9.90006C75.0667 9.90006 76.2238 8.74292 76.2238 7.07149C76.2238 5.40006 75.0667 4.24292 73.3952 4.24292Z" fill="black"/>
<path d="M43.5669 30.471C45.129 30.471 46.3954 29.2046 46.3954 27.6423C46.3954 26.0802 45.129 24.8137 43.5669 24.8137C42.0047 24.8137 40.7383 26.0802 40.7383 27.6423C40.7383 29.2046 42.0047 30.471 43.5669 30.471Z" fill="black"/>
<path d="M59.7672 11.6997C58.2243 11.6997 56.81 12.214 55.5243 13.114C55.5243 9.51399 55.5243 5.52828 55.5243 5.52828C53.9814 4.75685 52.1814 4.75685 50.51 5.52828V30.214C52.0529 30.9854 53.9814 30.9854 55.5243 30.214V29.1854C56.6814 30.0854 58.2243 30.5997 59.7672 30.5997C62.3386 30.5997 64.6529 29.314 65.9386 26.9997C66.8386 25.4568 67.2243 23.5283 67.2243 21.214C67.2243 18.8997 66.71 16.9711 65.9386 15.4283C64.6529 13.114 62.4672 11.6997 59.7672 11.6997ZM58.8672 26.2283C56.5529 26.2283 55.5243 23.914 55.5243 21.0854C55.5243 18.2569 56.5529 15.9426 58.8672 15.9426C61.1814 15.9426 62.21 18.514 62.21 21.0854C62.21 23.6569 61.1814 26.2283 58.8672 26.2283Z" fill="black"/>
<path d="M70.8235 12.2143V30.0857C72.3663 30.8571 74.2949 30.8571 75.8378 30.0857V12.2143C74.2949 11.4429 72.4949 11.4429 70.8235 12.2143Z" fill="black"/>
<path d="M90.1095 26.0998H88.1809C87.4095 26.0998 86.7666 25.457 86.7666 24.6856V16.0713C88.1809 16.0713 89.9809 16.0713 89.9809 16.0713C90.6238 14.7856 90.6238 13.3713 89.9809 12.0856H86.7666V7.45699C85.2238 6.68556 83.4238 6.68556 81.7524 7.45699V11.957H78.9238C78.2809 13.2427 78.2809 14.657 78.9238 15.9427C78.9238 15.9427 80.7238 15.9427 81.7524 15.9427V26.2284C81.7524 29.1856 83.6809 30.3427 87.4095 30.3427C89.0809 30.3427 90.1095 30.2141 90.1095 30.2141C90.7524 29.057 90.7524 27.3856 90.1095 26.0998Z" fill="black"/>
</g>
<defs>
<clipPath id="clip0_551_1100">
<rect width="90" height="36" fill="white" transform="translate(0.623291)"/>
</clipPath>
</defs>
</svg>
