<svg width="146" height="36" viewBox="0 0 146 36" fill="none" xmlns="http://www.w3.org/2000/svg">
<path d="M101.239 21.2549C99.2092 18.2398 94.3128 16.6353 90.8095 15.6903C90.3998 15.5823 89.9768 15.4743 89.5246 15.364H89.4886C87.6006 14.887 85.4586 14.3582 83.7913 13.4537C81.8807 12.4073 80.9447 11.0505 80.9447 9.30665C80.9447 9.02313 80.9696 8.74186 81.0236 8.46284V8.41334C81.0506 8.28509 81.0842 8.15908 81.1247 8.03308C81.1292 8.01508 81.1337 7.99933 81.1406 7.98356V7.96556C81.3881 7.24327 81.8021 6.58849 82.3489 6.0552C83.7643 4.62186 86.0256 3.81631 88.5593 3.81631H88.6379C90.5033 3.85681 92.3395 4.28884 94.0293 5.08538C95.717 5.85043 97.2403 6.93275 98.5228 8.27158L98.5543 11.9033V11.9416H101.707V1.00138H98.5612V3.48104C98.5612 3.51704 98.5432 3.55304 98.5117 3.57104C98.4823 3.57104 98.4442 3.55304 98.4262 3.53279C97.094 2.52022 95.6111 1.72143 94.0338 1.16564C92.3418 0.587355 90.5686 0.279085 88.7798 0.254333C86.7276 0.254333 85.0513 0.49285 83.6518 0.949629C82.4884 1.33665 81.4061 1.93968 80.4632 2.72498C79.4372 3.52604 78.6136 4.55661 78.0579 5.73118C77.5201 6.86525 77.2387 8.10283 77.2321 9.35615C77.2162 10.0987 77.3086 10.839 77.5066 11.5568C77.7496 12.3488 78.1119 13.1004 78.5821 13.7844C78.6226 13.8497 78.6699 13.9104 78.7126 13.9734C78.7554 14.0364 78.7576 14.0342 78.7801 14.0635L78.8094 14.1017C80.8751 16.9549 85.4878 18.2194 88.8518 19.1488L88.9439 19.1736L89.6911 19.3806L90.5011 19.5988C92.254 20.0286 93.9708 20.6001 95.6315 21.3089C96.4978 21.6914 97.2628 22.2698 97.8635 23.0033C98.4193 23.6806 98.7973 24.4883 98.9593 25.3501C99.1168 26.2096 99.0517 27.0963 98.7703 27.9221C98.4397 28.8738 97.8928 29.738 97.1728 30.4421C96.383 31.1465 95.4536 31.6775 94.4478 32.0038C93.469 32.3188 92.452 32.5012 91.4236 32.5462C89.7788 32.6248 88.1318 32.4382 86.5476 31.9948C83.8609 31.1443 81.4082 29.504 79.8174 27.499C79.7634 27.4338 79.7252 27.3595 79.7004 27.2785L79.6689 24.1553V24.1148H76.5166V35.55H79.6712V32.2063C80.9897 33.3652 82.5154 34.263 84.1714 34.848C86.1066 35.5613 88.1453 35.9505 90.2063 36H90.4628C92.2135 36 96.3086 36 99.522 33.2797C100.411 32.5102 101.149 31.5808 101.693 30.5366C102.218 29.5331 102.56 28.4441 102.704 27.3213C102.85 26.2456 102.8 25.1521 102.555 24.0946C102.323 23.0663 101.875 22.0964 101.241 21.2549H101.239Z" fill="white"/>
<path d="M70.1077 21.2549C68.1187 18.2554 63.2021 16.6421 59.6783 15.6925C59.2778 15.5868 58.8616 15.4855 58.4204 15.3753C54.5998 14.4325 49.8407 13.2534 49.7867 9.29765C49.7867 8.70136 49.9127 8.11183 50.1581 7.56954C50.4212 6.998 50.7881 6.48047 51.2381 6.0417C52.6714 4.62861 54.9193 3.81631 57.4328 3.81631H57.5114C59.3768 3.85681 61.2106 4.28884 62.8983 5.08538C64.5791 5.85043 66.0958 6.93275 67.3648 8.27158L67.4278 11.9033V11.9438H70.5803V1.00138H67.4345V3.48104C67.4345 3.51704 67.4167 3.55079 67.3873 3.57104C67.3625 3.57104 67.3355 3.57104 67.2995 3.53279C65.9675 2.52022 64.4846 1.72143 62.9073 1.16564C61.2151 0.587355 59.4421 0.279085 57.6533 0.254333C55.5898 0.254333 53.9089 0.49285 52.5139 0.949629C51.3527 1.3389 50.2772 1.93968 49.3367 2.72498C48.3106 3.52604 47.4871 4.55661 46.9312 5.73118C46.3912 6.8675 46.1077 8.10733 46.1011 9.36515C46.0852 10.1077 46.1776 10.8457 46.3711 11.5635C46.6096 12.3511 46.9627 13.1004 47.4174 13.7844C49.3974 16.8694 54.2419 18.1948 57.7769 19.1646L57.8603 19.1871L58.5623 19.3806L59.3026 19.5786L59.3723 19.5966C61.1251 20.0263 62.842 20.5979 64.5026 21.3066C65.3735 21.6936 66.1408 22.2788 66.7483 23.0123C67.3063 23.6986 67.6867 24.5131 67.8487 25.3816C68.0038 26.2435 67.9363 27.13 67.6528 27.9558C67.3198 28.9076 66.7685 29.7695 66.0463 30.4715C65.261 31.1735 64.3361 31.7023 63.3326 32.0218C62.3515 32.3368 61.3321 32.5147 60.3016 32.5528C60.0901 32.5528 59.8673 32.5663 59.6423 32.5663C58.2023 32.5708 56.7689 32.3752 55.3828 31.9858C55.2231 31.9363 55.0611 31.88 54.9058 31.8238H54.8811C54.5593 31.709 54.2353 31.5853 53.9248 31.439C52.3654 30.755 50.9411 29.8031 49.7147 28.6241L49.6517 28.5633C49.4604 28.3721 49.2669 28.1696 49.0802 27.9558L48.9362 27.7916C48.8529 27.6925 48.7719 27.598 48.6977 27.4968C48.6459 27.4315 48.6076 27.3573 48.5829 27.2785L48.5514 24.1553V24.1148H45.3539V35.55H48.5401V32.2063C49.8587 33.3652 51.3842 34.263 53.0404 34.848C54.9756 35.5613 57.0141 35.9505 59.0753 36H59.3318C61.0735 36 65.1506 36 68.3908 33.2797C69.2797 32.5102 70.0177 31.5808 70.5623 30.5366C71.0865 29.54 71.4308 28.4576 71.577 27.3415C71.7233 26.266 71.6738 25.1725 71.4285 24.1148C71.199 23.0774 70.749 22.1033 70.11 21.2526L70.1077 21.2549Z" fill="white"/>
<path d="M37.7737 32.8295L29.1557 19.8013C30.616 19.8574 32.0695 19.5761 33.4017 18.9776C35.285 18.0212 36.7994 16.8107 37.7287 15.0196C38.4847 13.5413 38.8762 11.9032 38.8694 10.2426C38.8694 7.63018 37.8389 5.12577 36.0027 3.26714C34.0114 1.46254 31.525 0.582734 28.3973 0.582734H11.7035V4.18747H15.2475V32.8745H11.393V35.8897H22.583V32.8745H18.9783V19.8553H25.0087L33.4512 32.8745H29.6147V35.8897H41.6574V32.8745H37.8907C37.8457 32.8768 37.8029 32.861 37.7714 32.8318L37.7737 32.8295ZM28.215 4.02545C31.0525 4.02545 33.2307 5.15277 34.3332 7.09015C35.4132 9.06802 35.375 11.4689 34.2319 13.413C33.1 15.3234 31.7614 16.3787 28.7957 16.3787H18.976V4.02545H28.215Z" fill="white"/>
<path d="M131.469 25.4491C131.469 21.1243 129.284 17.9989 125.659 16.66C128.733 15.0444 130.09 12.3893 130.09 9.65534C130.09 3.34372 124.795 0 117.889 0C114.12 0.0292518 110.104 1.28258 107.359 5.13482L110.225 7.00468C111.76 4.93906 113.949 3.34372 117.889 3.34372C122.905 3.34372 126.465 5.38009 126.465 9.25933C126.465 13.1386 122.896 15.0467 119.242 15.0467H114.264V18.6289H119.53C124.19 18.6289 127.873 21.1401 127.758 25.4086C127.497 29.9471 123.499 32.384 118.265 32.384C114.897 32.384 111.157 31.3241 108.365 28.3383L108.221 28.2843L105.774 30.962L105.889 30.9911C109.4 34.2853 113.574 35.9887 118.263 35.9887C125.486 35.9752 131.469 32.0668 131.469 25.4513V25.4491Z" fill="white"/>
<path d="M9.07031 16.3538H0V20.0576H9.07031V16.3538Z" fill="#0072FF"/>
<path d="M144.315 16.3538H135.245V20.0576H144.315V16.3538Z" fill="#0072FF"/>
</svg>
