<svg width="143" height="36" viewBox="0 0 143 36" fill="none" xmlns="http://www.w3.org/2000/svg">
<g clip-path="url(#clip0_176_1072)">
<path d="M36.0342 17.0637C36.0547 16.6681 35.9694 16.5317 35.5296 16.5351C31.8637 16.5556 28.2013 16.5488 24.5355 16.5454C23.8126 16.5454 23.1169 16.4021 22.4417 16.1259C22.0837 15.9793 22.0939 15.8804 22.3565 15.6212C24.0615 13.9435 25.7563 12.2487 27.4477 10.5539C28.1263 9.87188 28.1809 8.95458 27.5909 8.35781C26.9703 7.73036 26.0803 7.78152 25.3676 8.49422C23.8535 10.0015 22.3428 11.5087 20.8322 13.0194C20.5662 13.2854 20.3207 13.5752 20.0342 13.8923C19.7171 13.2308 19.5159 12.6477 19.4988 12.01C19.3999 11.8565 19.4477 11.686 19.4477 11.5224C19.4477 7.83608 19.4409 4.1498 19.4545 0.463527C19.4545 0.122521 19.3931 -0.0172912 19.0112 0.00316916C18.3428 0.0372698 17.6676 0.0372698 16.9992 0.00316916C16.6241 -0.0138811 16.5525 0.115701 16.5525 0.460117C16.5662 4.1157 16.5628 7.77128 16.5594 11.4269C16.5594 11.5906 16.6139 11.7611 16.5014 11.9145C16.5014 12.5931 16.2934 13.2137 16.0172 13.773C14.9805 12.7738 13.9472 11.7849 12.9276 10.7824C12.1467 10.0117 11.3931 9.21374 10.6088 8.44989C9.99156 7.84972 9.01287 7.85995 8.46726 8.43966C7.91142 9.0296 7.94893 9.90939 8.55593 10.53C8.91739 10.8983 9.28227 11.27 9.64715 11.6383C10.9737 12.9819 12.3002 14.3288 13.6369 15.6622C13.8995 15.9213 13.8552 16.0032 13.5346 16.1328C12.8765 16.4021 12.1979 16.542 11.4886 16.5454C9.58235 16.5488 7.67272 16.542 5.76649 16.5454C3.84321 16.5488 1.91994 16.559 6.86646e-05 16.5658C0.00347873 17.5309 0.0102989 18.4959 0.0137089 19.461C0.180802 19.4644 0.347895 19.4712 0.514989 19.4712C4.22855 19.4712 7.9387 19.4746 11.6489 19.4712C12.4025 19.4712 13.1118 19.6451 13.8313 20.01C13.2107 20.6272 12.6139 21.2171 12.024 21.8071C10.8236 23.0006 9.62328 24.1941 8.42975 25.3945C7.9046 25.923 7.8023 26.646 8.1399 27.2359C8.45362 27.7883 9.09131 28.0509 9.75286 27.9077C10.0973 27.8327 10.3462 27.6178 10.5883 27.3757C12.3547 25.6093 14.1246 23.8463 15.9148 22.0594C16.382 22.8403 16.5355 23.6656 16.5355 24.5283C16.5355 28.1975 16.5423 31.8702 16.5287 35.5394C16.5287 35.894 16.6071 36.0168 16.9788 35.9998C17.6335 35.9691 18.2917 35.9657 18.9464 35.9998C19.3522 36.0202 19.4852 35.9179 19.4818 35.4848C19.4613 31.7815 19.4715 28.0816 19.4715 24.3783C19.4715 23.6008 19.6352 22.8642 20.0615 22.0901C20.157 22.2265 20.2081 22.3254 20.2831 22.4004C22.0052 24.1498 23.7239 25.8992 25.4562 27.6383C26.0905 28.276 26.9942 28.2998 27.5841 27.727C28.1809 27.1438 28.1809 26.2538 27.5534 25.6025C26.5338 24.5522 25.5005 23.5155 24.4707 22.4755C23.6864 21.6775 22.9021 20.8796 22.0837 20.0475C22.8339 19.6622 23.567 19.4678 24.365 19.4712C28.1058 19.4746 31.8467 19.4712 35.5875 19.4814C35.949 19.4814 36.0513 19.3859 36.0342 19.0279C36.007 18.3732 36.0035 17.7184 36.0342 17.0637ZM18.0018 19.8293C17.4767 19.1097 16.8731 18.5164 16.1706 17.9981C16.8799 17.4661 17.4664 16.8761 18.0018 16.1737C18.5338 16.883 19.1135 17.4763 19.8262 17.9878C19.134 18.5232 18.5167 19.1029 18.0018 19.8293Z" fill="white"/>
<path d="M53.9029 17.5241C53.9063 16.5488 53.8006 15.5769 53.5926 14.6255C53.2789 13.1796 52.7435 11.8395 51.6454 10.7755C49.3232 8.52832 43.7818 8.49422 41.9779 13.1285C41.1288 15.3041 40.9651 17.5616 41.1936 19.8599C41.2584 20.5283 41.3811 21.1865 41.5585 21.831C42.3735 24.7636 44.1706 26.2879 47.2158 26.472C50.3155 26.6562 52.6275 25.4252 53.5244 21.964C53.9029 20.5044 53.9609 19.0211 53.9029 17.5241ZM45.0299 18.1106C45.0606 16.7602 45.0845 15.4371 45.4596 14.1515C45.5926 13.698 45.7699 13.2615 46.0563 12.8796C46.5474 12.2282 47.2021 11.9895 47.9898 12.1396C48.8014 12.2896 49.1493 12.9068 49.4391 13.5888C49.5039 13.7423 49.4187 13.8139 49.33 13.8992C47.9421 15.2905 46.5508 16.6852 45.1595 18.0731C45.1424 18.0935 45.1049 18.0901 45.0299 18.1106ZM49.4596 22.2572C49.1561 23.079 48.6821 23.7474 47.6932 23.8156C46.81 23.8736 45.8381 23.1541 45.6437 22.3015C45.6199 22.1856 45.6369 22.0969 45.7256 22.0185C45.7699 21.9776 45.8108 21.9333 45.8551 21.8889C47.2055 20.559 48.5593 19.2257 49.9575 17.848C49.9881 19.3757 49.9813 20.8489 49.4596 22.2572Z" fill="#3AC89F"/>
<path d="M77.2756 26.3595C75.6831 26.3391 73.9849 26.0697 72.5219 24.975C71.1818 23.9725 70.5202 22.5641 70.1451 20.9853C70.0974 20.7909 70.1758 20.7466 70.3327 20.7159C71.4103 20.5181 72.4913 20.3237 73.5654 20.1157C73.7871 20.0714 73.8519 20.1362 73.886 20.351C73.9405 20.7261 74.0462 21.091 74.1963 21.4422C74.8647 23.0143 76.1775 23.4917 77.7052 23.4712C78.2065 23.4644 78.7044 23.3791 79.1682 23.1541C80.3719 22.5675 80.6277 21.0876 79.6865 20.1396C79.325 19.7747 78.8817 19.5496 78.4009 19.386C77.146 18.9563 75.8672 18.6221 74.5884 18.2913C73.5143 18.0117 72.5049 17.5786 71.7479 16.7261C69.8996 14.6494 70.585 11.1984 73.1937 9.96055C75.7069 8.77043 78.3259 8.72951 80.8937 9.86506C82.4691 10.5607 83.325 11.8804 83.7581 13.5036C83.8127 13.715 83.7922 13.8207 83.5433 13.8685C82.4657 14.0731 81.3915 14.2981 80.3208 14.5266C80.1332 14.5675 80.0991 14.4891 80.0514 14.3357C79.4239 12.368 77.7905 11.5701 75.8229 12.2623C75.1818 12.4874 74.759 12.8966 74.6805 13.5991C74.6021 14.2777 74.9942 14.6801 75.5126 14.9938C76.2833 15.4576 77.1494 15.6315 78.0122 15.8258C79.2807 16.1123 80.5015 16.5317 81.6439 17.1524C83.5228 18.172 84.406 19.7474 84.2185 21.8855C84.0514 23.8156 82.8067 25.2513 80.7914 25.8923C79.7035 26.2368 78.585 26.3493 77.279 26.3595H77.2756Z" fill="white"/>
<path d="M126.964 17.1421C126.162 14.4857 123.83 13.2513 121.156 14.0151C120.126 14.3084 119.308 14.9119 118.602 15.8668C118.602 15.3314 118.582 14.9324 118.609 14.5403C118.633 14.1992 118.554 14.0697 118.176 14.0833C117.259 14.114 116.341 14.114 115.427 14.0833C115.035 14.0697 114.957 14.189 114.957 14.5607C114.97 18.7039 114.967 22.8472 114.967 26.9904C114.967 28.0714 114.981 29.1524 114.96 30.2334C114.953 30.5607 115.056 30.646 115.373 30.6323C116.045 30.6119 116.716 30.6357 117.388 30.6221C117.78 30.6153 118.292 30.796 118.531 30.5471C118.766 30.3015 118.599 29.7935 118.599 29.4013C118.609 27.8395 118.602 26.2777 118.602 24.6068C119.509 25.7287 120.635 26.2402 121.951 26.3015C124.212 26.4073 126.029 25.5309 126.824 23.3314C127.56 21.2956 127.584 19.2086 126.964 17.1421ZM123.305 21.8617C122.947 23.0415 122.022 23.6519 120.853 23.553C119.629 23.4473 118.861 22.6937 118.681 21.4149C118.623 20.9921 118.578 20.5692 118.606 20.1907C118.589 19.5599 118.629 18.9836 118.78 18.4209C119.069 17.3331 119.843 16.7432 121.023 16.6954C122.132 16.6511 122.94 17.1728 123.301 18.2265C123.717 19.4303 123.67 20.6579 123.305 21.8617Z" fill="white"/>
<path d="M138.312 22.3595C138.121 22.3356 138.077 22.4413 138.023 22.5675C137.746 23.1916 137.231 23.5121 136.597 23.6724C135.721 23.894 134.868 23.7781 134.053 23.4132C133.276 23.0688 132.826 22.4516 132.611 21.6366C132.502 21.224 132.604 21.1353 133.027 21.1387C135.82 21.1592 138.616 21.1421 141.409 21.1558C141.777 21.1592 141.869 21.0569 141.859 20.7022C141.845 20.1532 141.821 19.6076 141.77 19.062C141.538 16.5795 140.167 14.8471 137.845 14.1515C136.341 13.7014 134.807 13.6639 133.279 14.0356C131.728 14.4107 130.466 15.2223 129.716 16.6647C128.829 18.3731 128.566 20.1805 129.068 22.0594C129.504 23.6997 130.483 24.9307 132.065 25.5786C134.336 26.513 136.672 26.5675 138.991 25.7662C140.444 25.2649 141.467 24.2657 142.07 22.796C140.791 22.6494 139.55 22.513 138.312 22.3595ZM132.505 18.5437C132.652 17.4831 133.385 16.709 134.558 16.4226C136.202 16.0202 137.777 16.8454 138.159 18.3118C138.25 18.6687 138.119 18.8471 137.767 18.8471H135.339C134.486 18.8471 133.63 18.8403 132.774 18.8506C132.525 18.8574 132.471 18.796 132.505 18.5437Z" fill="white"/>
<path d="M111.567 15.7406C110.265 14.2709 108.515 13.8855 106.653 13.8241C106.473 13.8241 106.288 13.8071 106.104 13.8241C104.444 13.9776 102.892 14.4004 101.695 15.6622C100.686 16.7295 100.276 18.0526 100.113 19.4678C99.9116 21.1967 100.454 23.9759 102.779 25.2819C104.331 26.1515 106.002 26.4482 107.765 26.2027C109.102 26.0185 110.357 25.6195 111.352 24.6545C113.576 22.5061 113.685 18.131 111.567 15.7406ZM109.167 21.4013C108.87 22.7994 108.021 23.5258 106.629 23.553C105.296 23.5837 104.379 22.8915 104.041 21.5718C103.782 20.5658 103.782 19.553 104.051 18.5471C104.369 17.3467 105.207 16.7022 106.438 16.6852C107.721 16.6681 108.672 17.3467 109.051 18.5607C109.221 19.0995 109.272 19.6587 109.286 20.2726C109.255 20.617 109.248 21.0125 109.167 21.4013Z" fill="white"/>
<path d="M98.8067 21.8992C98.2032 23.8906 97.071 25.3774 95.0284 25.9674C92.9892 26.5539 90.9397 26.4516 88.9687 25.6809C86.9056 24.8761 85.9678 23.2154 85.6916 21.1046C85.5484 20.0168 85.6507 18.9495 85.961 17.8992C86.4759 16.1396 87.5979 14.9222 89.3336 14.3288C91.7377 13.507 94.0974 13.5309 96.3208 14.9256C97.3199 15.553 97.9781 16.4772 98.4725 17.5309C98.5851 17.7696 98.5339 17.8344 98.2816 17.8719C97.2415 18.0321 96.2049 18.2163 95.1682 18.3834C95.0079 18.4107 94.8613 18.4414 94.7488 18.2299C94.1452 17.0739 93.1869 16.5385 91.8877 16.7568C90.5987 16.975 89.869 17.8105 89.5825 19.0518C89.3574 20.0202 89.3711 20.9887 89.7291 21.9264C90.1384 22.9972 91.1136 23.5837 92.3856 23.553C93.5893 23.5223 94.4248 22.9119 94.7624 21.7866C94.834 21.5513 94.9022 21.4354 95.1887 21.4797C95.7922 21.5718 96.3992 21.6161 97.0062 21.6843C97.5962 21.7525 98.1827 21.8241 98.8102 21.8992H98.8067Z" fill="white"/>
<path d="M68.6788 26.1754C67.308 26.1754 66.0292 26.1685 64.747 26.1822C64.5151 26.1822 64.4333 26.0492 64.3344 25.8923C63.5467 24.6442 62.7555 23.3996 61.961 22.1549C61.8723 22.0185 61.8212 21.848 61.6268 21.7559C60.8152 23.004 59.9729 24.235 59.209 25.5104C58.8953 26.0321 58.5441 26.2231 57.9405 26.1924C56.8595 26.1413 55.7751 26.1788 54.6703 26.1788C54.66 25.9742 54.8101 25.8719 54.9021 25.7491C56.2082 24.0066 57.5074 22.2572 58.8339 20.5283C59.0658 20.2248 59.042 20.0441 58.8305 19.7508C57.5688 18.0151 56.3275 16.2623 55.0795 14.513C55.0624 14.4891 55.0522 14.4618 55.0385 14.4311C55.0999 14.2981 55.2227 14.3595 55.3148 14.3595C56.3992 14.3561 57.4836 14.3663 58.5645 14.3493C58.8271 14.3459 58.9738 14.4345 59.1102 14.6562C59.874 15.9179 60.6549 17.1728 61.429 18.4277C61.6848 18.8437 61.6882 18.8437 61.9541 18.4141C62.7146 17.183 63.4853 15.9588 64.2253 14.7176C64.3992 14.4243 64.5901 14.339 64.9175 14.3459C66.053 14.3663 67.192 14.3527 68.4128 14.3527C67.5296 15.5871 66.6976 16.7431 65.8655 17.9026C65.4051 18.5471 64.955 19.1984 64.4708 19.8258C64.2491 20.1123 64.2321 20.3032 64.4708 20.6067C65.7768 22.2913 67.0556 23.9997 68.3446 25.698C68.4435 25.8275 68.5356 25.9639 68.689 26.1754H68.6788Z" fill="#3AC89F"/>
</g>
<defs>
<clipPath id="clip0_176_1072">
<rect width="142.07" height="36" fill="white"/>
</clipPath>
</defs>
</svg>
