<svg width="166" height="36" viewBox="0 0 166 36" fill="none" xmlns="http://www.w3.org/2000/svg">
<g clip-path="url(#clip0_176_1084)">
<path d="M33.227 4.05522L21.3079 16.9606L26.1446 34.1184L38.0637 21.2131L33.227 4.05522Z" fill="#FEFEFE"/>
<path d="M24.6386 36C18.1745 34.8771 11.718 33.7201 5.31844 32.2559C5.85332 31.5123 6.3882 30.765 6.92308 30.0177C11.6308 30.9547 16.3385 31.8917 21.2548 32.8742C19.984 28.4889 18.8004 24.4868 17.6814 20.4658C17.4272 19.5553 16.9454 19.1798 16.0426 18.9939C11.7332 18.1176 7.43899 17.1768 3.14099 16.2626C2.2609 15.9743 1.37323 15.7239 0.432452 15.7619C-0.349003 14.6959 0.00378999 13.8993 0.883875 13.023C4.92771 9.01708 8.91465 4.95427 12.9168 0.902851C13.4478 0.364179 13.8917 -0.132765 14.8211 0.0341474C20.6251 1.06976 26.4405 2.04089 32.2521 3.03478C31.6679 3.84658 31.1102 4.68114 30.2909 5.29189C25.4087 4.44216 20.5265 3.6038 15.6519 2.72751C14.8135 2.57577 14.3848 3.03857 13.8955 3.53552C10.91 6.5665 7.90938 9.57851 4.93151 12.6171C4.61286 12.9433 4.03246 13.1595 4.24868 13.8613C9.25227 14.9349 14.2824 16.0122 19.3088 17.0934C19.5895 18.0417 19.8816 18.9863 20.1509 19.9385C21.6531 25.2948 23.144 30.6512 24.6424 36.0038L24.6386 36Z" fill="#393398"/>
<path d="M30.2909 5.2881C31.1102 4.67736 31.6679 3.84279 32.2521 3.03099C32.9615 3.10686 33.7657 2.83373 34.1678 3.79727C34.5964 4.81771 33.8719 5.28052 33.3294 5.85712C29.9457 9.4723 26.5846 13.1064 23.1629 16.6837C22.4232 17.4575 22.2335 18.1328 22.5522 19.176C23.7168 22.9922 24.7714 26.8426 25.8942 30.7802C26.8957 30.4388 27.3357 29.5625 27.9465 28.9138C30.0974 26.6339 32.3052 24.3996 34.2816 21.9756C35.4689 20.5189 36.6184 20.3178 38.2685 21.2245C37.893 22.1501 37.0774 22.7494 36.4363 23.455C32.8515 27.3926 29.2439 31.3113 25.6287 35.2261C25.348 35.5296 25.1507 35.9848 24.6272 35.9962C23.1326 30.6398 21.638 25.2835 20.1357 19.9309C19.8702 18.9787 19.5743 18.0342 19.2936 17.0858C22.9543 13.152 26.615 9.21813 30.2795 5.2881H30.2909Z" fill="#665CF3"/>
<path d="M0.432457 15.7619C1.37324 15.7239 2.26091 15.9705 3.14099 16.2626C4.40043 20.8489 5.66365 25.4352 6.92308 30.0215C6.38821 30.7688 5.85333 31.5123 5.31845 32.2597C4.45354 31.2847 4.40422 30.0063 4.07798 28.8455C2.8489 24.4906 1.36944 20.2002 0.432457 15.7657V15.7619Z" fill="#665CF3"/>
<path d="M30.2909 5.28811C26.6302 9.22193 22.9695 13.1558 19.305 17.0858C14.2786 16.0084 9.25227 14.9273 4.24489 13.8538C4.03246 13.152 4.60906 12.9319 4.92771 12.6095C7.90559 9.57472 10.9062 6.55892 13.8917 3.52794C14.381 3.03099 14.8097 2.56819 15.6481 2.71993C20.5227 3.60001 25.4087 4.43458 30.2871 5.28431L30.2909 5.28811Z" fill="#FEFEFE"/>
<path d="M6.92308 30.0215C5.66365 25.4352 4.40042 20.8489 3.14099 16.2626C7.43899 17.1806 11.737 18.1176 16.0426 18.9939C16.9454 19.1798 17.431 19.5553 17.6814 20.4658C18.7966 24.4868 19.984 28.4889 21.2548 32.8742C16.3385 31.8955 11.6308 30.9585 6.92308 30.0177V30.0215Z" fill="#FEFEFE"/>
<path d="M54.038 22.0438C54.9257 22.0438 55.6426 21.9452 56.1965 21.7517C57.2473 21.3762 57.7708 20.682 57.7708 19.6653C57.7708 19.0736 57.509 18.6108 56.9893 18.2883C56.4696 17.9697 55.6502 17.6889 54.5387 17.4462L52.6344 17.0175C50.7642 16.5964 49.4706 16.1336 48.7575 15.6405C47.5474 14.8097 46.9404 13.5123 46.9404 11.7484C46.9404 10.1399 47.5246 8.80085 48.6968 7.73488C49.869 6.66892 51.5874 6.13783 53.8559 6.13783C55.7488 6.13783 57.3649 6.63857 58.704 7.64384C60.043 8.64911 60.741 10.1058 60.8093 12.0177H57.1979C57.1335 10.9366 56.6593 10.1665 55.783 9.71128C55.1988 9.41159 54.4704 9.25986 53.5979 9.25986C52.6306 9.25986 51.8567 9.45332 51.2801 9.84405C50.7035 10.2348 50.4152 10.7772 50.4152 11.479C50.4152 12.1201 50.6997 12.6019 51.2687 12.9168C51.6329 13.1292 52.4144 13.3758 53.6093 13.6603L56.7086 14.4038C58.0667 14.73 59.0909 15.1625 59.7813 15.7087C60.8548 16.5547 61.3897 17.78 61.3897 19.3808C61.3897 20.9817 60.76 22.3853 59.5044 23.474C58.2487 24.5589 56.4734 25.1014 54.1821 25.1014C51.8909 25.1014 49.9979 24.5665 48.655 23.4967C47.3122 22.427 46.6407 20.9589 46.6407 19.0887H50.2255C50.3393 19.9119 50.5632 20.5227 50.897 20.9324C51.5077 21.6721 52.5509 22.0438 54.0304 22.0438H54.038Z" fill="#FEFEFE"/>
<path d="M73.9803 24.6424L71.8939 14.9576L69.7847 24.6424H66.1733L62.4405 11.3463H66.1733L68.2483 20.883L70.164 11.3463H73.6882L75.7139 20.921L77.7889 11.3463H81.4117L77.5575 24.6424H73.9841H73.9803Z" fill="#FEFEFE"/>
<path d="M83.8243 12.7878C84.7423 11.6156 86.3204 11.0314 88.5586 11.0314C90.0153 11.0314 91.3088 11.3197 92.4355 11.8963C93.5659 12.4729 94.1312 13.5616 94.1312 15.1663V21.2662C94.1312 21.6873 94.1388 22.1994 94.1539 22.8025C94.1767 23.2577 94.2488 23.5688 94.3626 23.7281C94.4764 23.8875 94.6471 24.024 94.8747 24.1302V24.6424H91.0926C90.9864 24.373 90.9143 24.1227 90.8726 23.8875C90.8309 23.6523 90.8005 23.3829 90.7739 23.0832C90.2922 23.603 89.7421 24.0468 89.1162 24.411C88.3689 24.8434 87.5229 25.0559 86.5784 25.0559C85.3758 25.0559 84.382 24.7106 83.5967 24.024C82.8115 23.3374 82.4207 22.3625 82.4207 21.1031C82.4207 19.4681 83.0504 18.2845 84.3099 17.5524C85.0003 17.1541 86.0169 16.8695 87.3598 16.6988L88.5434 16.5509C89.1845 16.4712 89.6435 16.3688 89.9204 16.2474C90.4174 16.035 90.6639 15.705 90.6639 15.2611C90.6639 14.7149 90.4743 14.3393 90.0949 14.1345C89.7156 13.9258 89.1617 13.8234 88.4296 13.8234C87.6064 13.8234 87.026 14.0282 86.6846 14.4341C86.4418 14.7338 86.2787 15.1435 86.1952 15.6556H82.8418C82.9139 14.491 83.2401 13.5389 83.8167 12.7878H83.8243ZM86.4115 22.1311C86.7377 22.4004 87.136 22.5332 87.6064 22.5332C88.3537 22.5332 89.0441 22.3132 89.6738 21.8731C90.3036 21.4331 90.6298 20.6327 90.6564 19.4719V18.1783C90.4363 18.3149 90.2163 18.4287 89.9925 18.5121C89.7687 18.5994 89.4614 18.6752 89.0707 18.7511L88.2892 18.8991C87.5571 19.028 87.0336 19.1874 86.7149 19.3732C86.1801 19.6919 85.9107 20.1812 85.9107 20.8489C85.9107 21.4445 86.0776 21.8693 86.4115 22.1311Z" fill="#FEFEFE"/>
<path d="M108.353 12.7764C109.426 13.922 109.961 15.6063 109.961 17.8255C109.961 20.1661 109.434 21.9528 108.383 23.1819C107.329 24.411 105.974 25.0255 104.317 25.0255C103.258 25.0255 102.382 24.76 101.684 24.2327C101.301 23.9406 100.929 23.5119 100.561 22.9505V29.8773H97.1204V11.3501H100.451V13.3151C100.827 12.7385 101.225 12.2832 101.646 11.9494C102.42 11.3576 103.338 11.058 104.404 11.058C105.955 11.058 107.276 11.6308 108.357 12.7764H108.353ZM106.376 17.9962C106.376 16.972 106.141 16.0653 105.675 15.2763C105.208 14.4872 104.449 14.0927 103.399 14.0927C102.139 14.0927 101.27 14.6921 100.8 15.887C100.557 16.5205 100.436 17.3248 100.436 18.3035C100.436 19.8474 100.846 20.9323 101.669 21.5583C102.158 21.9224 102.735 22.1083 103.402 22.1083C104.37 22.1083 105.109 21.7328 105.618 20.9855C106.126 20.2381 106.38 19.2405 106.38 17.9962H106.376Z" fill="#FEFEFE"/>
<path d="M125.442 23.3033C124.1 24.5323 122.385 25.1469 120.295 25.1469C117.708 25.1469 115.674 24.3161 114.195 22.6584C112.715 20.993 111.976 18.7056 111.976 15.8036C111.976 12.6664 112.818 10.2462 114.502 8.54668C115.966 7.06723 117.829 6.3275 120.09 6.3275C123.113 6.3275 125.325 7.32139 126.725 9.30537C127.499 10.4207 127.912 11.5359 127.969 12.6588H124.213C123.971 11.7977 123.656 11.1452 123.273 10.709C122.59 9.9275 121.577 9.53677 120.234 9.53677C118.891 9.53677 117.791 10.0868 117.002 11.1907C116.213 12.2908 115.818 13.8499 115.818 15.8681C115.818 17.8862 116.236 19.396 117.07 20.4013C117.905 21.4065 118.963 21.9073 120.249 21.9073C121.535 21.9073 122.571 21.4748 123.261 20.6137C123.644 20.1509 123.959 19.4567 124.213 18.5273H127.935C127.609 20.4885 126.782 22.0818 125.446 23.3071L125.442 23.3033Z" fill="#FEFEFE"/>
<path d="M142.528 16.8354V24.6424H138.978V16.5547C138.978 15.8377 138.856 15.2611 138.613 14.8211C138.295 14.2027 137.695 13.8955 136.808 13.8955C135.92 13.8955 135.192 14.2027 134.718 14.8173C134.243 15.4318 134.004 16.3081 134.004 17.4462V24.6424H130.541V6.72581H134.004V13.0799C134.509 12.306 135.093 11.7673 135.753 11.4639C136.413 11.1604 137.111 11.0048 137.843 11.0048C138.667 11.0048 139.41 11.149 140.081 11.4335C140.753 11.718 141.303 12.1543 141.735 12.7385C142.1 13.2354 142.323 13.7437 142.407 14.271C142.487 14.7945 142.528 15.6518 142.528 16.8392V16.8354Z" fill="#FEFEFE"/>
<path d="M146.272 12.7878C147.19 11.6156 148.769 11.0314 151.007 11.0314C152.463 11.0314 153.757 11.3197 154.884 11.8963C156.014 12.4729 156.579 13.5616 156.579 15.1663V21.2662C156.579 21.6873 156.587 22.1994 156.602 22.8025C156.625 23.2577 156.697 23.5688 156.811 23.7281C156.924 23.8875 157.095 24.024 157.323 24.1302V24.6424H153.541C153.434 24.373 153.362 24.1227 153.321 23.8875C153.279 23.6523 153.249 23.3829 153.222 23.0832C152.74 23.603 152.19 24.0468 151.564 24.411C150.817 24.8434 149.971 25.0559 149.026 25.0559C147.824 25.0559 146.83 24.7106 146.045 24.024C145.26 23.3374 144.869 22.3625 144.869 21.1031C144.869 19.4681 145.499 18.2845 146.758 17.5524C147.448 17.1541 148.465 16.8695 149.808 16.6988L150.991 16.5509C151.633 16.4712 152.092 16.3688 152.369 16.2474C152.865 16.035 153.112 15.705 153.112 15.2611C153.112 14.7149 152.922 14.3393 152.543 14.1345C152.164 13.9258 151.61 13.8234 150.878 13.8234C150.055 13.8234 149.474 14.0282 149.133 14.4341C148.89 14.7338 148.727 15.1435 148.643 15.6556H145.29C145.362 14.491 145.688 13.5389 146.265 12.7878H146.272ZM148.86 22.1311C149.186 22.4004 149.584 22.5332 150.055 22.5332C150.802 22.5332 151.492 22.3132 152.122 21.8731C152.752 21.4331 153.078 20.6327 153.104 19.4719V18.1783C152.884 18.3149 152.664 18.4287 152.441 18.5121C152.217 18.5994 151.91 18.6752 151.519 18.7511L150.737 18.8991C150.005 19.028 149.482 19.1874 149.163 19.3732C148.628 19.6919 148.359 20.1812 148.359 20.8489C148.359 21.4445 148.526 21.8693 148.86 22.1311Z" fill="#FEFEFE"/>
<path d="M165.752 22.1652V24.7637L164.106 24.8244C162.463 24.8813 161.34 24.5968 160.741 23.9709C160.35 23.5726 160.157 22.9581 160.157 22.1311V13.9448H158.302V11.4676H160.157V7.76143H163.597V11.4676H165.756V13.9448H163.597V20.9703C163.597 21.5165 163.665 21.8542 163.806 21.9869C163.942 22.1197 164.367 22.188 165.073 22.188C165.179 22.188 165.289 22.188 165.407 22.1804C165.524 22.1766 165.642 22.169 165.756 22.1614L165.752 22.1652Z" fill="#FEFEFE"/>
</g>
<defs>
<clipPath id="clip0_176_1084">
<rect width="165.752" height="36" fill="white"/>
</clipPath>
</defs>
</svg>
