<svg width="37" height="36" viewBox="0 0 37 36" fill="none" xmlns="http://www.w3.org/2000/svg">
<g clip-path="url(#clip0_551_1108)">
<path d="M36.6224 35.6463C36.6224 35.9064 36.59 36 36.2885 36C24.5066 35.9901 12.7247 35.9901 0.942791 35.9991C0.666491 36 0.624191 35.9343 0.624191 35.6742C0.633191 29.7837 0.631391 23.8932 0.631391 18.0036C0.631391 12.114 0.633191 6.2523 0.623291 0.3771C0.623291 0.0873 0.657491 0 0.982391 0C12.749 0.0117 24.5156 0.0108 36.2831 0.0018C36.5711 0.0018 36.6242 0.0756 36.6233 0.3492C36.6161 12.1149 36.6161 23.8806 36.6224 35.6463Z" fill="#FE3400"/>
<path d="M16.6919 16.2548C16.502 16.4726 16.4795 16.8182 16.484 17.0927C16.4984 17.8298 16.4921 18.5669 16.4885 19.304C16.4885 19.3508 16.4885 19.3976 16.4984 19.4426C16.5128 19.5047 16.547 19.5614 16.5848 19.6127C16.8782 20.0105 17.3777 20.1419 17.8484 20.1491C18.8105 20.1635 19.7735 20.105 20.7347 20.1869C20.7446 20.1869 20.7554 20.1887 20.7626 20.1968C20.7689 20.204 20.7698 20.2148 20.7698 20.2247C20.777 20.7206 20.6834 21.3596 20.9435 21.8105C21.1604 22.1858 21.6014 22.2803 22.0046 22.2848C23.099 22.2992 24.1934 22.2875 25.2878 22.2884C25.7981 22.2884 26.3075 22.2992 26.8169 22.2902C27.0716 22.2866 27.1976 22.3541 27.194 22.643C27.1769 23.9471 27.1778 25.2512 27.1724 26.5544C25.1402 26.5643 23.108 26.5688 21.0758 26.5859C20.7608 26.5886 20.7527 26.4068 20.7518 26.1809C20.7482 25.2494 20.7869 24.308 20.7491 23.3783C20.7383 23.1002 20.6618 22.7915 20.4314 22.6133C20.066 22.3307 19.5701 22.3172 19.1291 22.3109C18.6125 22.3037 18.0941 22.3055 17.5775 22.3208C17.1914 22.3325 16.8098 22.4783 16.5893 22.8095C16.4381 23.0561 16.4822 23.3144 16.4804 23.5934C16.4777 23.9237 16.475 24.2531 16.4732 24.5834C16.4678 25.2431 16.4633 25.9028 16.4579 26.5634C14.7506 26.5715 13.0433 26.5868 11.3351 26.585C10.9346 26.585 10.3289 26.6048 10.1606 26.513C10.0256 26.4383 10.0553 25.7165 10.0553 25.3043C10.0553 25.0568 10.0553 24.8102 10.0553 24.5627C10.0553 24.1478 10.0553 23.732 10.0544 23.3171C10.0544 22.9022 10.0544 22.4864 10.0544 22.0715C10.0544 21.6566 10.0544 21.2408 10.0544 20.8259C10.0544 20.411 10.0544 19.9952 10.0544 19.5803C10.0544 19.1654 10.0544 18.7496 10.0544 18.3347C10.0544 17.9198 10.0544 17.504 10.0544 17.0891C10.0544 16.6742 10.0544 16.2584 10.0544 15.8435C10.0544 15.4286 10.0544 15.0128 10.0544 14.5979C10.0544 14.183 10.0544 13.7672 10.0544 13.3523C10.0544 12.9374 10.0544 12.5216 10.0544 12.1067C10.0544 11.6918 10.0544 11.276 10.0544 10.8611C10.0544 10.6532 10.0544 10.4462 10.0544 10.2383C10.0544 10.1159 10.0544 9.99533 10.049 9.87293C10.0427 9.74513 10.0472 9.61643 10.0598 9.48863C10.0607 9.47693 10.0625 9.46523 10.0688 9.45533C10.0814 9.43463 10.1093 9.43103 10.1336 9.42923C10.2272 9.42473 10.3217 9.43283 10.4162 9.43283C10.5152 9.43283 10.6142 9.43283 10.7132 9.43283C10.9094 9.43283 11.1056 9.43283 11.3018 9.43283C11.7167 9.43283 12.1325 9.43283 12.5474 9.43283C12.9623 9.43283 13.3781 9.43283 13.793 9.43283C14.2079 9.43283 14.6237 9.43283 15.0386 9.43283C15.4166 9.43283 15.7946 9.43283 16.1717 9.43283C16.2716 9.43283 16.3841 9.39863 16.4651 9.49583C16.4849 9.51923 16.466 9.64433 16.4669 9.67673C16.4669 9.74783 16.4687 9.81983 16.4696 9.89093C16.4714 10.0286 16.4741 10.1654 16.4768 10.3031C16.4813 10.5776 16.4867 10.853 16.4894 11.1275C16.4921 11.402 16.493 11.6765 16.4885 11.9519C16.4849 12.194 16.4534 12.4469 16.4777 12.6881C16.502 12.9293 16.5902 13.1462 16.7333 13.3298C16.8161 13.4369 16.9178 13.5296 17.0357 13.5971C17.168 13.6727 17.3111 13.6745 17.4614 13.6889C17.8637 13.7267 18.2678 13.7303 18.6719 13.7303C19.076 13.7303 19.5134 13.7402 19.9022 13.6403C20.5079 13.4828 20.7635 13.1705 20.7662 12.5684C20.7716 11.654 20.7815 10.7396 20.7662 9.82523C20.7617 9.50663 20.876 9.41573 21.1847 9.41753C23.0432 9.42743 24.9026 9.42563 26.7611 9.41213C27.0923 9.41033 27.2039 9.51833 27.1994 9.85223C27.1832 11.0213 27.1823 12.1904 27.1985 13.3595C27.203 13.6772 27.068 13.7321 26.7971 13.7303C25.691 13.7249 24.5849 13.7276 23.4788 13.7285C22.8866 13.7285 22.2917 13.6745 21.704 13.7636C21.4997 13.7942 21.2684 13.8554 21.11 13.9958C20.9786 14.111 20.8472 14.2505 20.7968 14.4224C20.7464 14.5943 20.7707 14.786 20.7707 14.966V15.4637C20.7707 15.5267 20.7698 15.5906 20.7707 15.6536C20.7707 15.686 20.7725 15.7184 20.7752 15.7508C20.777 15.7724 20.7797 15.7967 20.7698 15.8174C20.7419 15.8741 20.6618 15.8516 20.6132 15.8498C20.5214 15.8462 20.4296 15.8516 20.3378 15.8516C19.9157 15.8579 19.4927 15.8624 19.0706 15.8669C18.9752 15.8678 18.8798 15.8687 18.7844 15.8696C18.1661 15.875 17.5091 15.7913 16.9376 16.0775C16.8665 16.1135 16.7963 16.154 16.7378 16.2071C16.7216 16.2215 16.7063 16.2377 16.6919 16.2539V16.2548Z" fill="white"/>
</g>
<defs>
<clipPath id="clip0_551_1108">
<rect width="36" height="36" fill="white" transform="translate(0.623291)"/>
</clipPath>
</defs>
</svg>
