<svg width="149" height="36" viewBox="0 0 149 36" fill="none" xmlns="http://www.w3.org/2000/svg">
<path d="M28.7663 36H7.23375C3.25237 36 0 32.7431 0 28.7663V7.23375C0 3.25237 3.25237 0 7.23375 0H28.7663C32.7431 0 36 3.25237 36 7.23375V28.7663C36 32.7431 32.7431 36 28.7663 36Z" fill="#5177FF"/>
<path d="M22.2368 11.8687C21.9859 11.9542 22.0804 12.2512 22.3436 12.2467L23.7049 12.2186L20.9824 19.5176L18.4118 14.7926C18.0127 14.047 17.431 13.4149 16.7211 12.9553C16.0112 12.4957 15.1964 12.2236 14.3528 12.1646H13.5878C12.6137 12.2306 11.6802 12.5799 10.902 13.1696C10.1239 13.7592 9.53513 14.5635 9.20813 15.4834L5.01413 27.0022C5.00745 27.0202 5.00518 27.0394 5.00751 27.0584C5.00984 27.0774 5.0167 27.0955 5.02751 27.1113C5.03831 27.1271 5.05276 27.14 5.06962 27.149C5.08648 27.1581 5.10526 27.1629 5.12438 27.1631H11.4041C11.4536 27.1631 11.4986 27.1294 11.5166 27.0844L14.1514 19.8304L16.7096 24.5351C17.1672 25.3928 17.8648 26.0986 18.7172 26.5662C19.5695 27.0337 20.5396 27.2427 21.5089 27.1676C22.48 27.1061 23.4123 26.7634 24.1921 26.1813C24.972 25.5992 25.5657 24.8029 25.9009 23.8894L30.2726 12.1646L31.4201 8.96512C31.4277 8.94383 31.429 8.92084 31.4239 8.89882C31.4189 8.8768 31.4077 8.85666 31.3917 8.84075C31.3757 8.82484 31.3555 8.81381 31.3334 8.80894C31.3113 8.80407 31.2884 8.80557 31.2671 8.81325L22.2368 11.8687Z" fill="white"/>
<path opacity="0.3" d="M9.20363 15.48L5.013 27.0011C5.00629 27.0191 5.00404 27.0385 5.00642 27.0576C5.00881 27.0766 5.01577 27.0948 5.0267 27.1106C5.03764 27.1264 5.05223 27.1393 5.06924 27.1483C5.08625 27.1572 5.10516 27.1619 5.12438 27.162H11.4041C11.4536 27.162 11.4986 27.1282 11.5155 27.0832L14.1514 19.8292L16.7085 24.534C17.1066 25.2801 17.6874 25.913 18.3967 26.3734C19.1061 26.8338 19.9206 27.1067 20.7641 27.1665H21.5123L13.5878 12.1635C12.6133 12.2277 11.6789 12.5758 10.8998 13.1647C10.1208 13.7536 9.53115 14.5577 9.20363 15.4777V15.48Z" fill="#515EFF"/>
<path d="M11.1859 19.2128L8.271 27.0068C8.26455 27.0246 8.26246 27.0438 8.26489 27.0626C8.26733 27.0814 8.27423 27.0994 8.28501 27.115C8.2958 27.1306 8.31015 27.1435 8.32689 27.1524C8.34363 27.1614 8.36227 27.1662 8.38125 27.1665H11.4075C11.457 27.1665 11.5031 27.1328 11.52 27.0878L14.1548 19.8338L13.6249 19.008C13.0781 18.1485 11.565 18.2678 11.1859 19.2128Z" fill="white"/>
<path opacity="0.3" d="M23.9546 20.151L26.8616 12.5426C26.8752 12.5066 26.8799 12.4678 26.8753 12.4295C26.8706 12.3913 26.8569 12.3547 26.8351 12.323C26.8134 12.2912 26.7843 12.2651 26.7503 12.2469C26.7164 12.2288 26.6785 12.2191 26.64 12.2186H23.7037L20.9812 19.5345L21.5122 20.3603C22.0635 21.2153 23.5777 21.0971 23.9546 20.151Z" fill="#515EFF"/>
<path d="M59.2166 21.375L48.7766 11.2804C47.9576 10.4884 46.6706 10.2139 45.5029 10.5829C44.3362 10.9541 43.5791 11.8699 43.5791 12.9206V25.5746H47.2995V14.625L57.7418 24.7185C58.3189 25.2765 59.1289 25.5791 59.9625 25.5791C60.3112 25.5791 60.669 25.5274 61.0133 25.416C62.1799 25.0448 62.9381 24.1301 62.9381 23.0783V10.5908H59.2166V21.375ZM65.4885 14.3899V25.2596H69.2089V14.3899C69.2089 13.9444 69.6589 13.5653 70.1876 13.5653H82.7145V10.4321H70.1876C67.5968 10.4321 65.4885 12.2085 65.4885 14.3899Z" fill="black"/>
<path d="M82.7145 16.4205H70.6613V19.5548H82.7145V16.4205ZM85.8701 13.5653H93.2681V25.2641H96.9896V13.5653H104.388V10.4321H85.8701V13.5653ZM110.214 19.4985V16.4093C110.214 14.8444 111.726 13.5698 113.582 13.5698H124.557V10.4366H113.582C109.673 10.4366 106.493 13.1164 106.493 16.4093V19.4985C106.493 22.7914 109.673 25.4723 113.582 25.4723H120.414V22.338H113.582C111.726 22.3335 110.214 21.0634 110.214 19.4985Z" fill="black"/>
<path d="M120.888 16.3856H113.967V19.5187H120.888C121.413 19.5187 121.854 19.7977 121.854 20.1285V25.2641H125.575V20.1285C125.575 18.0619 123.474 16.3856 120.888 16.3856Z" fill="#5177FF"/>
<path d="M140.178 10.5683H135.559C131.362 10.5683 127.949 13.4471 127.949 16.9819V19.0564C127.949 22.5923 131.362 25.4711 135.559 25.4711H140.178C144.377 25.4711 147.789 22.5923 147.789 19.0564V16.9819C147.789 13.4426 144.377 10.5683 140.178 10.5683ZM144.072 19.0564C144.072 20.8643 142.328 22.338 140.183 22.338H135.564C133.418 22.338 131.674 20.8688 131.674 19.0564V16.9819C131.674 15.1751 133.418 13.7014 135.564 13.7014H140.183C142.328 13.7014 144.072 15.1706 144.072 16.9819V19.0564Z" fill="black"/>
</svg>
