<svg width="125" height="36" viewBox="0 0 125 36" fill="none" xmlns="http://www.w3.org/2000/svg">
<g clip-path="url(#clip0_551_1092)">
<mask id="mask0_551_1092" style="mask-type:luminance" maskUnits="userSpaceOnUse" x="0" y="0" width="125" height="36">
<path d="M124.232 0.194336H0.579346V35.8062H124.232V0.194336Z" fill="white"/>
</mask>
<g mask="url(#mask0_551_1092)">
<path d="M18.3853 35.8061C28.2192 35.8061 36.1912 27.8342 36.1912 18.0002C36.1912 8.16634 28.2192 0.194336 18.3853 0.194336C8.55131 0.194336 0.579346 8.16634 0.579346 18.0002C0.579346 27.8342 8.55131 35.8061 18.3853 35.8061Z" fill="#1C68F3"/>
<path d="M96.9301 13.5204C100.194 13.5204 103.902 14.7745 104.123 18.7876H99.5604C99.4649 17.6275 98.3881 17.0946 96.9622 17.0946C95.6309 17.0946 95.0291 17.5962 95.0291 18.1919C95.0291 18.6935 95.4095 19.1638 96.6139 19.3833L99.497 19.8536C102.38 20.3865 104.282 21.766 104.282 24.4624C104.282 27.9738 101.081 29.6041 97.0889 29.6041C93.0648 29.6041 89.8013 27.9425 89.4843 23.898L94.0469 23.9293C94.2684 25.2461 95.3774 25.8419 96.9935 25.8419C98.356 25.8419 99.1801 25.4343 99.1801 24.7759C99.1801 24.2742 98.705 23.8666 97.6908 23.7099L94.5854 23.1769C91.9237 22.738 90.0862 21.2644 90.0862 18.5994C90.0862 15.4015 92.8425 13.5204 96.9301 13.5204ZM77.6967 13.5796C79.373 13.5796 80.7645 14.018 81.904 14.7383V13.9241H87.0277V29.1136H81.904V28.2679C80.7645 28.9883 79.373 29.4268 77.6967 29.4268C73.553 29.4268 70.0736 26.013 70.0736 21.5032C70.0736 16.9619 73.553 13.5796 77.6967 13.5796ZM47.6824 7.78467L55.366 19.1799L63.0177 7.78467H67.0182V29.1311H61.6524V18.4265L56.8582 25.7407V25.7721H53.8737V25.7407L49.0476 18.3637L49.0794 29.1311H43.7136V7.78467H47.6824ZM112.238 6.89771V19.6427L117.6 13.9435H123.723L117.885 20.1438L124.231 29.1311H118.076L114.395 23.8702L112.238 26.1562V29.1311H107.098V6.89771H112.238ZM78.7086 17.7136C76.6212 17.7136 75.1029 19.4048 75.1029 21.5032C75.1029 23.6015 76.6212 25.2613 78.7086 25.2613C79.8473 25.2613 80.9547 24.9482 81.904 23.852V19.1542C80.9547 18.0581 79.8473 17.7136 78.7086 17.7136Z" fill="#1C68F3"/>
<path fill-rule="evenodd" clip-rule="evenodd" d="M29.1324 13.6228V19.536H11.1084L10.333 19.5361C11.1537 23.1239 14.411 25.8039 18.3043 25.8039C21.523 25.8039 24.3071 23.9721 25.6389 21.31H29.1324V26.2769C29.1324 27.4526 28.164 28.4057 26.9695 28.4057H9.66653C8.47203 28.4057 7.50366 27.4526 7.50366 26.2769V13.6228H29.1324ZM23.5646 21.31C22.4175 22.9605 20.4895 24.0437 18.3043 24.0437C16.1192 24.0437 14.1912 22.9605 13.0441 21.31H23.5646ZM13.6919 15.042C11.9969 15.042 10.5947 16.2756 10.3615 17.8803H12.2052C12.4078 17.2627 12.9968 16.816 13.6919 16.816C14.3869 16.816 14.9759 17.2627 15.1786 17.8803H17.0223C16.789 16.2756 15.3868 15.042 13.6919 15.042ZM22.9441 15.042C21.2491 15.042 19.8469 16.2756 19.6137 17.8803H21.4574C21.6601 17.2627 22.2491 16.816 22.9441 16.816C23.6391 16.816 24.2281 17.2627 24.4308 17.8803H26.2745C26.0413 16.2756 24.6391 15.042 22.9441 15.042ZM26.9695 7.11841C28.164 7.11841 29.1324 8.07148 29.1324 9.24711V11.8489H7.50366V9.24711C7.50366 8.07148 8.47203 7.11841 9.66653 7.11841H26.9695Z" fill="white"/>
</g>
</g>
<defs>
<clipPath id="clip0_551_1092">
<rect width="124.435" height="36" fill="white" transform="translate(0.188477)"/>
</clipPath>
</defs>
</svg>
