<svg width="167" height="36" viewBox="0 0 167 36" fill="none" xmlns="http://www.w3.org/2000/svg">
<g clip-path="url(#clip0_551_1118)">
<path d="M33.6503 4.05518L21.7312 16.9606L26.5679 34.1184L38.487 21.213L33.6503 4.05518Z" fill="#FEFEFE"/>
<path d="M25.0618 35.9999C18.5978 34.877 12.1413 33.72 5.74169 32.2558C6.27657 31.5122 6.81145 30.7649 7.34633 30.0176C12.054 30.9546 16.7617 31.8916 21.6781 32.8741C20.4072 28.4889 19.2237 24.4867 18.1046 20.4657C17.8504 19.5552 17.3687 19.1797 16.4658 18.9938C12.1564 18.1175 7.86224 17.1767 3.56424 16.2625C2.68415 15.9742 1.79648 15.7238 0.8557 15.7618C0.0742456 14.6958 0.427038 13.8992 1.30712 13.0229C5.35096 9.01698 9.3379 4.95418 13.34 0.90276C13.8711 0.364087 14.3149 -0.132857 15.2443 0.0340559C21.0483 1.06967 26.8637 2.0408 32.6753 3.03469C32.0911 3.84649 31.5335 4.68105 30.7141 5.2918C25.8319 4.44206 20.9497 3.60371 16.0751 2.72742C15.2367 2.57568 14.8081 3.03848 14.3187 3.53543C11.3333 6.56641 8.33263 9.57842 5.35476 12.617C5.0361 12.9432 4.4557 13.1595 4.67193 13.8612C9.67552 14.9348 14.7057 16.0121 19.732 17.0933C20.0127 18.0416 20.3048 18.9862 20.5742 19.9384C22.0764 25.2948 23.5672 30.6511 25.0656 36.0037L25.0618 35.9999Z" fill="#393398"/>
<path d="M30.7141 5.28812C31.5335 4.67737 32.0911 3.84281 32.6753 3.03101C33.3847 3.10688 34.1889 2.83375 34.591 3.79729C35.0197 4.81773 34.2951 5.28053 33.7526 5.85714C30.3689 9.47231 27.0078 13.1065 23.5861 16.6837C22.8464 17.4576 22.6567 18.1328 22.9754 19.176C24.14 22.9922 25.1946 26.8426 26.3174 30.7802C27.3189 30.4388 27.759 29.5625 28.3697 28.9138C30.5206 26.634 32.7284 24.3996 34.7048 21.9756C35.8922 20.5189 37.0416 20.3178 38.6917 21.2245C38.3162 22.1501 37.5006 22.7494 36.8595 23.455C33.2747 27.3927 29.6671 31.3113 26.0519 35.2262C25.7712 35.5296 25.5739 35.9849 25.0504 35.9962C23.5558 30.6399 22.0612 25.2835 20.5589 19.9309C20.2934 18.9787 19.9975 18.0342 19.7168 17.0858C23.3775 13.152 27.0382 9.21815 30.7027 5.28812H30.7141Z" fill="#665CF3"/>
<path d="M0.855713 15.7617C1.79649 15.7237 2.68417 15.9703 3.56425 16.2624C4.82368 20.8487 6.08691 25.435 7.34634 30.0213C6.81146 30.7686 6.27658 31.5122 5.7417 32.2595C4.87679 31.2845 4.82748 30.0061 4.50124 28.8453C3.27215 24.4904 1.7927 20.2 0.855713 15.7655V15.7617Z" fill="#665CF3"/>
<path d="M30.7141 5.28791C27.0535 9.22173 23.3928 13.1556 19.7283 17.0856C14.7019 16.0082 9.67556 14.9271 4.66818 13.8536C4.45575 13.1518 5.03236 12.9317 5.35101 12.6093C8.32888 9.57452 11.3295 6.55872 14.315 3.52774C14.8043 3.03079 15.233 2.56799 16.0714 2.71973C20.946 3.59981 25.832 4.43438 30.7104 5.28411L30.7141 5.28791Z" fill="#FEFEFE"/>
<path d="M7.3463 30.0214C6.08687 25.4351 4.82364 20.8488 3.56421 16.2625C7.86221 17.1805 12.1602 18.1175 16.4658 18.9937C17.3686 19.1796 17.8542 19.5552 18.1046 20.4656C19.2199 24.4867 20.4072 28.4888 21.678 32.874C16.7617 31.8953 12.054 30.9583 7.3463 30.0176V30.0214Z" fill="#FEFEFE"/>
<path d="M54.4612 22.0439C55.3489 22.0439 56.0659 21.9453 56.6197 21.7518C57.6705 21.3763 58.194 20.6821 58.194 19.6654C58.194 19.0737 57.9323 18.6109 57.4126 18.2884C56.8928 17.9698 56.0735 17.689 54.962 17.4463L53.0576 17.0176C51.1875 16.5965 49.8939 16.1337 49.1807 15.6406C47.9706 14.8098 47.3636 13.5124 47.3636 11.7485C47.3636 10.14 47.9478 8.80095 49.12 7.73499C50.2922 6.66902 52.0107 6.13794 54.2791 6.13794C56.1721 6.13794 57.7881 6.63868 59.1272 7.64395C60.4663 8.64921 61.1643 10.1059 61.2326 12.0178H57.6212C57.5567 10.9367 57.0825 10.1666 56.2062 9.71139C55.622 9.4117 54.8937 9.25996 54.0212 9.25996C53.0539 9.25996 52.28 9.45343 51.7034 9.84416C51.1268 10.2349 50.8385 10.7773 50.8385 11.4791C50.8385 12.1202 51.123 12.602 51.692 12.9169C52.0562 13.1293 52.8376 13.3759 54.0326 13.6604L57.1318 14.4039C58.4899 14.7301 59.5141 15.1626 60.2045 15.7089C61.2781 16.5548 61.813 17.7801 61.813 19.3809C61.813 20.9818 61.1833 22.3854 59.9276 23.4741C58.672 24.559 56.8966 25.1015 54.6054 25.1015C52.3141 25.1015 50.4212 24.5666 49.0783 23.4968C47.7354 22.4271 47.064 20.959 47.064 19.0888H50.6488C50.7626 19.912 50.9864 20.5228 51.3202 20.9325C51.931 21.6722 52.9742 22.0439 54.4536 22.0439H54.4612Z" fill="black"/>
<path d="M74.4035 24.6425L72.3171 14.9578L70.2079 24.6425H66.5965L62.8638 11.3464H66.5965L68.6716 20.8832L70.5873 11.3464H74.1114L76.1371 20.9211L78.2121 11.3464H81.8349L77.9807 24.6425H74.4073H74.4035Z" fill="black"/>
<path d="M84.2476 12.7879C85.1656 11.6157 86.7437 11.0315 88.9818 11.0315C90.4385 11.0315 91.7321 11.3198 92.8588 11.8964C93.9892 12.473 94.5544 13.5617 94.5544 15.1664V21.2663C94.5544 21.6873 94.562 22.1995 94.5772 22.8026C94.6 23.2578 94.672 23.5689 94.7858 23.7282C94.8996 23.8876 95.0703 24.0241 95.298 24.1303V24.6425H91.5159C91.4096 24.3731 91.3376 24.1227 91.2958 23.8876C91.2541 23.6524 91.2238 23.383 91.1972 23.0833C90.7154 23.603 90.1654 24.0469 89.5395 24.4111C88.7922 24.8435 87.9462 25.0559 87.0016 25.0559C85.7991 25.0559 84.8052 24.7107 84.02 24.0241C83.2347 23.3375 82.844 22.3626 82.844 21.1031C82.844 19.4682 83.4737 18.2846 84.7331 17.5525C85.4236 17.1542 86.4402 16.8696 87.7831 16.6989L88.9667 16.551C89.6078 16.4713 90.0668 16.3689 90.3437 16.2475C90.8406 16.0351 91.0872 15.705 91.0872 15.2612C91.0872 14.715 90.8975 14.3394 90.5182 14.1345C90.1388 13.9259 89.585 13.8235 88.8528 13.8235C88.0297 13.8235 87.4493 14.0283 87.1079 14.4342C86.8651 14.7339 86.702 15.1436 86.6185 15.6557H83.2651C83.3371 14.4911 83.6634 13.539 84.24 12.7879H84.2476ZM86.8347 22.1312C87.161 22.4005 87.5593 22.5333 88.0297 22.5333C88.777 22.5333 89.4674 22.3133 90.0971 21.8732C90.7268 21.4332 91.0531 20.6328 91.0796 19.472V18.1784C90.8596 18.3149 90.6396 18.4288 90.4158 18.5122C90.1919 18.5995 89.8847 18.6753 89.4939 18.7512L88.7125 18.8991C87.9804 19.0281 87.4569 19.1874 87.1382 19.3733C86.6033 19.692 86.334 20.1813 86.334 20.849C86.334 21.4446 86.5009 21.8694 86.8347 22.1312Z" fill="black"/>
<path d="M108.776 12.7765C109.85 13.9222 110.385 15.6065 110.385 17.8257C110.385 20.1662 109.857 21.9529 108.807 23.182C107.752 24.4111 106.398 25.0257 104.74 25.0257C103.682 25.0257 102.805 24.7601 102.107 24.2328C101.724 23.9407 101.352 23.5121 100.984 22.9506V29.8775H97.5437V11.3502H100.874V13.3152C101.25 12.7386 101.648 12.2834 102.069 11.9496C102.843 11.3578 103.761 11.0581 104.827 11.0581C106.379 11.0581 107.699 11.6309 108.78 12.7765H108.776ZM106.8 17.9964C106.8 16.9721 106.565 16.0655 106.098 15.2764C105.631 14.4874 104.873 14.0929 103.822 14.0929C102.562 14.0929 101.694 14.6922 101.223 15.8872C100.981 16.5207 100.859 17.3249 100.859 18.3036C100.859 19.8476 101.269 20.9325 102.092 21.5584C102.581 21.9226 103.158 22.1085 103.826 22.1085C104.793 22.1085 105.533 21.7329 106.041 20.9856C106.549 20.2383 106.804 19.2406 106.804 17.9964H106.8Z" fill="black"/>
<path d="M125.866 23.3034C124.523 24.5325 122.808 25.147 120.718 25.147C118.131 25.147 116.098 24.3163 114.618 22.6585C113.139 20.9932 112.399 18.7057 112.399 15.8037C112.399 12.6665 113.241 10.2463 114.925 8.54682C116.39 7.06736 118.252 6.32764 120.513 6.32764C123.537 6.32764 125.748 7.32153 127.148 9.30551C127.922 10.4208 128.335 11.5361 128.392 12.6589H124.637C124.394 11.7978 124.079 11.1453 123.696 10.7091C123.013 9.92764 122 9.53691 120.657 9.53691C119.314 9.53691 118.214 10.087 117.425 11.1909C116.636 12.291 116.242 13.8501 116.242 15.8682C116.242 17.8863 116.659 19.3961 117.494 20.4014C118.328 21.4067 119.386 21.9074 120.672 21.9074C121.958 21.9074 122.994 21.475 123.684 20.6138C124.068 20.151 124.383 19.4568 124.637 18.5274H128.358C128.032 20.4886 127.205 22.0819 125.87 23.3072L125.866 23.3034Z" fill="black"/>
<path d="M142.951 16.8354V24.6424H139.401V16.5547C139.401 15.8377 139.279 15.2611 139.037 14.8211C138.718 14.2028 138.119 13.8955 137.231 13.8955C136.343 13.8955 135.615 14.2028 135.141 14.8173C134.667 15.4318 134.428 16.3081 134.428 17.4462V24.6424H130.964V6.72583H134.428V13.0799C134.932 12.306 135.516 11.7673 136.176 11.4639C136.836 11.1604 137.534 11.0049 138.267 11.0049C139.09 11.0049 139.833 11.149 140.505 11.4335C141.176 11.718 141.726 12.1543 142.159 12.7385C142.523 13.2354 142.747 13.7437 142.83 14.271C142.91 14.7945 142.951 15.6519 142.951 16.8392V16.8354Z" fill="black"/>
<path d="M146.696 12.7879C147.614 11.6157 149.192 11.0315 151.43 11.0315C152.887 11.0315 154.18 11.3198 155.307 11.8964C156.437 12.473 157.002 13.5617 157.002 15.1664V21.2663C157.002 21.6873 157.01 22.1995 157.025 22.8026C157.048 23.2578 157.12 23.5689 157.234 23.7282C157.348 23.8876 157.518 24.0241 157.746 24.1303V24.6425H153.964C153.858 24.3731 153.786 24.1227 153.744 23.8876C153.702 23.6524 153.672 23.383 153.645 23.0833C153.163 23.603 152.613 24.0469 151.987 24.4111C151.24 24.8435 150.394 25.0559 149.45 25.0559C148.247 25.0559 147.253 24.7107 146.468 24.0241C145.683 23.3375 145.292 22.3626 145.292 21.1031C145.292 19.4682 145.922 18.2846 147.181 17.5525C147.872 17.1542 148.888 16.8696 150.231 16.6989L151.415 16.551C152.056 16.4713 152.515 16.3689 152.792 16.2475C153.289 16.0351 153.535 15.705 153.535 15.2612C153.535 14.715 153.346 14.3394 152.966 14.1345C152.587 13.9259 152.033 13.8235 151.301 13.8235C150.478 13.8235 149.897 14.0283 149.556 14.4342C149.313 14.7339 149.15 15.1436 149.066 15.6557H145.713C145.785 14.4911 146.111 13.539 146.688 12.7879H146.696ZM149.283 22.1312C149.609 22.4005 150.007 22.5333 150.478 22.5333C151.225 22.5333 151.915 22.3133 152.545 21.8732C153.175 21.4332 153.501 20.6328 153.528 19.472V18.1784C153.308 18.3149 153.088 18.4288 152.864 18.5122C152.64 18.5995 152.333 18.6753 151.942 18.7512L151.16 18.8991C150.428 19.0281 149.905 19.1874 149.586 19.3733C149.051 19.692 148.782 20.1813 148.782 20.849C148.782 21.4446 148.949 21.8694 149.283 22.1312Z" fill="black"/>
<path d="M166.175 22.1653V24.7638L164.529 24.8245C162.886 24.8814 161.763 24.5969 161.164 23.971C160.773 23.5726 160.58 22.9581 160.58 22.1311V13.9448H158.725V11.4677H160.58V7.76147H164.021V11.4677H166.179V13.9448H164.021V20.9703C164.021 21.5166 164.089 21.8542 164.229 21.987C164.366 22.1197 164.791 22.188 165.496 22.188C165.602 22.188 165.712 22.188 165.83 22.1804C165.948 22.1766 166.065 22.1691 166.179 22.1615L166.175 22.1653Z" fill="black"/>
</g>
<defs>
<clipPath id="clip0_551_1118">
<rect width="165.752" height="36" fill="white" transform="translate(0.42334)"/>
</clipPath>
</defs>
</svg>
