<svg width="246" height="34" viewBox="0 0 246 34" fill="none" xmlns="http://www.w3.org/2000/svg">
<g clip-path="url(#clip0_176_1000)">
<path d="M42.8436 16.2585C42.4911 12.5416 41.285 1.12885 41.2679 0.704543C41.2485 0.207494 40.5384 -0.425363 40.5384 0.493572C40.5384 1.12882 39.9646 8.42453 39.9646 13.703C39.9038 13.6132 39.8673 13.5647 39.8673 13.5647H38.5542C36.1955 7.78199 29.9291 3.58496 22.4833 3.33038H22.3155H22.1502C22.0237 3.33038 21.907 3.33038 21.7659 3.33038C21.6346 3.33038 21.5082 3.33038 21.3817 3.33038H21.2164H21.0535C13.6053 3.57284 7.33645 7.78199 4.97773 13.5647H3.7619L3.66706 13.703C3.66706 8.42453 3.09075 1.12882 3.09075 0.493572C3.09075 -0.425363 2.38071 0.207494 2.36125 0.704543C2.34666 1.12885 1.14543 12.5416 0.787971 16.2585C0.270349 16.9472 -0.00641718 17.7862 0.000112958 18.6468C0.000112958 20.0216 0.911985 21.486 2.03298 21.486C2.31796 22.28 2.7063 23.0333 3.18803 23.7264H4.98987C7.42154 29.6958 14.0211 33.9753 21.7684 33.9753C29.5157 33.9753 36.1152 29.6958 38.5469 23.7264H40.4363C40.9169 23.0326 41.3052 22.2795 41.5913 21.486C42.7123 21.486 43.6218 20.0313 43.6218 18.6468C43.6306 17.7874 43.3573 16.9487 42.8436 16.2585ZM21.7659 32.94C13.722 32.94 7.20271 27.7173 7.20271 21.2726C7.20271 16.4525 10.8502 12.3161 16.0515 10.5364L17.0023 12.8835C17.0841 13.0848 17.2243 13.2571 17.405 13.3785C17.5856 13.4999 17.7985 13.5647 18.0163 13.5647H25.5399C25.7577 13.5647 25.9706 13.4999 26.1513 13.3785C26.3319 13.2571 26.4721 13.0848 26.5539 12.8835L27.5023 10.5461C32.6914 12.3306 36.3268 16.4598 36.3268 21.2726C36.3268 27.7173 29.8075 32.94 21.7659 32.94Z" fill="white"/>
<path d="M26.5995 17.8369C26.1416 17.8369 25.7025 18.0183 25.3787 18.3411C25.055 18.664 24.873 19.1019 24.873 19.5584V23.7336C24.873 24.1902 25.055 24.6281 25.3787 24.9509C25.7025 25.2738 26.1416 25.4551 26.5995 25.4551C27.0574 25.4551 27.4966 25.2738 27.8203 24.9509C28.1441 24.6281 28.326 24.1902 28.326 23.7336V19.5584C28.326 19.1019 28.1441 18.664 27.8203 18.3411C27.4966 18.0183 27.0574 17.8369 26.5995 17.8369Z" fill="white"/>
<path d="M16.9296 17.8369C16.4717 17.8369 16.0326 18.0183 15.7088 18.3411C15.385 18.664 15.2031 19.1019 15.2031 19.5584V23.7336C15.2031 24.1902 15.385 24.6281 15.7088 24.9509C16.0326 25.2738 16.4717 25.4551 16.9296 25.4551C17.3875 25.4551 17.8266 25.2738 18.1504 24.9509C18.4742 24.6281 18.6561 24.1902 18.6561 23.7336V19.5584C18.6561 19.1019 18.4742 18.664 18.1504 18.3411C17.8266 18.0183 17.3875 17.8369 16.9296 17.8369Z" fill="white"/>
<path d="M21.7896 29.3321C20.7877 29.3321 19.9707 28.6047 19.9707 27.7148H20.5591C20.5591 28.2846 21.1112 28.7477 21.7896 28.7477C22.468 28.7477 23.0224 28.2846 23.0224 27.7148H23.6109C23.6109 28.6071 22.7939 29.3321 21.7896 29.3321Z" fill="white" stroke="white" stroke-width="0.115583" stroke-miterlimit="10"/>
<path d="M53.2598 17.4669C53.2598 9.94385 58.0266 4.58789 65.7852 4.58789C72.2616 4.58789 76.7128 8.34815 77.7788 14.6993H73.4078C72.6259 10.7961 69.7434 8.41839 65.7925 8.41839C60.7755 8.41839 57.6429 11.9318 57.6429 17.4669C57.6429 23.1449 60.7755 26.622 65.7925 26.622C69.8138 26.622 72.6259 24.3144 73.4078 20.3774H77.7788C76.6399 26.835 72.298 30.4888 65.7852 30.4888C58.1334 30.4839 53.2598 25.2345 53.2598 17.4669Z" fill="white"/>
<path d="M101.619 29.9545V3.3418H105.818V29.9545H101.619Z" fill="white"/>
<path d="M109.521 29.9545V3.3418H113.72V29.9545H109.521Z" fill="white"/>
<path d="M116.432 24.7318C116.469 20.3322 120.844 19.4048 124.509 18.9835C127.357 18.6639 129.455 18.5574 129.492 17.0683C129.455 15.2232 128.035 14.0174 125.606 14.0174C123.115 14.0174 121.335 15.3636 121.087 17.3176H116.852C117.243 13.3418 120.801 10.5742 125.677 10.5742C130.776 10.5742 133.576 13.3418 133.576 17.3539V25.8698C133.576 26.4025 133.863 26.6857 134.502 26.6857H135.534V29.9522H133.542C131.619 29.9522 130.446 29.1701 130.126 27.7512C130.045 27.5446 129.986 27.3304 129.948 27.1119C128.843 29.1362 126.779 30.342 123.579 30.342C119.237 30.3444 116.388 28.25 116.432 24.7318ZM129.492 22.8867V20.262C128.78 21.3613 126.966 21.6106 124.973 21.8576C122.624 22.1433 120.667 22.4606 120.667 24.4485C120.667 26.0805 121.983 27.0392 124.438 27.0392C127.314 27.0441 129.485 25.4121 129.485 22.8915L129.492 22.8867Z" fill="white"/>
<path d="M141.445 26.618L141.054 29.9545H137.674V3.3418H141.872V13.5937C143.225 11.7486 145.466 10.5767 148.135 10.5767C153.118 10.5767 156.634 14.6227 156.634 20.4411C156.634 26.3661 153.111 30.4824 148.094 30.4824C145.109 30.4848 142.618 28.9957 141.445 26.618ZM152.334 20.4436C152.334 16.7172 150.236 14.1288 147.176 14.1288C144.08 14.1288 141.872 16.6833 141.872 20.3371C141.872 24.2112 144.08 26.9375 147.176 26.9375C150.233 26.9375 152.331 24.2766 152.331 20.4436H152.334Z" fill="white"/>
<path d="M167.102 29.9556V5.12012H171.373V26.1275H184.078V29.9605L167.102 29.9556Z" fill="white"/>
<path d="M185.748 24.7318C185.785 20.3322 190.163 19.4048 193.827 18.9835C196.674 18.6639 198.774 18.5574 198.81 17.0683C198.774 15.2232 197.353 14.0174 194.925 14.0174C192.434 14.0174 190.656 15.3636 190.406 17.3176H186.176C186.567 13.3418 190.127 10.5742 195.003 10.5742C200.09 10.5742 202.902 13.3418 202.902 17.3539V25.8698C202.902 26.4025 203.186 26.6857 203.827 26.6857H204.86V29.9522H202.866C200.945 29.9522 199.77 29.1701 199.449 27.7512C199.37 27.5443 199.31 27.3302 199.272 27.1119C198.169 29.1362 196.115 30.342 192.902 30.342C188.556 30.3444 185.714 28.25 185.748 24.7318ZM198.81 22.8867V20.262C198.099 21.3613 196.283 21.6106 194.289 21.8576C191.941 22.1433 189.983 22.4606 189.983 24.4485C189.983 26.0805 191.302 27.0392 193.757 27.0392C196.64 27.0441 198.81 25.4121 198.81 22.8915V22.8867Z" fill="white"/>
<path d="M206.924 29.9536V11.1472H210.304L210.661 13.9148C211.834 11.9632 214.219 10.5781 217.031 10.5781C221.052 10.5781 223.684 13.2755 223.684 17.4983V29.9536H219.486V17.709C219.486 15.6145 218.097 14.232 215.748 14.232C213.009 14.232 211.159 16.1108 211.135 18.5588V29.939L206.924 29.9536Z" fill="white"/>
<path d="M225.998 20.4436C225.998 14.6324 229.592 10.5791 234.609 10.5791C237.28 10.5791 239.485 11.6784 240.801 13.4532V3.3418H245.002V29.9545H241.62L241.229 26.618C240.163 28.9957 237.812 30.4921 234.752 30.4921C229.663 30.4848 225.998 26.3686 225.998 20.4436ZM240.811 20.4073C240.811 16.6833 238.676 14.0925 235.617 14.0925C232.484 14.0925 230.313 16.7172 230.313 20.4799C230.313 24.2426 232.45 26.9376 235.546 26.9376C238.642 26.9376 240.801 24.2475 240.801 20.4073H240.811Z" fill="white"/>
<path d="M163.897 26.0954C163.898 25.8529 163.768 25.6286 163.558 25.5075L161.19 24.1443C160.98 24.0231 160.72 24.0237 160.51 24.1457L158.126 25.5294C157.918 25.6503 157.789 25.8724 157.788 26.1128L157.778 28.8629C157.778 29.1055 157.907 29.3298 158.117 29.4509L160.485 30.8141C160.696 30.9353 160.955 30.9347 161.165 30.8128L163.549 29.4294C163.758 29.3084 163.887 29.0863 163.887 28.8458L163.897 26.0954Z" fill="white"/>
<path fill-rule="evenodd" clip-rule="evenodd" d="M97.7353 14.5925C98.3087 14.9226 98.661 15.5338 98.6587 16.1947L98.6289 24.8407C98.6267 25.4961 98.2761 26.1015 97.708 26.4312L90.2135 30.7799C89.6406 31.1123 88.9336 31.1138 88.3602 30.7836L80.9136 26.4968C80.3401 26.1666 79.9879 25.5553 79.9902 24.8943L80.0214 16.2491C80.0238 15.5939 80.3742 14.9887 80.9421 14.6591L88.4352 10.3096C89.0081 9.97698 89.7152 9.97549 90.2887 10.3057L97.7353 14.5925ZM92.1987 15.5825C93.9613 16.5971 95.0439 18.492 95.0369 20.5235C95.0299 22.5579 93.9277 24.4616 92.1642 25.4848C90.4033 26.5066 88.2162 26.5192 86.4536 25.5045C84.6908 24.4897 83.6081 22.5943 83.6154 20.5625C83.6228 18.5288 84.7246 16.6258 86.4873 15.6026C88.2484 14.5804 90.4359 14.5676 92.1987 15.5825Z" fill="white"/>
</g>
<defs>
<clipPath id="clip0_176_1000">
<rect width="246" height="34" fill="white"/>
</clipPath>
</defs>
</svg>
