<svg width="135" height="36" viewBox="0 0 135 36" fill="none" xmlns="http://www.w3.org/2000/svg">
<g clip-path="url(#clip0_176_1034)">
<path d="M32.6188 3.85693V14.9616L0 28.0829L32.6188 3.85693Z" fill="#00C9FF"/>
<path d="M26.5037 3.375V22.5313C26.5037 25.2083 25.4297 27.7757 23.518 29.6686C21.6062 31.5616 19.0133 32.625 16.3097 32.625C13.6061 32.625 11.0132 31.5616 9.10147 29.6686C7.18973 27.7757 6.11572 25.2083 6.11572 22.5313V14.4593L12.2311 11.1269V22.5313C12.1738 23.029 12.2234 23.5331 12.3766 24.0105C12.5298 24.4879 12.7831 24.9279 13.12 25.3016C13.4569 25.6754 13.8697 25.9744 14.3314 26.1791C14.7931 26.3839 15.2933 26.4898 15.7993 26.4898C16.3051 26.4898 16.8054 26.3839 17.2671 26.1791C17.7288 25.9744 18.1417 25.6754 18.4785 25.3016C18.8154 24.9279 19.0687 24.4879 19.2219 24.0105C19.3751 23.5331 19.4247 23.029 19.3674 22.5313V7.24079L26.5037 3.375Z" fill="#0D67FE"/>
<path d="M47.502 8.27197V13.2249C47.502 14.886 46.5478 15.7648 45.3575 15.7648C44.3879 15.7648 43.6286 15.206 43.6286 13.6871V8.27197H41.8535V13.8141C41.8535 15.9426 43.0027 17.3142 44.8906 17.3142C45.4248 17.3195 45.9502 17.1805 46.4104 16.9119C46.8706 16.6433 47.248 16.2555 47.502 15.7902H47.5328V17.0551H49.2772V8.27197H47.502Z" fill="#0D67FE"/>
<path d="M55.2481 8.0175C54.7016 8.00858 54.1627 8.1453 53.6879 8.41343C53.2132 8.68155 52.8199 9.07118 52.5495 9.5415H52.5187V8.27153H50.7744V17.0597H52.5495V12.1068C52.5495 10.4457 53.5345 9.56685 54.7761 9.56685C55.8022 9.56685 56.6025 10.1257 56.6025 11.6446V17.0597H58.3776V11.5023C58.3776 9.3891 57.2027 8.0175 55.2481 8.0175Z" fill="#0D67FE"/>
<path d="M63.6517 11.737H63.3131C61.774 11.737 61.4713 11.4678 61.4713 10.782C61.4713 10.0962 62.0869 9.53235 63.231 9.53235C63.4501 9.51532 63.6704 9.54382 63.8777 9.6162C64.0851 9.6885 64.2748 9.80295 64.4347 9.95227C64.5947 10.1015 64.7213 10.2823 64.8064 10.483C64.8916 10.6836 64.9334 10.8997 64.9291 11.1173H66.7812C66.653 9.3444 65.3293 8.01855 63.231 8.01855C60.83 8.01855 59.6398 9.4206 59.6398 10.782C59.6398 12.3619 60.9634 13.2712 62.6256 13.2712H63.1078C64.647 13.2712 65.1087 13.6267 65.1087 14.47C65.1087 15.2218 64.334 15.7959 63.1746 15.7959C62.707 15.8209 62.2483 15.6619 61.8986 15.3537C61.5488 15.0454 61.3362 14.6128 61.3071 14.1499H59.455C59.5679 15.9736 61.0814 17.3147 63.1489 17.3147C65.632 17.3147 66.9248 15.8923 66.9248 14.47C66.9505 12.8394 65.6525 11.737 63.6517 11.737Z" fill="#0D67FE"/>
<path d="M72.5274 9.80662V8.28262H70.1212V7.06348H68.3513V8.2725H66.8994V9.79642H68.3513V14.6986C68.3513 16.3444 69.2235 17.0505 70.8703 17.0505H72.5326V15.5266H71.0293C70.9057 15.5338 70.7821 15.5143 70.6668 15.4696C70.5515 15.4249 70.4473 15.3561 70.3615 15.2677C70.2757 15.1794 70.2103 15.0736 70.1697 14.9578C70.1291 14.842 70.1143 14.719 70.1264 14.5969V9.80662H72.5274Z" fill="#0D67FE"/>
<path d="M77.5298 8.01855C75.0413 8.01855 73.0766 9.67965 73.0766 12.6667C73.0766 15.6536 75.0413 17.3147 77.5298 17.3147C80.0183 17.3147 81.9833 15.6384 81.9833 12.6667C81.9833 9.69495 80.013 8.01855 77.5298 8.01855ZM77.5298 15.7959C76.0778 15.7959 74.9133 14.7799 74.9133 12.6667C74.9133 10.5534 76.0778 9.51712 77.5298 9.53235C78.9818 9.54757 80.1413 10.5229 80.1413 12.6667C80.1413 14.8104 78.9818 15.7806 77.5298 15.7959Z" fill="#0D67FE"/>
<path d="M87.9862 8.01802C87.3825 8.00422 86.7855 8.14522 86.2537 8.42737C85.7212 8.7096 85.272 9.1233 84.9487 9.62835H84.9082C84.939 9.2778 84.939 9.02385 84.939 8.70382V8.27197H83.1637V18.6147H84.939V16.6741C84.939 16.3389 84.939 16.0696 84.9082 15.6988H84.939C85.2555 16.2124 85.7047 16.633 86.2402 16.9169C86.7765 17.2009 87.3787 17.3381 87.9862 17.3142C90.1613 17.3142 92.0903 15.6683 92.0903 12.6153C92.0903 9.56227 90.1665 8.01802 87.9862 8.01802ZM87.5347 15.7953C85.8877 15.7953 84.9338 14.3932 84.9338 12.6001C84.9338 10.9084 85.8877 9.55215 87.5347 9.55215C89.1817 9.55215 90.213 10.7866 90.213 12.6356C90.213 14.4847 89.151 15.8106 87.54 15.7953H87.5347Z" fill="#0D67FE"/>
<path d="M98.1187 8.01802C97.515 8.00422 96.918 8.14522 96.3855 8.42737C95.8538 8.7096 95.4045 9.1233 95.0813 9.62835H95.0505C95.0813 9.2778 95.0813 9.02385 95.0813 8.70382V8.27197H93.306V18.6147H95.0813V16.6741C95.0813 16.3389 95.0813 16.0696 95.0505 15.6988H95.0813C95.397 16.2109 95.8448 16.6304 96.3788 16.9143C96.9128 17.1982 97.5127 17.3362 98.1187 17.3142C100.294 17.3142 102.197 15.6683 102.197 12.6153C102.197 9.56227 100.299 8.01802 98.1187 8.01802ZM97.6673 15.7953C96.0203 15.7953 95.0655 14.3932 95.0655 12.6001C95.0655 10.9084 96.0203 9.55215 97.6673 9.55215C99.3135 9.55215 100.345 10.7866 100.345 12.6356C100.345 14.4847 99.273 15.8106 97.6673 15.7953Z" fill="#0D67FE"/>
<path d="M111.329 15.5266C111.088 15.5266 110.975 15.3793 110.975 15.0949V11.2291C110.975 9.37485 110.072 8.01855 107.41 8.01855C104.844 8.01855 103.649 9.29362 103.521 11.1173H105.296C105.409 10.1013 106.199 9.53235 107.41 9.53235C108.436 9.53235 109.153 9.98445 109.153 10.6855C109.153 11.2595 108.749 11.61 107.425 11.61H106.717C104.603 11.61 103.182 12.4584 103.182 14.3938C103.182 16.4257 104.681 17.3452 106.44 17.3452C107.748 17.3452 108.862 16.7712 109.298 15.5419C109.344 16.4359 109.944 17.0658 111.073 17.0658H112.099V15.5419L111.329 15.5266ZM109.2 12.9867C109.2 14.9678 108.118 15.8263 106.733 15.8263C105.521 15.8263 105.039 15.1253 105.039 14.4091C105.039 13.6928 105.455 13.1594 106.748 13.1594H107.004C108.246 13.1594 109.021 12.7276 109.185 11.9758L109.2 12.9867Z" fill="#0D67FE"/>
<path d="M117.993 8.0184C117.39 8.00445 116.794 8.14545 116.262 8.42767C115.731 8.7099 115.283 9.12367 114.961 9.62872H114.925C114.954 9.32137 114.966 9.01275 114.961 8.70412V5.46826H113.186V17.0605H114.961V16.6745C114.966 16.349 114.954 16.0234 114.925 15.6991H114.961C115.276 16.2108 115.723 16.6301 116.255 16.9141C116.789 17.198 117.388 17.3362 117.993 17.3146C120.173 17.3146 122.097 15.6687 122.097 12.6157C122.097 9.56265 120.173 8.0184 117.993 8.0184ZM117.542 15.7957C115.895 15.7957 114.945 14.3936 114.945 12.6004C114.945 10.9088 115.895 9.55252 117.542 9.55252C119.188 9.55252 120.219 10.7869 120.219 12.636C120.219 14.485 119.153 15.8109 117.542 15.7957Z" fill="#0D67FE"/>
<path d="M123.205 5.46826V17.0605H124.98V5.46826H123.205Z" fill="#0D67FE"/>
<path d="M135 11.8691C135 9.66442 133.225 8.01855 130.803 8.01855C128.238 8.01855 126.432 9.75585 126.432 12.6667C126.432 15.4606 128.187 17.3147 130.803 17.3147C132.948 17.3147 134.549 16.0702 134.908 14.3582H132.974C132.809 14.7944 132.509 15.1681 132.118 15.4261C131.726 15.6842 131.263 15.8136 130.793 15.7959C129.47 15.7959 128.5 14.8561 128.289 13.2915H134.989L135 11.8691ZM128.33 11.7218C128.403 11.1196 128.695 10.5646 129.153 10.1613C129.61 9.75795 130.201 9.5343 130.814 9.53235C131.42 9.5292 132.005 9.75315 132.451 10.1592C132.897 10.5653 133.172 11.1235 133.22 11.7218H128.33Z" fill="#0D67FE"/>
<path d="M48.8668 18.6152V21.8003C48.8668 22.1356 48.8668 22.4099 48.8975 22.7756H48.8668C48.5504 22.2657 48.1031 21.848 47.5704 21.5651C47.0378 21.2822 46.4388 21.1442 45.8348 21.1654C43.639 21.1654 41.7305 22.7757 41.7305 25.7372C41.7305 28.7852 43.6184 30.4667 45.8348 30.4667C46.4378 30.4785 47.0338 30.3361 47.5649 30.0531C48.0962 29.7701 48.5446 29.3561 48.8668 28.8512H48.8975C48.8668 29.2068 48.8668 29.4608 48.8668 29.7809V30.2126H50.6419V18.6152H48.8668ZM46.3016 28.9427C44.6702 28.9427 43.6031 27.6473 43.6031 25.7321C43.6031 23.8171 44.6702 22.6842 46.3016 22.6842C47.933 22.6842 48.8668 24.0304 48.8668 25.7321C48.8668 27.5254 47.9126 28.9478 46.2863 28.963L46.3016 28.9427Z" fill="#0D67FE"/>
<path d="M56.5474 21.1846C54.0592 21.1846 52.0943 22.8457 52.0943 25.8327C52.0943 28.8196 54.0592 30.4807 56.5474 30.4807C59.0356 30.4807 61.0005 28.8044 61.0005 25.8327C61.0005 22.8609 59.0305 21.1846 56.5474 21.1846ZM56.5474 28.9618C55.0955 28.9618 53.9309 27.9459 53.9309 25.8327C53.9309 23.7194 55.0955 22.6831 56.5474 22.6984C57.9993 22.7136 59.1587 23.7143 59.1587 25.8327C59.1587 27.951 57.9993 28.9466 56.5474 28.9618Z" fill="#0D67FE"/>
<path d="M72.276 21.1858C71.7133 21.17 71.1572 21.3093 70.6698 21.5883C70.1824 21.8672 69.7828 22.2749 69.5159 22.7657H69.4697L69.5159 23.1872C69.3544 22.598 68.9952 22.0807 68.4972 21.7206C67.9993 21.3605 67.3923 21.179 66.7763 21.2061C66.2498 21.2123 65.7349 21.3616 65.2881 21.6374C64.8412 21.9133 64.4794 22.3053 64.2419 22.7707H64.2111V21.4398H62.4668V30.228H64.2419V25.2751C64.2419 23.614 65.191 22.7351 66.3248 22.7351C67.274 22.7351 67.9511 23.3549 67.9511 24.8129V30.228H69.7262V25.2598C69.7262 23.5987 70.7113 22.7504 71.84 22.7504C72.7942 22.7504 73.456 23.3701 73.456 24.8281V30.228H75.231V24.6808C75.231 22.5574 74.0819 21.1858 72.276 21.1858Z" fill="#0D67FE"/>
<path d="M84.8302 28.6927C84.5887 28.6927 84.4762 28.5453 84.4762 28.2608V24.395C84.4762 22.5409 83.568 21.1846 80.8852 21.1846C78.3195 21.1846 77.1292 22.4596 77.001 24.2833H78.7763C78.8895 23.2927 79.6792 22.6984 80.8852 22.6984C81.9112 22.6984 82.629 23.1454 82.629 23.8515C82.629 24.4255 82.2292 24.776 80.9055 24.776H80.1922C78.0787 24.776 76.6628 25.6244 76.6628 27.5548C76.6628 29.5867 78.1605 30.5113 79.92 30.5113C81.2287 30.5113 82.3417 29.9372 82.773 28.7079C82.824 29.602 83.4195 30.2318 84.5483 30.2318H85.548V28.7079L84.8302 28.6927ZM82.701 26.1527C82.701 28.1338 81.6187 28.9924 80.2282 28.9924C79.0222 28.9924 78.5355 28.2913 78.5355 27.57C78.5355 26.8486 78.9555 26.3254 80.2485 26.3254H80.505C81.747 26.3254 82.5217 25.8936 82.6807 25.1418L82.701 26.1527Z" fill="#0D67FE"/>
<path d="M86.6513 21.4394V30.2276H88.4265V21.4394H86.6513Z" fill="#0D67FE"/>
<path d="M94.8803 21.185C94.3343 21.1759 93.7957 21.3126 93.3217 21.5808C92.8485 21.849 92.4562 22.2387 92.187 22.7089H92.151V21.439H90.4118V30.2272H92.187V25.2743C92.187 23.6131 93.1718 22.7344 94.413 22.7344C95.439 22.7344 96.2348 23.2931 96.2348 24.812V30.2272H98.01V24.6799C98.01 22.5565 96.8145 21.185 94.8803 21.185Z" fill="#0D67FE"/>
<path d="M103.606 24.9044H103.268C101.729 24.9044 101.431 24.6351 101.431 23.9493C101.431 23.2635 102.042 22.6793 103.191 22.6793C103.41 22.6622 103.63 22.6908 103.837 22.7631C104.044 22.8355 104.233 22.9501 104.393 23.0994C104.553 23.2488 104.679 23.4296 104.764 23.6303C104.848 23.831 104.889 24.0469 104.884 24.2642H106.736C106.608 22.4914 105.284 21.1655 103.191 21.1655C100.785 21.1655 99.6 22.5676 99.6 23.929C99.6 25.5089 100.924 26.4182 102.586 26.4182H103.068C104.607 26.4182 105.069 26.7686 105.069 27.617C105.069 28.3688 104.294 28.9429 103.135 28.9429C102.671 28.961 102.22 28.799 101.875 28.4914C101.531 28.1838 101.322 27.7551 101.293 27.2969H99.441C99.5535 29.1206 101.067 30.4617 103.135 30.4617C105.618 30.4617 106.911 29.0393 106.911 27.617C106.9 26.0066 105.607 24.9044 103.606 24.9044Z" fill="#0D67FE"/>
</g>
<defs>
<clipPath id="clip0_176_1034">
<rect width="135" height="36" fill="white"/>
</clipPath>
</defs>
</svg>
