<svg width="90" height="36" viewBox="0 0 90 36" fill="none" xmlns="http://www.w3.org/2000/svg">
<g clip-path="url(#clip0_176_1055)">
<path d="M16.3288 25.7143C23.4003 25.7143 29.186 19.9286 29.186 12.8571C29.186 9.9 28.286 7.32857 26.6145 5.14286C28.1574 3.98571 29.186 2.05714 29.186 0H16.3288C9.2574 0 3.47169 5.78571 3.47169 12.8571C3.47169 19.9286 9.2574 25.7143 16.3288 25.7143ZM16.3288 5.91429C20.186 5.91429 23.2717 9 23.2717 12.8571C23.2717 16.7143 20.186 19.8 16.3288 19.8C12.4717 19.8 9.38597 16.7143 9.38597 12.8571C9.38597 9 12.4717 5.91429 16.3288 5.91429Z" fill="#00DF9B"/>
<path d="M32.7858 29.1857C32.0144 27.2571 30.4716 25.8429 28.4144 25.2C25.0716 28.4143 20.7001 30.0857 16.4573 30.0857C12.0858 30.0857 7.84299 28.4143 4.50013 25.2C2.44299 25.8429 0.900129 27.2571 0.1287 29.1857C4.50013 33.6857 10.4144 36 16.3287 36C22.243 36 28.1573 33.6857 32.7858 29.1857Z" fill="#2471FE"/>
<path d="M72.7716 4.24292C71.1001 4.24292 69.943 5.40006 69.943 7.07149C69.943 8.74292 71.1001 9.90006 72.7716 9.90006C74.443 9.90006 75.6001 8.74292 75.6001 7.07149C75.6001 5.40006 74.443 4.24292 72.7716 4.24292Z" fill="white"/>
<path d="M42.9431 30.4716C44.5053 30.4716 45.7717 29.2051 45.7717 27.6429C45.7717 26.0807 44.5053 24.8143 42.9431 24.8143C41.381 24.8143 40.1145 26.0807 40.1145 27.6429C40.1145 29.2051 41.381 30.4716 42.9431 30.4716Z" fill="white"/>
<path d="M59.1432 11.7001C57.6004 11.7001 56.1861 12.2144 54.9004 13.1144C54.9004 9.51441 54.9004 5.5287 54.9004 5.5287C53.3575 4.75727 51.5575 4.75727 49.8861 5.5287V30.2144C51.429 30.9858 53.3575 30.9858 54.9004 30.2144V29.1858C56.0575 30.0858 57.6004 30.6001 59.1432 30.6001C61.7147 30.6001 64.029 29.3144 65.3147 27.0001C66.2147 25.4573 66.6004 23.5287 66.6004 21.2144C66.6004 18.9001 66.0861 16.9716 65.3147 15.4287C64.029 13.1144 61.8432 11.7001 59.1432 11.7001ZM58.2432 26.2287C55.929 26.2287 54.9004 23.9144 54.9004 21.0858C54.9004 18.2573 55.929 15.943 58.2432 15.943C60.5575 15.943 61.5861 18.5144 61.5861 21.0858C61.5861 23.6573 60.5575 26.2287 58.2432 26.2287Z" fill="white"/>
<path d="M70.2001 12.2144V30.0857C71.743 30.8571 73.6716 30.8571 75.2144 30.0857V12.2144C73.6716 11.4429 71.8716 11.4429 70.2001 12.2144Z" fill="white"/>
<path d="M89.4858 26.1001H87.5573C86.7858 26.1001 86.143 25.4573 86.143 24.6858V16.0716C87.5573 16.0716 89.3573 16.0716 89.3573 16.0716C90.0001 14.7858 90.0001 13.3716 89.3573 12.0858H86.143V7.45727C84.6001 6.68584 82.8001 6.68584 81.1287 7.45727V11.9573H78.3001C77.6573 13.243 77.6573 14.6573 78.3001 15.943C78.3001 15.943 80.1001 15.943 81.1287 15.943V26.2287C81.1287 29.1858 83.0573 30.343 86.7858 30.343C88.4573 30.343 89.4858 30.2144 89.4858 30.2144C90.1287 29.0573 90.1287 27.3858 89.4858 26.1001Z" fill="white"/>
</g>
<defs>
<clipPath id="clip0_176_1055">
<rect width="90" height="36" fill="white"/>
</clipPath>
</defs>
</svg>
