<svg width="37" height="36" viewBox="0 0 37 36" fill="none" xmlns="http://www.w3.org/2000/svg">
<g clip-path="url(#clip0_551_790)">
<path d="M36.2611 35.6463C36.2611 35.9064 36.2287 36 35.9272 36C24.1453 35.9901 12.3634 35.9901 0.581463 35.9991C0.305163 36 0.262863 35.9343 0.262863 35.6742C0.271863 29.7837 0.270063 23.8932 0.270063 18.0036C0.270063 12.114 0.271863 6.2523 0.261963 0.3771C0.261963 0.0873 0.296163 0 0.621063 0C12.3877 0.0117 24.1543 0.0108 35.9218 0.0018C36.2098 0.0018 36.2629 0.0756 36.262 0.3492C36.2548 12.1149 36.2548 23.8806 36.2611 35.6463Z" fill="#1A16B8"/>
<path d="M16.3305 16.2548C16.1406 16.4726 16.1181 16.8182 16.1226 17.0927C16.137 17.8298 16.1307 18.5669 16.1271 19.304C16.1271 19.3508 16.1271 19.3976 16.137 19.4426C16.1514 19.5047 16.1856 19.5614 16.2234 19.6127C16.5168 20.0105 17.0163 20.1419 17.487 20.1491C18.4491 20.1635 19.4121 20.105 20.3733 20.1869C20.3832 20.1869 20.394 20.1887 20.4012 20.1968C20.4075 20.204 20.4084 20.2148 20.4084 20.2247C20.4156 20.7206 20.322 21.3596 20.5821 21.8105C20.799 22.1858 21.24 22.2803 21.6432 22.2848C22.7376 22.2992 23.832 22.2875 24.9264 22.2884C25.4367 22.2884 25.9461 22.2992 26.4555 22.2902C26.7102 22.2866 26.8362 22.3541 26.8326 22.643C26.8155 23.9471 26.8164 25.2512 26.811 26.5544C24.7788 26.5643 22.7466 26.5688 20.7144 26.5859C20.3994 26.5886 20.3913 26.4068 20.3904 26.1809C20.3868 25.2494 20.4255 24.308 20.3877 23.3783C20.3769 23.1002 20.3004 22.7915 20.07 22.6133C19.7046 22.3307 19.2087 22.3172 18.7677 22.3109C18.2511 22.3037 17.7327 22.3055 17.2161 22.3208C16.83 22.3325 16.4484 22.4783 16.2279 22.8095C16.0767 23.0561 16.1208 23.3144 16.119 23.5934C16.1163 23.9237 16.1136 24.2531 16.1118 24.5834C16.1064 25.2431 16.1019 25.9028 16.0965 26.5634C14.3892 26.5715 12.6819 26.5868 10.9737 26.585C10.5732 26.585 9.96754 26.6048 9.79924 26.513C9.66424 26.4383 9.69394 25.7165 9.69394 25.3043C9.69394 25.0568 9.69394 24.8102 9.69394 24.5627C9.69394 24.1478 9.69394 23.732 9.69304 23.3171C9.69304 22.9022 9.69304 22.4864 9.69304 22.0715C9.69304 21.6566 9.69304 21.2408 9.69304 20.8259C9.69304 20.411 9.69304 19.9952 9.69304 19.5803C9.69304 19.1654 9.69304 18.7496 9.69304 18.3347C9.69304 17.9198 9.69304 17.504 9.69304 17.0891C9.69304 16.6742 9.69304 16.2584 9.69304 15.8435C9.69304 15.4286 9.69304 15.0128 9.69304 14.5979C9.69304 14.183 9.69304 13.7672 9.69304 13.3523C9.69304 12.9374 9.69304 12.5216 9.69304 12.1067C9.69304 11.6918 9.69304 11.276 9.69304 10.8611C9.69304 10.6532 9.69304 10.4462 9.69304 10.2383C9.69304 10.1159 9.69304 9.99533 9.68764 9.87293C9.68134 9.74513 9.68584 9.61643 9.69844 9.48863C9.69934 9.47693 9.70114 9.46523 9.70744 9.45533C9.72004 9.43463 9.74794 9.43103 9.77224 9.42923C9.86584 9.42473 9.96034 9.43283 10.0548 9.43283C10.1538 9.43283 10.2528 9.43283 10.3518 9.43283C10.548 9.43283 10.7442 9.43283 10.9404 9.43283C11.3553 9.43283 11.7711 9.43283 12.186 9.43283C12.6009 9.43283 13.0167 9.43283 13.4316 9.43283C13.8465 9.43283 14.2623 9.43283 14.6772 9.43283C15.0552 9.43283 15.4332 9.43283 15.8103 9.43283C15.9102 9.43283 16.0227 9.39863 16.1037 9.49583C16.1235 9.51923 16.1046 9.64433 16.1055 9.67673C16.1055 9.74783 16.1073 9.81983 16.1082 9.89093C16.11 10.0286 16.1127 10.1654 16.1154 10.3031C16.1199 10.5776 16.1253 10.853 16.128 11.1275C16.1307 11.402 16.1316 11.6765 16.1271 11.9519C16.1235 12.194 16.092 12.4469 16.1163 12.6881C16.1406 12.9293 16.2288 13.1462 16.3719 13.3298C16.4547 13.4369 16.5564 13.5296 16.6743 13.5971C16.8066 13.6727 16.9497 13.6745 17.1 13.6889C17.5023 13.7267 17.9064 13.7303 18.3105 13.7303C18.7146 13.7303 19.152 13.7402 19.5408 13.6403C20.1465 13.4828 20.4021 13.1705 20.4048 12.5684C20.4102 11.654 20.4201 10.7396 20.4048 9.82523C20.4003 9.50663 20.5146 9.41573 20.8233 9.41753C22.6818 9.42743 24.5412 9.42563 26.3997 9.41213C26.7309 9.41033 26.8425 9.51833 26.838 9.85223C26.8218 11.0213 26.8209 12.1904 26.8371 13.3595C26.8416 13.6772 26.7066 13.7321 26.4357 13.7303C25.3296 13.7249 24.2235 13.7276 23.1174 13.7285C22.5252 13.7285 21.9303 13.6745 21.3426 13.7636C21.1383 13.7942 20.907 13.8554 20.7486 13.9958C20.6172 14.111 20.4858 14.2505 20.4354 14.4224C20.385 14.5943 20.4093 14.786 20.4093 14.966V15.4637C20.4093 15.5267 20.4084 15.5906 20.4093 15.6536C20.4093 15.686 20.4111 15.7184 20.4138 15.7508C20.4156 15.7724 20.4183 15.7967 20.4084 15.8174C20.3805 15.8741 20.3004 15.8516 20.2518 15.8498C20.16 15.8462 20.0682 15.8516 19.9764 15.8516C19.5543 15.8579 19.1313 15.8624 18.7092 15.8669C18.6138 15.8678 18.5184 15.8687 18.423 15.8696C17.8047 15.875 17.1477 15.7913 16.5762 16.0775C16.5051 16.1135 16.4349 16.154 16.3764 16.2071C16.3602 16.2215 16.3449 16.2377 16.3305 16.2539V16.2548Z" fill="#EECB50"/>
</g>
<defs>
<clipPath id="clip0_551_790">
<rect width="36" height="36" fill="white" transform="translate(0.261963)"/>
</clipPath>
</defs>
</svg>
