<svg width="149" height="36" viewBox="0 0 149 36" fill="none" xmlns="http://www.w3.org/2000/svg">
<g clip-path="url(#clip0_551_747)">
<path d="M28.9874 36H7.45494C3.47357 36 0.221191 32.7431 0.221191 28.7663V7.23375C0.221191 3.25237 3.47357 0 7.45494 0H28.9874C32.9643 0 36.2212 3.25237 36.2212 7.23375V28.7663C36.2212 32.7431 32.9643 36 28.9874 36Z" fill="#1A16B8"/>
<path d="M22.4579 11.8688C22.207 11.9543 22.3015 12.2513 22.5648 12.2468L23.926 12.2186L21.2035 19.5176L18.6329 14.7926C18.2338 14.0471 17.6521 13.4149 16.9423 12.9553C16.2324 12.4957 15.4175 12.2236 14.5739 12.1646H13.8089C12.8348 12.2306 11.9013 12.58 11.1232 13.1696C10.3451 13.7592 9.75629 14.5635 9.42929 15.4834L5.23529 27.0023C5.22861 27.0202 5.22634 27.0394 5.22867 27.0584C5.231 27.0774 5.23786 27.0955 5.24867 27.1113C5.25948 27.1271 5.27392 27.14 5.29078 27.149C5.30764 27.1581 5.32642 27.1629 5.34554 27.1631H11.6253C11.6748 27.1631 11.7198 27.1294 11.7378 27.0844L14.3725 19.8304L16.9308 24.5351C17.3884 25.3929 18.086 26.0986 18.9383 26.5662C19.7907 27.0337 20.7608 27.2427 21.73 27.1676C22.7012 27.1061 23.6335 26.7634 24.4133 26.1813C25.1931 25.5992 25.7868 24.8029 26.122 23.8894L30.4938 12.1646L31.6413 8.96514C31.6488 8.94384 31.6501 8.92085 31.6451 8.89883C31.6401 8.87682 31.6289 8.85668 31.6129 8.84077C31.5968 8.82486 31.5766 8.81383 31.5546 8.80896C31.5325 8.80409 31.5095 8.80558 31.4883 8.81326L22.4579 11.8688Z" fill="#EECB50"/>
<path opacity="0.3" d="M9.42493 15.4801L5.23431 27.0012C5.2276 27.0192 5.22534 27.0386 5.22773 27.0576C5.23012 27.0767 5.23707 27.0949 5.24801 27.1107C5.25895 27.1265 5.27354 27.1394 5.29055 27.1484C5.30755 27.1573 5.32647 27.162 5.34568 27.1621H11.6254C11.6749 27.1621 11.7199 27.1283 11.7368 27.0833L14.3727 19.8293L16.9298 24.5341C17.3279 25.2802 17.9087 25.9131 18.618 26.3735C19.3274 26.8339 20.1419 27.1068 20.9854 27.1666H21.7336L13.8091 12.1636C12.8346 12.2278 11.9002 12.5758 11.1211 13.1648C10.3421 13.7537 9.75245 14.5578 9.42493 15.4778V15.4801Z" fill="#D5D5D5"/>
<path d="M11.4071 19.2127L8.4922 27.0067C8.48575 27.0246 8.48366 27.0437 8.48609 27.0625C8.48853 27.0814 8.49543 27.0994 8.50621 27.115C8.517 27.1306 8.53135 27.1434 8.54809 27.1524C8.56483 27.1613 8.58347 27.1662 8.60245 27.1665H11.6287C11.6782 27.1665 11.7243 27.1327 11.7412 27.0877L14.376 19.8337L13.8461 19.008C13.2993 18.1485 11.7862 18.2677 11.4071 19.2127Z" fill="#EECB50"/>
<path opacity="0.3" d="M24.1758 20.1509L27.0828 12.5425C27.0963 12.5065 27.101 12.4677 27.0964 12.4294C27.0918 12.3912 27.078 12.3546 27.0563 12.3228C27.0345 12.291 27.0054 12.265 26.9715 12.2468C26.9375 12.2286 26.8997 12.2189 26.8611 12.2185H23.9249L21.2024 19.5344L21.7334 20.3601C22.2846 21.2151 23.7989 21.097 24.1758 20.1509Z" fill="#D5D5D5"/>
<path d="M59.4378 21.3751L48.9978 11.2804C48.1788 10.4884 46.8918 10.2139 45.724 10.5829C44.5574 10.9542 43.8003 11.8699 43.8003 12.9207V25.5747H47.5207V14.6251L57.9629 24.7186C58.54 25.2766 59.35 25.5792 60.1837 25.5792C60.5324 25.5792 60.8902 25.5274 61.2344 25.4161C62.401 25.0448 63.1593 24.1302 63.1593 23.0783V10.5908H59.4378V21.3751ZM65.7097 14.3899V25.2597H69.43V14.3899C69.43 13.9444 69.88 13.5653 70.4088 13.5653H82.9357V10.4322H70.4088C67.8179 10.4322 65.7097 12.2086 65.7097 14.3899Z" fill="#1A16B8"/>
<path d="M82.9356 16.4205H70.8823V19.5548H82.9356V16.4205ZM86.0912 13.5653H93.4892V25.2641H97.2107V13.5653H104.609V10.4321H86.0912V13.5653ZM110.435 19.4985V16.4093C110.435 14.8444 111.947 13.5698 113.803 13.5698H124.778V10.4366H113.803C109.894 10.4366 106.714 13.1164 106.714 16.4093V19.4985C106.714 22.7914 109.894 25.4723 113.803 25.4723H120.635V22.338H113.803C111.947 22.3335 110.435 21.0634 110.435 19.4985Z" fill="#1A16B8"/>
<path d="M121.109 16.3857H114.188V19.5189H121.109C121.635 19.5189 122.076 19.7979 122.076 20.1286V25.2642H125.796V20.1286C125.796 18.062 123.696 16.3857 121.109 16.3857Z" fill="#1A16B8"/>
<path d="M140.4 10.5684H135.78C131.583 10.5684 128.17 13.4472 128.17 16.982V19.0565C128.17 22.5924 131.583 25.4712 135.78 25.4712H140.4C144.598 25.4712 148.01 22.5924 148.01 19.0565V16.982C148.01 13.4427 144.598 10.5684 140.4 10.5684ZM144.293 19.0565C144.293 20.8644 142.549 22.3381 140.404 22.3381H135.785C133.639 22.3381 131.896 20.8689 131.896 19.0565V16.982C131.896 15.1752 133.639 13.7015 135.785 13.7015H140.404C142.549 13.7015 144.293 15.1707 144.293 16.982V19.0565Z" fill="#1A16B8"/>
</g>
<defs>
<clipPath id="clip0_551_747">
<rect width="148.5" height="36" fill="white" transform="translate(0.221191)"/>
</clipPath>
</defs>
</svg>
