<svg width="136" height="36" viewBox="0 0 136 36" fill="none" xmlns="http://www.w3.org/2000/svg">
<g id="Frame" clip-path="url(#clip0_551_718)">
<path id="Vector" d="M33.4052 3.85693V14.9616L0.786377 28.0829L33.4052 3.85693Z" fill="#1A16B8"/>
<path id="Vector_2" d="M27.2901 3.375V22.5313C27.2901 25.2083 26.2161 27.7757 24.3043 29.6686C22.3926 31.5616 19.7997 32.625 17.0961 32.625C14.3925 32.625 11.7996 31.5616 9.88785 29.6686C7.97611 27.7757 6.9021 25.2083 6.9021 22.5313V14.4593L13.0174 11.1269V22.5313C12.9602 23.029 13.0098 23.5331 13.1629 24.0105C13.3162 24.4879 13.5694 24.9279 13.9063 25.3016C14.2432 25.6754 14.656 25.9744 15.1177 26.1791C15.5795 26.3839 16.0797 26.4898 16.5857 26.4898C17.0915 26.4898 17.5918 26.3839 18.0535 26.1791C18.5152 25.9744 18.928 25.6754 19.2649 25.3016C19.6018 24.9279 19.8551 24.4879 20.0083 24.0105C20.1615 23.5331 20.2111 23.029 20.1538 22.5313V7.24079L27.2901 3.375Z" fill="#1A16B8"/>
<path id="Vector_3" d="M48.2884 8.27197V13.2249C48.2884 14.886 47.3341 15.7648 46.1439 15.7648C45.1743 15.7648 44.415 15.206 44.415 13.6871V8.27197H42.6399V13.8141C42.6399 15.9426 43.7891 17.3142 45.677 17.3142C46.2112 17.3195 46.7366 17.1805 47.1968 16.9119C47.657 16.6433 48.0344 16.2555 48.2884 15.7902H48.3192V17.0551H50.0635V8.27197H48.2884Z" fill="#1A16B8"/>
<path id="Vector_4" d="M56.0345 8.0175C55.488 8.00858 54.9491 8.1453 54.4743 8.41343C53.9996 8.68155 53.6063 9.07118 53.3359 9.5415H53.3051V8.27153H51.5608V17.0597H53.3359V12.1068C53.3359 10.4457 54.3209 9.56685 55.5625 9.56685C56.5886 9.56685 57.3889 10.1257 57.3889 11.6446V17.0597H59.164V11.5023C59.164 9.3891 57.9891 8.0175 56.0345 8.0175Z" fill="#1A16B8"/>
<path id="Vector_5" d="M64.4381 11.7371H64.0995C62.5604 11.7371 62.2577 11.4678 62.2577 10.782C62.2577 10.0962 62.8734 9.53235 64.0174 9.53235C64.2366 9.51533 64.4568 9.54383 64.6641 9.6162C64.8715 9.6885 65.0612 9.80296 65.2212 9.95228C65.3811 10.1015 65.5077 10.2824 65.5929 10.483C65.6781 10.6836 65.7198 10.8997 65.7156 11.1173H67.5676C67.4394 9.34441 66.1158 8.01855 64.0174 8.01855C61.6164 8.01855 60.4262 9.42061 60.4262 10.782C60.4262 12.3619 61.7498 13.2712 63.412 13.2712H63.8943C65.4334 13.2712 65.8951 13.6268 65.8951 14.4701C65.8951 15.2219 65.1204 15.7959 63.961 15.7959C63.4934 15.8209 63.0348 15.662 62.685 15.3537C62.3352 15.0454 62.1226 14.6128 62.0935 14.15H60.2415C60.3543 15.9737 61.8678 17.3147 63.9354 17.3147C66.4184 17.3147 67.7112 15.8924 67.7112 14.4701C67.7369 12.8394 66.4389 11.7371 64.4381 11.7371Z" fill="#1A16B8"/>
<path id="Vector_6" d="M73.3138 9.80662V8.28262H70.9076V7.06348H69.1377V8.2725H67.6858V9.79642H69.1377V14.6986C69.1377 16.3444 70.0099 17.0505 71.6567 17.0505H73.319V15.5266H71.8157C71.6921 15.5338 71.5685 15.5143 71.4532 15.4696C71.3379 15.4249 71.2337 15.3561 71.1479 15.2677C71.0621 15.1794 70.9967 15.0736 70.9561 14.9578C70.9155 14.842 70.9007 14.719 70.9128 14.5969V9.80662H73.3138Z" fill="#1A16B8"/>
<path id="Vector_7" d="M78.3162 8.01855C75.8277 8.01855 73.863 9.67966 73.863 12.6667C73.863 15.6536 75.8277 17.3147 78.3162 17.3147C80.8047 17.3147 82.7697 15.6384 82.7697 12.6667C82.7697 9.69496 80.7994 8.01855 78.3162 8.01855ZM78.3162 15.7959C76.8642 15.7959 75.6997 14.7799 75.6997 12.6667C75.6997 10.5534 76.8642 9.51713 78.3162 9.53235C79.7682 9.54758 80.9277 10.523 80.9277 12.6667C80.9277 14.8104 79.7682 15.7806 78.3162 15.7959Z" fill="#1A16B8"/>
<path id="Vector_8" d="M88.7727 8.01801C88.1689 8.00421 87.5719 8.14521 87.0402 8.42736C86.5077 8.70959 86.0584 9.12329 85.7352 9.62834H85.6947C85.7254 9.27779 85.7254 9.02384 85.7254 8.70381V8.27196H83.9502V18.6147H85.7254V16.6741C85.7254 16.3389 85.7254 16.0696 85.6947 15.6988H85.7254C86.0419 16.2124 86.4912 16.633 87.0267 16.9169C87.5629 17.2009 88.1652 17.3381 88.7727 17.3142C90.9477 17.3142 92.8767 15.6683 92.8767 12.6153C92.8767 9.56226 90.9529 8.01801 88.7727 8.01801ZM88.3212 15.7953C86.6742 15.7953 85.7202 14.3932 85.7202 12.6001C85.7202 10.9084 86.6742 9.55214 88.3212 9.55214C89.9682 9.55214 90.9994 10.7866 90.9994 12.6356C90.9994 14.4847 89.9374 15.8106 88.3264 15.7953H88.3212Z" fill="#1A16B8"/>
<path id="Vector_9" d="M98.905 8.01801C98.3013 8.00421 97.7043 8.14521 97.1718 8.42736C96.64 8.70959 96.1908 9.12329 95.8675 9.62834H95.8368C95.8675 9.27779 95.8675 9.02384 95.8675 8.70381V8.27196H94.0923V18.6147H95.8675V16.6741C95.8675 16.3389 95.8675 16.0696 95.8368 15.6988H95.8675C96.1833 16.2109 96.631 16.6304 97.165 16.9143C97.699 17.1982 98.299 17.3362 98.905 17.3142C101.08 17.3142 102.984 15.6683 102.984 12.6153C102.984 9.56226 101.085 8.01801 98.905 8.01801ZM98.4535 15.7953C96.8065 15.7953 95.8518 14.3932 95.8518 12.6001C95.8518 10.9084 96.8065 9.55214 98.4535 9.55214C100.1 9.55214 101.131 10.7866 101.131 12.6356C101.131 14.4847 100.059 15.8106 98.4535 15.7953Z" fill="#1A16B8"/>
<path id="Vector_10" d="M112.116 15.5267C111.874 15.5267 111.762 15.3793 111.762 15.0949V11.2291C111.762 9.37486 110.859 8.01855 108.196 8.01855C105.63 8.01855 104.436 9.29363 104.307 11.1173H106.082C106.195 10.1013 106.985 9.53235 108.196 9.53235C109.222 9.53235 109.94 9.98446 109.94 10.6855C109.94 11.2595 109.535 11.61 108.211 11.61H107.503C105.39 11.61 103.968 12.4584 103.968 14.3939C103.968 16.4258 105.467 17.3453 107.226 17.3453C108.534 17.3453 109.648 16.7712 110.084 15.5419C110.13 16.436 110.73 17.0658 111.859 17.0658H112.885V15.5419L112.116 15.5267ZM109.986 12.9867C109.986 14.9678 108.904 15.8264 107.519 15.8264C106.308 15.8264 105.825 15.1253 105.825 14.4091C105.825 13.6928 106.242 13.1594 107.534 13.1594H107.79C109.032 13.1594 109.807 12.7276 109.971 11.9758L109.986 12.9867Z" fill="#1A16B8"/>
<path id="Vector_11" d="M118.779 8.0184C118.176 8.00445 117.58 8.14545 117.048 8.42767C116.517 8.7099 116.069 9.12367 115.747 9.62872H115.711C115.74 9.32137 115.752 9.01275 115.747 8.70412V5.46826H113.972V17.0605H115.747V16.6745C115.752 16.349 115.74 16.0234 115.711 15.6991H115.747C116.062 16.2108 116.509 16.6301 117.042 16.9141C117.575 17.198 118.174 17.3362 118.779 17.3146C120.96 17.3146 122.883 15.6687 122.883 12.6157C122.883 9.56265 120.96 8.0184 118.779 8.0184ZM118.328 15.7957C116.681 15.7957 115.731 14.3936 115.731 12.6004C115.731 10.9088 116.681 9.55252 118.328 9.55252C119.974 9.55252 121.005 10.7869 121.005 12.636C121.005 14.485 119.939 15.8109 118.328 15.7957Z" fill="#1A16B8"/>
<path id="Vector_12" d="M123.991 5.46826V17.0605H125.766V5.46826H123.991Z" fill="#1A16B8"/>
<path id="Vector_13" d="M135.786 11.8691C135.786 9.66443 134.011 8.01855 131.589 8.01855C129.024 8.01855 127.218 9.75586 127.218 12.6667C127.218 15.4606 128.973 17.3147 131.589 17.3147C133.734 17.3147 135.335 16.0702 135.694 14.3582H133.76C133.595 14.7944 133.296 15.1681 132.904 15.4262C132.513 15.6842 132.049 15.8136 131.58 15.7959C130.256 15.7959 129.286 14.8561 129.075 13.2915H135.776L135.786 11.8691ZM129.117 11.7218C129.189 11.1197 129.482 10.5646 129.939 10.1613C130.397 9.75795 130.987 9.5343 131.6 9.53235C132.206 9.5292 132.791 9.75315 133.237 10.1592C133.683 10.5653 133.958 11.1236 134.006 11.7218H129.117Z" fill="#1A16B8"/>
<path id="Vector_14" d="M49.6532 18.6152V21.8003C49.6532 22.1356 49.6532 22.4099 49.6839 22.7756H49.6532C49.3368 22.2657 48.8894 21.848 48.3568 21.5651C47.8241 21.2822 47.2252 21.1442 46.6211 21.1654C44.4254 21.1654 42.5168 22.7757 42.5168 25.7372C42.5168 28.7852 44.4048 30.4667 46.6211 30.4667C47.2242 30.4785 47.8202 30.3361 48.3513 30.0531C48.8825 29.7701 49.331 29.3561 49.6532 28.8512H49.6839C49.6532 29.2068 49.6532 29.4608 49.6532 29.7809V30.2126H51.4283V18.6152H49.6532ZM47.088 28.9427C45.4565 28.9427 44.3894 27.6473 44.3894 25.7321C44.3894 23.8171 45.4565 22.6842 47.088 22.6842C48.7194 22.6842 49.6532 24.0304 49.6532 25.7321C49.6532 27.5254 48.6989 28.9478 47.0726 28.963L47.088 28.9427Z" fill="#1A16B8"/>
<path id="Vector_15" d="M57.3337 21.1846C54.8455 21.1846 52.8806 22.8457 52.8806 25.8327C52.8806 28.8196 54.8455 30.4807 57.3337 30.4807C59.8219 30.4807 61.7869 28.8044 61.7869 25.8327C61.7869 22.8609 59.8168 21.1846 57.3337 21.1846ZM57.3337 28.9618C55.8819 28.9618 54.7173 27.9459 54.7173 25.8327C54.7173 23.7194 55.8819 22.6831 57.3337 22.6984C58.7857 22.7136 59.9451 23.7143 59.9451 25.8327C59.9451 27.951 58.7857 28.9466 57.3337 28.9618Z" fill="#1A16B8"/>
<path id="Vector_16" d="M73.0623 21.1858C72.4996 21.17 71.9435 21.3093 71.4562 21.5883C70.9687 21.8672 70.5692 22.2749 70.3023 22.7657H70.2561L70.3023 23.1872C70.1408 22.598 69.7815 22.0807 69.2835 21.7206C68.7856 21.3605 68.1787 21.179 67.5627 21.2061C67.0361 21.2123 66.5213 21.3616 66.0744 21.6374C65.6276 21.9133 65.2657 22.3053 65.0283 22.7707H64.9974V21.4398H63.2532V30.228H65.0283V25.2751C65.0283 23.614 65.9773 22.7351 67.1112 22.7351C68.0603 22.7351 68.7375 23.3549 68.7375 24.8129V30.228H70.5126V25.2599C70.5126 23.5988 71.4976 22.7504 72.6263 22.7504C73.5805 22.7504 74.2423 23.3702 74.2423 24.8281V30.228H76.0173V24.6808C76.0173 22.5574 74.8683 21.1858 73.0623 21.1858Z" fill="#1A16B8"/>
<path id="Vector_17" d="M85.6167 28.6927C85.3752 28.6927 85.2627 28.5453 85.2627 28.2608V24.395C85.2627 22.5409 84.3545 21.1846 81.6717 21.1846C79.106 21.1846 77.9157 22.4596 77.7875 24.2833H79.5627C79.676 23.2927 80.4657 22.6984 81.6717 22.6984C82.6977 22.6984 83.4155 23.1454 83.4155 23.8515C83.4155 24.4255 83.0157 24.776 81.692 24.776H80.9787C78.8652 24.776 77.4492 25.6244 77.4492 27.5548C77.4492 29.5867 78.947 30.5113 80.7065 30.5113C82.0152 30.5113 83.1282 29.9372 83.5595 28.7079C83.6105 29.602 84.206 30.2318 85.3347 30.2318H86.3345V28.7079L85.6167 28.6927ZM83.4875 26.1527C83.4875 28.1338 82.4052 28.9924 81.0147 28.9924C79.8087 28.9924 79.322 28.2913 79.322 27.57C79.322 26.8486 79.742 26.3254 81.035 26.3254H81.2915C82.5335 26.3254 83.3082 25.8936 83.4672 25.1418L83.4875 26.1527Z" fill="#1A16B8"/>
<path id="Vector_18" d="M87.4377 21.4395V30.2277H89.213V21.4395H87.4377Z" fill="#1A16B8"/>
<path id="Vector_19" d="M95.6667 21.185C95.1207 21.1759 94.5822 21.3126 94.1082 21.5808C93.635 21.849 93.2427 22.2387 92.9735 22.7089H92.9375V21.439H91.1982V30.2271H92.9735V25.2743C92.9735 23.6131 93.9582 22.7344 95.1995 22.7344C96.2255 22.7344 97.0212 23.2931 97.0212 24.812V30.2271H98.7965V24.6799C98.7965 22.5565 97.601 21.185 95.6667 21.185Z" fill="#1A16B8"/>
<path id="Vector_20" d="M104.393 24.9044H104.055C102.516 24.9044 102.218 24.6351 102.218 23.9493C102.218 23.2635 102.828 22.6793 103.977 22.6793C104.196 22.6622 104.417 22.6908 104.624 22.7631C104.831 22.8355 105.02 22.9501 105.18 23.0994C105.339 23.2488 105.465 23.4296 105.55 23.6303C105.634 23.831 105.675 24.0469 105.671 24.2642H107.523C107.394 22.4914 106.071 21.1655 103.977 21.1655C101.571 21.1655 100.386 22.5676 100.386 23.929C100.386 25.5089 101.71 26.4182 103.372 26.4182H103.854C105.393 26.4182 105.855 26.7686 105.855 27.617C105.855 28.3688 105.081 28.9429 103.921 28.9429C103.458 28.961 103.006 28.799 102.662 28.4914C102.318 28.1838 102.108 27.7551 102.079 27.2969H100.227C100.34 29.1206 101.853 30.4617 103.921 30.4617C106.404 30.4617 107.697 29.0393 107.697 27.617C107.687 26.0066 106.394 24.9044 104.393 24.9044Z" fill="#1A16B8"/>
</g>
<defs>
<clipPath id="clip0_551_718">
<rect width="135" height="36" fill="white" transform="translate(0.786377)"/>
</clipPath>
</defs>
</svg>
