<svg width="24" height="24" viewBox="0 0 24 24" fill="none" xmlns="http://www.w3.org/2000/svg">
<path d="M13.4629 23L10.4629 20L13.4629 17V9H14.9629C15.2255 9 15.4856 9.05173 15.7283 9.15224C15.9709 9.25275 16.1914 9.40007 16.3771 9.58579C16.5628 9.7715 16.7101 9.99198 16.8106 10.2346C16.9112 10.4773 16.9629 10.7374 16.9629 11V15.5L21.9629 17.5V23.5" stroke="#55B8FF" stroke-width="1.5"/>
<path d="M9.415 17.175H2V1.77502H9.415C10.0956 1.77529 10.7483 2.04586 11.2295 2.52723C11.7107 3.00861 11.981 3.66139 11.981 4.34202V6.10602" stroke="#55B8FF" stroke-width="1.5"/>
<path d="M21.963 14.082V1.77502H14.548C13.8671 1.77502 13.2142 2.04548 12.7328 2.52688C12.2514 3.00829 11.981 3.66121 11.981 4.34202" stroke="#55B8FF" stroke-width="1.5"/>
</svg>
