<svg width="24" height="24" viewBox="0 0 24 24" fill="none" xmlns="http://www.w3.org/2000/svg">
<path d="M12 1V7" stroke="#55B8FF" stroke-width="1.5"/>
<path d="M23 12H17" stroke="#55B8FF" stroke-width="1.5"/>
<path d="M12 17V23" stroke="#55B8FF" stroke-width="1.5"/>
<path d="M7 12H1" stroke="#55B8FF" stroke-width="1.5"/>
<path d="M9 12C9 12.7956 9.31607 13.5587 9.87868 14.1213C10.4413 14.6839 11.2044 15 12 15C12.7956 15 13.5587 14.6839 14.1213 14.1213C14.6839 13.5587 15 12.7956 15 12C15 11.2044 14.6839 10.4413 14.1213 9.87868C13.5587 9.31607 12.7956 9 12 9C11.2044 9 10.4413 9.31607 9.87868 9.87868C9.31607 10.4413 9 11.2044 9 12Z" stroke="#55B8FF" stroke-width="1.5"/>
</svg>
