<svg width="24" height="24" viewBox="0 0 24 24" fill="none" xmlns="http://www.w3.org/2000/svg">
<path d="M22 2H2V22H22V2Z" stroke="#55B8FF" stroke-width="1.5"/>
<path d="M12 22V19.25H13.5C14.0304 19.25 14.5391 19.0393 14.9142 18.6642C15.2893 18.2891 15.5 17.7804 15.5 17.25C15.5 16.7196 15.2893 16.2109 14.9142 15.8358C14.5391 15.4607 14.0304 15.25 13.5 15.25H12V8.75H10.5C9.96957 8.75 9.46086 8.53929 9.08579 8.16421C8.71071 7.78914 8.5 7.28043 8.5 6.75C8.5 6.21957 8.71071 5.71086 9.08579 5.33579C9.46086 4.96071 9.96957 4.75 10.5 4.75H12V2" stroke="#55B8FF" stroke-width="1.5"/>
<path d="M22 12H19.25V10.5C19.25 9.96957 19.0393 9.46086 18.6642 9.08579C18.2891 8.71071 17.7804 8.5 17.25 8.5C16.7196 8.5 16.2109 8.71071 15.8358 9.08579C15.4607 9.46086 15.25 9.96957 15.25 10.5V12H8.75V13.5C8.75 14.0304 8.53929 14.5391 8.16421 14.9142C7.78914 15.2893 7.28043 15.5 6.75 15.5C6.21957 15.5 5.71086 15.2893 5.33579 14.9142C4.96071 14.5391 4.75 14.0304 4.75 13.5V12H2" stroke="#55B8FF" stroke-width="1.5"/>
</svg>
