<svg width="24" height="24" viewBox="0 0 24 24" fill="none" xmlns="http://www.w3.org/2000/svg">
<path d="M14.5 16.9C15.6001 16.3386 16.4793 15.4232 16.9959 14.3013C17.5124 13.1794 17.6363 11.9163 17.3476 10.7154C17.0589 9.51453 16.3744 8.44576 15.4043 7.68126C14.4343 6.91677 13.2351 6.50104 12 6.50104C10.7649 6.50104 9.56573 6.91677 8.59566 7.68126C7.62559 8.44576 6.94107 9.51453 6.65237 10.7154C6.36366 11.9163 6.48757 13.1794 7.00414 14.3013C7.52071 15.4232 8.39986 16.3386 9.5 16.9V19H14.5V16.9Z" stroke="#55B8FF" stroke-width="1.5"/>
<path d="M4.5 4.5L6 6" stroke="#55B8FF" stroke-width="1.5"/>
<path d="M18 6L19.5 4.5" stroke="#55B8FF" stroke-width="1.5"/>
<path d="M12 1V3" stroke="#55B8FF" stroke-width="1.5"/>
<path d="M1 12H3" stroke="#55B8FF" stroke-width="1.5"/>
<path d="M21 12H23" stroke="#55B8FF" stroke-width="1.5"/>
<path d="M9.5 22H14.5" stroke="#55B8FF" stroke-width="1.5"/>
</svg>
