<svg width="320" height="320" viewBox="0 0 320 320" fill="none" xmlns="http://www.w3.org/2000/svg">
<g clip-path="url(#clip0_760_1450)">
<rect width="320" height="320" fill="#EECB50"/>
<path d="M391.299 152.521C263.438 152.521 159.82 256.139 159.82 384C159.82 256.139 56.1601 152.521 -71.7012 152.521C56.1601 152.521 159.82 48.8613 159.82 -79C159.82 48.8613 263.438 152.521 391.299 152.521Z" fill="#F7E2A1"/>
<circle cx="160" cy="123" r="44" fill="url(#paint0_linear_760_1450)"/>
<path fill-rule="evenodd" clip-rule="evenodd" d="M166.471 102.442C163.886 100.775 160.98 99.9138 158.043 99.916C155.107 99.9183 152.202 100.784 149.619 102.454C147.032 104.127 144.85 106.556 143.323 109.524C141.795 112.493 140.987 115.877 140.995 119.335L140.995 119.341V122.068C140.995 122.093 140.995 122.117 140.994 122.141C140.809 128.363 141.525 134.576 143.112 140.537L143.745 142.914L138.943 144.167L138.31 141.79C136.604 135.38 135.834 128.709 136.03 122.033V119.343C136.02 115.13 137.004 110.975 138.898 107.292C140.794 103.609 143.545 100.511 146.903 98.3388C150.264 96.1649 154.106 95.003 158.04 95C161.973 94.997 165.817 96.1531 169.181 98.3221L171.261 99.6635L168.551 103.783L166.471 102.442ZM175.93 105.102L177.1 107.27C178.391 109.664 179.119 112.544 179.534 115.146C179.785 116.72 179.931 118.253 180.008 119.61H180.08V122.068C180.08 123.757 180.224 125.325 180.643 126.763C182.056 131.612 184.283 134.902 186.384 137.328L188 139.194L184.23 142.394L182.614 140.528C180.156 137.689 177.522 133.791 175.872 128.126C175.276 126.079 175.114 124.006 175.114 122.068C175.114 120.496 175.001 118.242 174.629 115.913C174.253 113.555 173.638 111.288 172.72 109.586L171.55 107.418L175.93 105.102ZM158.054 110.886C156.224 110.886 154.399 111.696 153.002 113.255C151.597 114.824 150.765 117.009 150.765 119.34V121.798H145.8V119.34C145.8 115.883 147.027 112.517 149.287 109.994C151.555 107.46 154.701 105.97 158.054 105.97C161.407 105.97 164.552 107.46 166.821 109.994C169.081 112.517 170.308 115.883 170.308 119.34V122.068C170.308 127.507 171.889 132.772 174.778 137.074L176.153 139.121L172.017 141.843L170.643 139.796C167.189 134.654 165.342 128.433 165.342 122.068V119.34C165.342 117.009 164.51 114.824 163.105 113.255C161.709 111.696 159.884 110.886 158.054 110.886ZM160.537 116.882V124.798C160.529 132.16 162.542 139.326 166.275 145.33L167.577 147.423L163.348 150L162.046 147.907C157.812 141.097 155.563 133.032 155.571 124.794V116.882H160.537ZM150.496 127.553L150.752 129.997C151.323 135.445 152.745 140.732 154.947 145.617L155.959 147.861L151.424 149.865L150.412 147.62C147.992 142.251 146.437 136.459 145.813 130.505L145.557 128.06L150.496 127.553Z" fill="#55B8FF"/>
<path d="M219.159 220.552H194.645V244.463H50C73.2781 208.089 113.842 184 160 184C181.288 184 201.402 189.126 219.159 198.225V220.552Z" fill="url(#paint1_linear_760_1450)"/>
<path d="M270 225.752V244.117H245.486V267H224.355V244.117H199.841V225.752H224.355V202.868H245.486V225.752H270Z" fill="url(#paint2_linear_760_1450)"/>
</g>
<defs>
<linearGradient id="paint0_linear_760_1450" x1="194.26" y1="85" x2="121" y2="158.26" gradientUnits="userSpaceOnUse">
<stop offset="0.197917" stop-color="#1A16B8"/>
<stop offset="1" stop-color="#55B8FF"/>
</linearGradient>
<linearGradient id="paint1_linear_760_1450" x1="223.25" y1="197.28" x2="192.54" y2="280.114" gradientUnits="userSpaceOnUse">
<stop offset="0.197917" stop-color="#1A16B8"/>
<stop offset="1" stop-color="#55B8FF"/>
</linearGradient>
<linearGradient id="paint2_linear_760_1450" x1="223.25" y1="197.28" x2="192.54" y2="280.114" gradientUnits="userSpaceOnUse">
<stop offset="0.197917" stop-color="#1A16B8"/>
<stop offset="1" stop-color="#55B8FF"/>
</linearGradient>
<clipPath id="clip0_760_1450">
<rect width="320" height="320" fill="white"/>
</clipPath>
</defs>
</svg>
