<svg width="320" height="320" viewBox="0 0 320 320" fill="none" xmlns="http://www.w3.org/2000/svg">
<g clip-path="url(#clip0_760_1491)">
<rect width="320" height="320" fill="#1A16B8"/>
<circle cx="288.701" cy="268" r="14" fill="url(#paint0_linear_760_1491)"/>
<path d="M75.2012 67.9999L159.559 104.21L247.795 22.5242L249.458 9.54032L283.201 1L296.201 28L253.701 112.5L268.701 207L292.701 274L188.201 255L173.958 218.702L154.701 214L137.584 234.516L22.2012 248L75.2012 67.9999Z" stroke="url(#paint1_linear_760_1491)" stroke-width="4" stroke-dasharray="5 5"/>
<path d="M259.701 134L190.397 173L160.701 107" stroke="url(#paint2_linear_760_1491)" stroke-width="4" stroke-dasharray="5 5"/>
<path d="M103.738 99L109.701 132.333L98.6271 140.88L100.757 151.137L46.7012 272" stroke="url(#paint3_linear_760_1491)" stroke-width="4" stroke-dasharray="5 5"/>
<path d="M143.201 219L112.701 157" stroke="url(#paint4_linear_760_1491)" stroke-width="4" stroke-dasharray="5 5"/>
<path d="M159.701 216L185.38 177L286.701 267" stroke="url(#paint5_linear_760_1491)" stroke-width="4" stroke-dasharray="5 5"/>
<ellipse cx="259.201" cy="131" rx="33.5" ry="33" fill="url(#paint6_linear_760_1491)"/>
<circle cx="76.2012" cy="69.5" r="37.5" fill="#70D7E6"/>
<ellipse cx="38.7012" cy="281.5" rx="64" ry="66.5" fill="#70D7E6"/>
<circle cx="269.201" cy="206.5" r="8.5" fill="#70D7E6"/>
<circle cx="49.2012" cy="158.5" r="14.5" fill="url(#paint7_linear_760_1491)"/>
<circle cx="159.201" cy="103.5" r="12.5" fill="url(#paint8_linear_760_1491)"/>
<path fill-rule="evenodd" clip-rule="evenodd" d="M158.798 283.193C178.733 283.193 194.894 267.032 194.894 247.097C194.894 227.161 178.733 211 158.798 211C138.862 211 122.701 227.161 122.701 247.097C122.701 267.032 138.862 283.193 158.798 283.193ZM158.798 269.156C170.981 269.156 180.857 259.279 180.857 247.097C180.857 234.914 170.981 225.038 158.798 225.038C146.615 225.038 136.739 234.914 136.739 247.097C136.739 259.279 146.615 269.156 158.798 269.156Z" fill="url(#paint9_linear_760_1491)"/>
<ellipse cx="187.701" cy="175.5" rx="18" ry="17.5" fill="#70D7E6"/>
<path fill-rule="evenodd" clip-rule="evenodd" d="M112.19 161.446C121.15 161.446 128.414 154.183 128.414 145.223C128.414 136.263 121.15 129 112.19 129C103.231 129 95.9673 136.263 95.9673 145.223C95.9673 154.183 103.231 161.446 112.19 161.446ZM112.19 155.137C117.666 155.137 122.105 150.699 122.105 145.223C122.105 139.748 117.666 135.309 112.19 135.309C106.715 135.309 102.276 139.748 102.276 145.223C102.276 150.699 106.715 155.137 112.19 155.137Z" fill="url(#paint10_linear_760_1491)"/>
<path fill-rule="evenodd" clip-rule="evenodd" d="M271.075 57.7469C288.402 57.7469 302.448 43.7005 302.448 26.3734C302.448 9.04637 288.402 -5 271.075 -5C253.748 -5 239.701 9.04637 239.701 26.3734C239.701 43.7005 253.748 57.7469 271.075 57.7469ZM271.075 45.546C281.663 45.546 290.247 36.9621 290.247 26.3734C290.247 15.7846 281.663 7.20073 271.075 7.20073C260.486 7.20073 251.902 15.7846 251.902 26.3734C251.902 36.9621 260.486 45.546 271.075 45.546Z" fill="url(#paint11_linear_760_1491)"/>
</g>
<defs>
<linearGradient id="paint0_linear_760_1491" x1="299.481" y1="254" x2="280.231" y2="275.35" gradientUnits="userSpaceOnUse">
<stop stop-color="#EECB50"/>
<stop offset="1" stop-color="#70D7E6"/>
</linearGradient>
<linearGradient id="paint1_linear_760_1491" x1="264.69" y1="0.999972" x2="77.075" y2="209.844" gradientUnits="userSpaceOnUse">
<stop stop-color="#EECB50"/>
<stop offset="1" stop-color="#70D7E6"/>
</linearGradient>
<linearGradient id="paint2_linear_760_1491" x1="248.316" y1="107" x2="208.03" y2="174.021" gradientUnits="userSpaceOnUse">
<stop stop-color="#EECB50"/>
<stop offset="1" stop-color="#70D7E6"/>
</linearGradient>
<linearGradient id="paint3_linear_760_1491" x1="102.456" y1="99" x2="19.4123" y2="132.54" gradientUnits="userSpaceOnUse">
<stop stop-color="#EECB50"/>
<stop offset="1" stop-color="#70D7E6"/>
</linearGradient>
<linearGradient id="paint4_linear_760_1491" x1="139.694" y1="157" x2="103.659" y2="176.661" gradientUnits="userSpaceOnUse">
<stop stop-color="#EECB50"/>
<stop offset="1" stop-color="#70D7E6"/>
</linearGradient>
<linearGradient id="paint5_linear_760_1491" x1="272.096" y1="177" x2="215.647" y2="265.345" gradientUnits="userSpaceOnUse">
<stop stop-color="#EECB50"/>
<stop offset="1" stop-color="#70D7E6"/>
</linearGradient>
<linearGradient id="paint6_linear_760_1491" x1="284.996" y1="98" x2="239.696" y2="149.002" gradientUnits="userSpaceOnUse">
<stop stop-color="#EECB50"/>
<stop offset="1" stop-color="#70D7E6"/>
</linearGradient>
<linearGradient id="paint7_linear_760_1491" x1="60.366" y1="144" x2="40.4286" y2="166.112" gradientUnits="userSpaceOnUse">
<stop stop-color="#EECB50"/>
<stop offset="1" stop-color="#70D7E6"/>
</linearGradient>
<linearGradient id="paint8_linear_760_1491" x1="168.826" y1="91" x2="151.639" y2="110.062" gradientUnits="userSpaceOnUse">
<stop stop-color="#EECB50"/>
<stop offset="1" stop-color="#70D7E6"/>
</linearGradient>
<linearGradient id="paint9_linear_760_1491" x1="186.592" y1="211" x2="136.959" y2="266.047" gradientUnits="userSpaceOnUse">
<stop stop-color="#EECB50"/>
<stop offset="1" stop-color="#70D7E6"/>
</linearGradient>
<linearGradient id="paint10_linear_760_1491" x1="124.682" y1="129" x2="102.375" y2="153.74" gradientUnits="userSpaceOnUse">
<stop stop-color="#EECB50"/>
<stop offset="1" stop-color="#70D7E6"/>
</linearGradient>
<linearGradient id="paint11_linear_760_1491" x1="295.232" y1="-5.00001" x2="252.094" y2="42.8443" gradientUnits="userSpaceOnUse">
<stop stop-color="#EECB50"/>
<stop offset="1" stop-color="#70D7E6"/>
</linearGradient>
<clipPath id="clip0_760_1491">
<rect width="320" height="320" fill="white"/>
</clipPath>
</defs>
</svg>
