<svg width="251" height="250" viewBox="0 0 251 250" fill="none" xmlns="http://www.w3.org/2000/svg">
<rect width="250" height="250" transform="translate(0.333252)" fill="#1A16B8"/>
<path d="M234.129 124.721L209.386 112.352V120.213H146.698V120.228L146.69 120.213H128.541L141.884 96.3778C141.967 96.2293 142.123 96.1387 142.292 96.1387H160.673C162.599 100.66 167.083 103.831 172.309 103.831C179.291 103.831 184.95 98.1726 184.95 91.1925C184.95 84.2123 179.291 78.5537 172.309 78.5537C166.914 78.5537 162.312 81.9318 160.497 86.6867H142.292C138.704 86.6867 135.389 88.6325 133.636 91.7613L117.707 120.213H109.689V120.336H109.674L93.7119 90.1101C91.9898 86.8503 88.6288 84.824 84.9405 84.824H72.0604V77.5469H47.8535V101.747H72.0604V94.276H84.9405C85.1142 94.276 85.2728 94.3691 85.3534 94.5227L98.9838 120.336H41.28V112.911L16.5369 125.28L41.28 137.649V129.788H103.969V129.773L103.976 129.788H122.126L108.782 153.623C108.699 153.772 108.543 153.862 108.374 153.862H89.9934C88.0674 149.342 83.5835 146.17 78.3569 146.17C71.3756 146.17 65.716 151.829 65.716 158.809C65.716 165.789 71.3756 171.447 78.3569 171.447C83.7522 171.447 88.3544 168.069 90.1696 163.314H108.374C111.962 163.314 115.278 161.369 117.03 158.24L132.959 129.788H140.978V129.665H140.993L156.954 159.891C158.676 163.151 162.037 165.177 165.726 165.177H178.606V172.454H202.813V148.254H178.606V155.725H165.726C165.552 155.725 165.393 155.632 165.313 155.478L151.683 129.665H209.386V137.091L234.129 124.721ZM172.184 84.0361C176.076 84.0361 179.23 87.1902 179.23 91.0817C179.23 94.9732 176.076 98.1247 172.184 98.1247C168.291 98.1247 165.139 94.9707 165.139 91.0817C165.139 87.1927 168.294 84.0361 172.184 84.0361Z" fill="url(#paint0_linear_760_1396)"/>
<path d="M210.998 99.3384C213.819 99.3384 216.107 97.0512 216.107 94.2296C216.107 91.4081 213.819 89.1208 210.998 89.1208C208.176 89.1208 205.889 91.4081 205.889 94.2296C205.889 97.0512 208.176 99.3384 210.998 99.3384Z" fill="#70D7E6"/>
<path d="M37.1549 163.69C39.9764 163.69 42.2637 161.403 42.2637 158.581C42.2637 155.76 39.9764 153.473 37.1549 153.473C34.3334 153.473 32.0461 155.76 32.0461 158.581C32.0461 161.403 34.3334 163.69 37.1549 163.69Z" fill="#70D7E6"/>
<defs>
<linearGradient id="paint0_linear_760_1396" x1="125.333" y1="77.5469" x2="125.333" y2="172.454" gradientUnits="userSpaceOnUse">
<stop stop-color="#EECB50"/>
<stop offset="1" stop-color="#70D7E6"/>
</linearGradient>
</defs>
</svg>
