<svg width="250" height="250" viewBox="0 0 250 250" fill="none" xmlns="http://www.w3.org/2000/svg">
<rect width="250" height="250" fill="#EECB50"/>
<path fill-rule="evenodd" clip-rule="evenodd" d="M180.687 73.1757C180.991 76.2393 178.463 78.7421 175.381 78.7421H155.151C152.069 78.7421 149.636 76.2131 148.941 73.2141C146.434 62.4085 136.737 54.3549 125.156 54.3549C113.575 54.3549 103.878 62.4085 101.371 73.2141C100.675 76.2131 98.2426 78.7421 95.1606 78.7421H74.9312C71.8491 78.7421 69.3213 76.2393 69.6254 73.1757C72.4217 45.0037 96.2163 23 125.156 23C154.095 23 177.89 45.0037 180.687 73.1757Z" fill="url(#paint0_linear_760_1411)"/>
<path d="M51 74.1676V222H199V74.1676H51Z" fill="#EECB50"/>
<path fill-rule="evenodd" clip-rule="evenodd" d="M51 222V74.1676H199V222H51ZM125 185.022C125.011 164.619 141.572 148.083 162 148.083C141.566 148.083 125 131.537 125 111.125C125 131.537 108.435 148.083 88 148.083C108.428 148.083 124.989 164.619 125 185.022ZM88 167.302C97.8086 167.302 105.76 175.244 105.76 185.042C105.76 194.839 97.8086 202.781 88 202.781C78.1914 202.781 70.24 194.839 70.24 185.042C70.24 175.244 78.1914 167.302 88 167.302ZM105.76 111.125C105.76 120.923 97.8086 128.865 88 128.865C78.1914 128.865 70.24 120.923 70.24 111.125C70.24 101.328 78.1914 93.3854 88 93.3854C97.8086 93.3854 105.76 101.328 105.76 111.125ZM144.24 185.042C144.24 175.244 152.191 167.302 162 167.302C171.809 167.302 179.76 175.244 179.76 185.042C179.76 194.839 171.809 202.781 162 202.781C152.191 202.781 144.24 194.839 144.24 185.042ZM144.24 111.125C144.24 120.923 152.191 128.865 162 128.865C171.809 128.865 179.76 120.923 179.76 111.125C179.76 101.328 171.809 93.3854 162 93.3854C152.191 93.3854 144.24 101.328 144.24 111.125Z" fill="url(#paint1_linear_760_1411)"/>
<defs>
<linearGradient id="paint0_linear_760_1411" x1="125.013" y1="23.3701" x2="125.013" y2="312.22" gradientUnits="userSpaceOnUse">
<stop offset="0.0509862" stop-color="#1A16B8"/>
<stop offset="1" stop-color="#55B8FF"/>
</linearGradient>
<linearGradient id="paint1_linear_760_1411" x1="121.499" y1="71.5765" x2="121.499" y2="217.48" gradientUnits="userSpaceOnUse">
<stop stop-color="#1A16B8"/>
<stop offset="1" stop-color="#55B8FF"/>
</linearGradient>
</defs>
</svg>
