<svg width="251" height="250" viewBox="0 0 251 250" fill="none" xmlns="http://www.w3.org/2000/svg">
<rect width="250" height="250" transform="translate(0.666748)" fill="#55B8FF"/>
<path fill-rule="evenodd" clip-rule="evenodd" d="M125.727 67.4C119.454 67.4 114.369 72.485 114.369 78.7577H85.1638C85.1638 56.3552 103.325 38.1943 125.727 38.1943C148.13 38.1943 166.291 56.3552 166.291 78.7577C166.291 101.16 148.13 119.321 125.727 119.321V90.1154C132 90.1154 137.085 85.0304 137.085 78.7577C137.085 72.485 132 67.4 125.727 67.4ZM183.327 125C183.327 118.727 178.242 113.642 171.969 113.642V84.4365C194.372 84.4365 212.533 102.597 212.533 125C212.533 147.403 194.372 165.563 171.969 165.563C149.567 165.563 131.406 147.403 131.406 125H160.612C160.612 131.272 165.697 136.358 171.969 136.358C178.242 136.358 183.327 131.272 183.327 125ZM79.485 136.358C73.2123 136.358 68.1273 131.272 68.1273 125C68.1273 118.727 73.2123 113.642 79.485 113.642C85.7577 113.642 90.8427 118.727 90.8427 125H120.048C120.048 102.597 101.888 84.4365 79.485 84.4365C57.0825 84.4365 38.9216 102.597 38.9216 125C38.9216 147.403 57.0825 165.563 79.485 165.563V136.358ZM125.727 182.6C132 182.6 137.085 177.515 137.085 171.242H166.291C166.291 193.645 148.13 211.805 125.727 211.805C103.325 211.805 85.1638 193.645 85.1638 171.242C85.1638 148.839 103.325 130.679 125.727 130.679V159.884C119.454 159.884 114.369 164.97 114.369 171.242C114.369 177.515 119.454 182.6 125.727 182.6Z" fill="url(#paint0_linear_760_1405)"/>
<defs>
<linearGradient id="paint0_linear_760_1405" x1="175.641" y1="65.9721" x2="175.641" y2="255.822" gradientUnits="userSpaceOnUse">
<stop offset="0.0509862" stop-color="#1A16B8"/>
<stop offset="1" stop-color="#EECB50"/>
</linearGradient>
</defs>
</svg>
