<svg width="143" height="36" viewBox="0 0 143 36" fill="none" xmlns="http://www.w3.org/2000/svg">
<g clip-path="url(#clip0_551_781)">
<path d="M36.2261 17.0637C36.2465 16.6681 36.1613 16.5317 35.7214 16.5351C32.0556 16.5556 28.3931 16.5488 24.7273 16.5454C24.0044 16.5454 23.3087 16.4021 22.6335 16.1259C22.2755 15.9793 22.2857 15.8804 22.5483 15.6212C24.2533 13.9435 25.9481 12.2487 27.6395 10.5539C28.3181 9.87188 28.3727 8.95458 27.7827 8.35781C27.1621 7.73036 26.2721 7.78152 25.5594 8.49422C24.0453 10.0015 22.5346 11.5087 21.024 13.0194C20.758 13.2854 20.5125 13.5752 20.226 13.8923C19.9089 13.2308 19.7077 12.6477 19.6907 12.01C19.5918 11.8565 19.6395 11.686 19.6395 11.5224C19.6395 7.83608 19.6327 4.1498 19.6463 0.463527C19.6463 0.122521 19.5849 -0.0172912 19.203 0.00316916C18.5346 0.0372698 17.8594 0.0372698 17.1911 0.00316916C16.816 -0.0138811 16.7444 0.115701 16.7444 0.460117C16.758 4.1157 16.7546 7.77128 16.7512 11.4269C16.7512 11.5906 16.8057 11.7611 16.6932 11.9145C16.6932 12.5931 16.4852 13.2137 16.209 13.773C15.1723 12.7738 14.1391 11.7849 13.1195 10.7824C12.3386 10.0117 11.5849 9.21374 10.8006 8.44989C10.1834 7.84972 9.2047 7.85995 8.65909 8.43966C8.10325 9.0296 8.14076 9.90939 8.74775 10.53C9.10922 10.8983 9.4741 11.27 9.83897 11.6383C11.1655 12.9819 12.492 14.3288 13.8288 15.6622C14.0913 15.9213 14.047 16.0032 13.7264 16.1328C13.0683 16.4021 12.3897 16.542 11.6804 16.5454C9.77418 16.5488 7.86454 16.542 5.95832 16.5454C4.03504 16.5488 2.11176 16.559 0.191895 16.5658C0.195305 17.5309 0.202125 18.4959 0.205535 19.461C0.372628 19.4644 0.539721 19.4712 0.706815 19.4712C4.42038 19.4712 8.13053 19.4746 11.8407 19.4712C12.5943 19.4712 13.3036 19.6451 14.0231 20.01C13.4025 20.6272 12.8057 21.2171 12.2158 21.8071C11.0154 23.0006 9.8151 24.1941 8.62158 25.3945C8.09643 25.923 7.99413 26.646 8.33172 27.2359C8.64545 27.7883 9.28313 28.0509 9.94468 27.9077C10.2891 27.8327 10.538 27.6178 10.7802 27.3757C12.5466 25.6093 14.3164 23.8463 16.1067 22.0594C16.5739 22.8403 16.7273 23.6656 16.7273 24.5283C16.7273 28.1975 16.7341 31.8702 16.7205 35.5394C16.7205 35.894 16.7989 36.0168 17.1706 35.9998C17.8253 35.9691 18.4835 35.9657 19.1382 35.9998C19.544 36.0202 19.677 35.9179 19.6736 35.4848C19.6531 31.7815 19.6634 28.0816 19.6634 24.3783C19.6634 23.6008 19.8271 22.8642 20.2533 22.0901C20.3488 22.2265 20.3999 22.3254 20.475 22.4004C22.1971 24.1498 23.9157 25.8992 25.648 27.6383C26.2823 28.276 27.186 28.2998 27.7759 27.727C28.3727 27.1438 28.3727 26.2538 27.7452 25.6025C26.7256 24.5522 25.6924 23.5155 24.6625 22.4755C23.8782 21.6775 23.0939 20.8796 22.2755 20.0475C23.0257 19.6622 23.7589 19.4678 24.5568 19.4712C28.2977 19.4746 32.0385 19.4712 35.7793 19.4814C36.1408 19.4814 36.2431 19.3859 36.2261 19.0279C36.1988 18.3732 36.1954 17.7184 36.2261 17.0637ZM18.1936 19.8293C17.6685 19.1097 17.0649 18.5164 16.3624 17.9981C17.0717 17.4661 17.6583 16.8761 18.1936 16.1737C18.7256 16.883 19.3053 17.4763 20.018 17.9878C19.3258 18.5232 18.7086 19.1029 18.1936 19.8293Z" fill="#1A16B8"/>
<path d="M54.0949 17.524C54.0983 16.5487 53.9926 15.5769 53.7846 14.6255C53.4708 13.1796 52.9354 11.8395 51.8374 10.7755C49.5152 8.52829 43.9738 8.49419 42.1699 13.1285C41.3208 15.3041 41.1571 17.5615 41.3856 19.8599C41.4503 20.5283 41.5731 21.1864 41.7504 21.8309C42.5654 24.7636 44.3625 26.2879 47.4077 26.472C50.5075 26.6562 52.8195 25.4251 53.7164 21.9639C54.0949 20.5044 54.1528 19.021 54.0949 17.524ZM45.2219 18.1106C45.2526 16.7602 45.2764 15.4371 45.6515 14.1515C45.7845 13.6979 45.9619 13.2614 46.2483 12.8795C46.7394 12.2282 47.3941 11.9895 48.1818 12.1395C48.9934 12.2896 49.3412 12.9068 49.6311 13.5888C49.6959 13.7423 49.6106 13.8139 49.522 13.8991C48.1341 15.2904 46.7428 16.6851 45.3515 18.073C45.3344 18.0935 45.2969 18.0901 45.2219 18.1106ZM49.6516 22.2572C49.3481 23.079 48.8741 23.7474 47.8851 23.8156C47.0019 23.8736 46.0301 23.154 45.8357 22.3015C45.8118 22.1856 45.8289 22.0969 45.9175 22.0185C45.9619 21.9776 46.0028 21.9332 46.0471 21.8889C47.3975 20.559 48.7513 19.2256 50.1494 17.848C50.1801 19.3757 50.1733 20.8488 49.6516 22.2572Z" fill="#1A16B8"/>
<path d="M77.4676 26.3596C75.8751 26.3392 74.1769 26.0698 72.7139 24.9751C71.3738 23.9726 70.7122 22.5642 70.3371 20.9854C70.2894 20.791 70.3678 20.7467 70.5247 20.716C71.6023 20.5182 72.6833 20.3238 73.7574 20.1158C73.9791 20.0715 74.0439 20.1363 74.078 20.3511C74.1325 20.7262 74.2382 21.0911 74.3883 21.4423C75.0567 23.0144 76.3695 23.4918 77.8972 23.4713C78.3985 23.4645 78.8964 23.3792 79.3602 23.1542C80.5639 22.5676 80.8197 21.0877 79.8785 20.1397C79.517 19.7748 79.0737 19.5497 78.5929 19.3861C77.338 18.9564 76.0592 18.6222 74.7804 18.2914C73.7063 18.0118 72.6969 17.5787 71.9399 16.7262C70.0916 14.6495 70.777 11.1985 73.3857 9.96065C75.899 8.77054 78.5179 8.72962 81.0857 9.86517C82.6611 10.5608 83.517 11.8805 83.9501 13.5037C84.0047 13.7151 83.9842 13.8208 83.7353 13.8686C82.6577 14.0732 81.5835 14.2982 80.5128 14.5267C80.3252 14.5676 80.2911 14.4892 80.2434 14.3358C79.6159 12.3682 77.9825 11.5702 76.0149 12.2624C75.3738 12.4875 74.951 12.8967 74.8725 13.5992C74.7941 14.2778 75.1862 14.6802 75.7046 14.9939C76.4753 15.4577 77.3414 15.6316 78.2042 15.826C79.4727 16.1124 80.6935 16.5318 81.8359 17.1525C83.7148 18.1721 84.598 19.7475 84.4105 21.8856C84.2434 23.8157 82.9987 25.2514 80.9834 25.8925C79.8955 26.2369 78.777 26.3494 77.471 26.3596H77.4676Z" fill="#1A16B8"/>
<path d="M127.156 17.1422C126.354 14.4858 124.022 13.2513 121.348 14.0152C120.318 14.3084 119.5 14.912 118.794 15.8668C118.794 15.3315 118.774 14.9325 118.801 14.5403C118.825 14.1993 118.746 14.0697 118.368 14.0834C117.45 14.1141 116.533 14.1141 115.619 14.0834C115.227 14.0697 115.149 14.1891 115.149 14.5608C115.162 18.704 115.159 22.8472 115.159 26.9905C115.159 28.0714 115.173 29.1524 115.152 30.2334C115.145 30.5608 115.248 30.646 115.565 30.6324C116.236 30.6119 116.908 30.6358 117.58 30.6222C117.972 30.6154 118.484 30.7961 118.722 30.5472C118.958 30.3016 118.791 29.7935 118.791 29.4014C118.801 27.8396 118.794 26.2778 118.794 24.6068C119.701 25.7287 120.826 26.2402 122.143 26.3016C124.404 26.4073 126.221 25.531 127.016 23.3315C127.752 21.2957 127.776 19.2087 127.156 17.1422ZM123.497 21.8617C123.138 23.0416 122.214 23.652 121.045 23.5531C119.82 23.4474 119.053 22.6938 118.872 21.415C118.815 20.9922 118.77 20.5693 118.797 20.1908C118.78 19.5599 118.821 18.9836 118.971 18.421C119.261 17.3332 120.035 16.7432 121.215 16.6955C122.323 16.6512 123.132 17.1729 123.493 18.2266C123.909 19.4304 123.861 20.658 123.497 21.8617Z" fill="#1A16B8"/>
<path d="M138.504 22.3596C138.313 22.3357 138.269 22.4414 138.214 22.5676C137.938 23.1916 137.423 23.5122 136.789 23.6724C135.913 23.8941 135.06 23.7782 134.245 23.4133C133.467 23.0689 133.017 22.4516 132.803 21.6366C132.693 21.224 132.796 21.1354 133.219 21.1388C136.011 21.1592 138.808 21.1422 141.6 21.1558C141.969 21.1592 142.061 21.0569 142.051 20.7023C142.037 20.1533 142.013 19.6077 141.962 19.062C141.73 16.5795 140.359 14.8472 138.037 14.1516C136.533 13.7014 134.999 13.6639 133.471 14.0356C131.919 14.4107 130.658 15.2223 129.907 16.6648C129.021 18.3732 128.758 20.1805 129.259 22.0595C129.696 23.6997 130.675 24.9308 132.257 25.5787C134.528 26.513 136.864 26.5676 139.183 25.7662C140.635 25.2649 141.658 24.2658 142.262 22.7961C140.983 22.6494 139.742 22.513 138.504 22.3596ZM132.697 18.5437C132.843 17.4832 133.577 16.7091 134.75 16.4227C136.393 16.0203 137.969 16.8455 138.351 18.3118C138.442 18.6687 138.311 18.8472 137.959 18.8472H135.531C134.678 18.8472 133.822 18.8404 132.966 18.8506C132.717 18.8574 132.663 18.7961 132.697 18.5437Z" fill="#1A16B8"/>
<path d="M111.759 15.7407C110.456 14.2709 108.707 13.8856 106.845 13.8242C106.664 13.8242 106.48 13.8072 106.296 13.8242C104.635 13.9777 103.084 14.4005 101.887 15.6623C100.878 16.7296 100.468 18.0527 100.305 19.4679C100.103 21.1968 100.646 23.976 102.971 25.282C104.523 26.1516 106.194 26.4483 107.957 26.2027C109.294 26.0186 110.549 25.6196 111.544 24.6546C113.768 22.5062 113.877 18.1311 111.759 15.7407ZM109.358 21.4014C109.062 22.7995 108.213 23.5258 106.821 23.5531C105.488 23.5838 104.571 22.8916 104.233 21.5719C103.974 20.5659 103.974 19.5531 104.243 18.5472C104.56 17.3468 105.399 16.7023 106.63 16.6853C107.913 16.6682 108.864 17.3468 109.242 18.5608C109.413 19.0996 109.464 19.6588 109.478 20.2727C109.447 20.6171 109.44 21.0126 109.358 21.4014Z" fill="#1A16B8"/>
<path d="M98.9986 21.8992C98.395 23.8906 97.2628 25.3774 95.2202 25.9674C93.181 26.5539 91.1315 26.4516 89.1605 25.6809C87.0974 24.8762 86.1597 23.2155 85.8834 21.1046C85.7402 20.0168 85.8425 18.9495 86.1528 17.8992C86.6678 16.1396 87.7897 14.9222 89.5254 14.3288C91.9295 13.507 94.2893 13.5309 96.5126 14.9256C97.5118 15.5531 98.1699 16.4772 98.6644 17.5309C98.7769 17.7696 98.7258 17.8344 98.4734 17.8719C97.4333 18.0322 96.3967 18.2163 95.36 18.3834C95.1997 18.4107 95.0531 18.4414 94.9406 18.2299C94.337 17.0739 93.3788 16.5386 92.0795 16.7568C90.7905 16.975 90.0608 17.8105 89.7743 19.0518C89.5493 20.0202 89.5629 20.9887 89.921 21.9265C90.3302 22.9972 91.3055 23.5837 92.5774 23.5531C93.7812 23.5224 94.6166 22.912 94.9542 21.7866C95.0258 21.5513 95.094 21.4354 95.3805 21.4797C95.9841 21.5718 96.5911 21.6161 97.198 21.6843C97.788 21.7525 98.3745 21.8242 99.002 21.8992H98.9986Z" fill="#1A16B8"/>
<path d="M68.8706 26.1755C67.4998 26.1755 66.221 26.1686 64.9388 26.1823C64.7069 26.1823 64.6251 26.0493 64.5262 25.8924C63.7385 24.6443 62.9473 23.3997 62.1528 22.155C62.0641 22.0186 62.013 21.8481 61.8186 21.756C61.007 23.0041 60.1647 24.2351 59.4009 25.5105C59.0871 26.0322 58.7359 26.2232 58.1323 26.1925C57.0513 26.1414 55.9669 26.1789 54.8621 26.1789C54.8518 25.9743 55.0019 25.872 55.094 25.7492C56.4 24.0067 57.6992 22.2573 59.0258 20.5284C59.2576 20.2249 59.2338 20.0442 59.0223 19.7509C57.7606 18.0152 56.5194 16.2624 55.2713 14.5131C55.2542 14.4892 55.244 14.4619 55.2304 14.4312C55.2917 14.2982 55.4145 14.3596 55.5066 14.3596C56.591 14.3562 57.6754 14.3664 58.7564 14.3494C59.0189 14.346 59.1656 14.4346 59.302 14.6563C60.0658 15.918 60.8467 17.1729 61.6208 18.4278C61.8766 18.8438 61.88 18.8438 62.146 18.4142C62.9064 17.1831 63.6771 15.9589 64.4171 14.7177C64.591 14.4244 64.7819 14.3391 65.1093 14.346C66.2449 14.3664 67.3838 14.3528 68.6046 14.3528C67.7214 15.5872 66.8894 16.7432 66.0573 17.9027C65.597 18.5472 65.1468 19.1985 64.6626 19.8259C64.4409 20.1124 64.4239 20.3033 64.6626 20.6068C65.9687 22.2914 67.2474 23.9998 68.5364 25.6981C68.6353 25.8276 68.7274 25.964 68.8808 26.1755H68.8706Z" fill="#1A16B8"/>
</g>
<defs>
<clipPath id="clip0_551_781">
<rect width="142.07" height="36" fill="white" transform="translate(0.191895)"/>
</clipPath>
</defs>
</svg>
