<svg width="262" height="36" viewBox="0 0 262 36" fill="none" xmlns="http://www.w3.org/2000/svg">
<g clip-path="url(#clip0_551_765)">
<path d="M46.085 17.2149C45.7118 13.2793 44.4347 1.19522 44.4166 0.745958C44.3961 0.21967 43.6442 -0.450413 43.6442 0.522577C43.6442 1.19519 43.0367 8.92006 43.0367 14.509C42.9723 14.4139 42.9336 14.3626 42.9336 14.3626H41.5433C39.0458 8.23973 32.4108 3.79581 24.527 3.52626H24.3494H24.1743C24.0404 3.52626 23.9168 3.52626 23.7674 3.52626C23.6284 3.52626 23.4946 3.52626 23.3606 3.52626H23.1856H23.0131C15.1268 3.78298 8.4892 8.23973 5.99173 14.3626H4.70438L4.60396 14.509C4.60396 8.92006 3.99375 1.19519 3.99375 0.522577C3.99375 -0.450413 3.24194 0.21967 3.22134 0.745958C3.20589 1.19522 1.934 13.2793 1.55551 17.2149C1.00744 17.9441 0.714397 18.8324 0.721311 19.7436C0.721311 21.1993 1.68682 22.7499 2.87376 22.7499C3.1755 23.5906 3.58669 24.3882 4.09675 25.122H6.00458C8.57929 31.4426 15.5671 35.9738 23.7701 35.9738C31.9731 35.9738 38.9608 31.4426 41.5356 25.122H43.5361C44.045 24.3874 44.4561 23.59 44.759 22.7499C45.946 22.7499 46.909 21.2096 46.909 19.7436C46.9183 18.8337 46.6289 17.9457 46.085 17.2149ZM23.7674 34.8776C15.2504 34.8776 8.34759 29.3477 8.34759 22.5239C8.34759 17.4203 12.2096 13.0405 17.7169 11.1562L18.7236 13.6413C18.8102 13.8545 18.9587 14.0369 19.15 14.1654C19.3412 14.294 19.5667 14.3626 19.7973 14.3626H27.7634C27.9941 14.3626 28.2195 14.294 28.4108 14.1654C28.602 14.0369 28.7505 13.8545 28.8371 13.6413L29.8413 11.1664C35.3356 13.0559 39.1849 17.428 39.1849 22.5239C39.1849 29.3477 32.2821 34.8776 23.7674 34.8776Z" fill="#1A16B8"/>
<path d="M28.8854 18.8862C28.4006 18.8862 27.9357 19.0783 27.5928 19.4201C27.2501 19.762 27.0574 20.2256 27.0574 20.709V25.1298C27.0574 25.6133 27.2501 26.0769 27.5928 26.4187C27.9357 26.7606 28.4006 26.9526 28.8854 26.9526C29.3703 26.9526 29.8353 26.7606 30.178 26.4187C30.5209 26.0769 30.7135 25.6133 30.7135 25.1298V20.709C30.7135 20.2256 30.5209 19.762 30.178 19.4201C29.8353 19.0783 29.3703 18.8862 28.8854 18.8862Z" fill="#1A16B8"/>
<path d="M18.6467 18.8862C18.1618 18.8862 17.6969 19.0783 17.3541 19.4201C17.0112 19.762 16.8186 20.2256 16.8186 20.709V25.1298C16.8186 25.6133 17.0112 26.0769 17.3541 26.4187C17.6969 26.7606 18.1618 26.9526 18.6467 26.9526C19.1315 26.9526 19.5964 26.7606 19.9393 26.4187C20.2821 26.0769 20.4747 25.6133 20.4747 25.1298V20.709C20.4747 20.2256 20.2821 19.762 19.9393 19.4201C19.5964 19.0783 19.1315 18.8862 18.6467 18.8862Z" fill="#1A16B8"/>
<path d="M23.7926 31.0577C22.7318 31.0577 21.8667 30.2875 21.8667 29.3452H22.4897C22.4897 29.9485 23.0743 30.4389 23.7926 30.4389C24.5109 30.4389 25.0979 29.9485 25.0979 29.3452H25.721C25.721 30.29 24.856 31.0577 23.7926 31.0577Z" fill="#1A16B8" stroke="#1A16B8" stroke-width="0.122382" stroke-miterlimit="10"/>
<path d="M57.114 18.4943C57.114 10.5287 62.1612 4.85767 70.3762 4.85767C77.2336 4.85767 81.9466 8.83912 83.0753 15.5639H78.4472C77.6193 11.4311 74.5672 8.91349 70.3839 8.91349C65.0718 8.91349 61.7549 12.6336 61.7549 18.4943C61.7549 24.5063 65.0718 28.1879 70.3839 28.1879C74.6418 28.1879 77.6193 25.7446 78.4472 21.576H83.0753C81.8694 28.4134 77.2721 32.2822 70.3762 32.2822C62.2743 32.277 57.114 26.7188 57.114 18.4943Z" fill="#1A16B8"/>
<path d="M108.318 31.7165V3.53833H112.764V31.7165H108.318Z" fill="#1A16B8"/>
<path d="M116.685 31.7165V3.53833H121.131V31.7165H116.685Z" fill="#1A16B8"/>
<path d="M124.002 26.1867C124.041 21.5283 128.674 20.5463 132.554 20.1003C135.57 19.7619 137.791 19.6491 137.83 18.0724C137.791 16.1188 136.288 14.842 133.716 14.842C131.078 14.842 129.194 16.2674 128.931 18.3364H124.447C124.861 14.1267 128.628 11.1963 133.791 11.1963C139.19 11.1963 142.155 14.1267 142.155 18.3748V27.3916C142.155 27.9557 142.459 28.2555 143.135 28.2555H144.228V31.7142H142.119C140.083 31.7142 138.841 30.8861 138.502 29.3837C138.416 29.1649 138.354 28.9381 138.313 28.7068C137.143 30.8502 134.958 32.1269 131.57 32.1269C126.972 32.1294 123.956 29.9118 124.002 26.1867ZM137.83 24.2331V21.454C137.077 22.6179 135.156 22.8819 133.046 23.1434C130.558 23.4459 128.486 23.7819 128.486 25.8867C128.486 27.6147 129.88 28.6298 132.479 28.6298C135.524 28.635 137.823 26.907 137.823 24.2381L137.83 24.2331Z" fill="#1A16B8"/>
<path d="M150.486 28.1837L150.072 31.7165H146.493V3.53833H150.938V14.3933C152.371 12.4396 154.744 11.1988 157.57 11.1988C162.846 11.1988 166.569 15.4828 166.569 21.6435C166.569 27.917 162.838 32.2754 157.526 32.2754C154.366 32.278 151.728 30.7013 150.486 28.1837ZM162.016 21.6461C162.016 17.7005 159.794 14.9599 156.554 14.9599C153.276 14.9599 150.938 17.6646 150.938 21.5334C150.938 25.6353 153.276 28.522 156.554 28.522C159.791 28.522 162.013 25.7046 162.013 21.6461H162.016Z" fill="#1A16B8"/>
<path d="M177.653 31.7178V5.42139H182.175V27.6645H195.627V31.723L177.653 31.7178Z" fill="#1A16B8"/>
<path d="M197.395 26.1867C197.435 21.5283 202.07 20.5463 205.95 20.1003C208.964 19.7619 211.188 19.6491 211.226 18.0724C211.188 16.1188 209.683 14.842 207.112 14.842C204.475 14.842 202.592 16.2674 202.327 18.3364H197.849C198.263 14.1267 202.032 11.1963 207.195 11.1963C212.581 11.1963 215.558 14.1267 215.558 18.3748V27.3916C215.558 27.9557 215.859 28.2555 216.538 28.2555H217.632V31.7142H215.52C213.486 31.7142 212.242 30.8861 211.902 29.3837C211.819 29.1646 211.755 28.9379 211.715 28.7068C210.547 30.8502 208.372 32.1269 204.97 32.1269C200.369 32.1294 197.359 29.9118 197.395 26.1867ZM211.226 24.2331V21.454C210.473 22.6179 208.55 22.8819 206.439 23.1434C203.953 23.4459 201.879 23.7819 201.879 25.8867C201.879 27.6147 203.276 28.6298 205.875 28.6298C208.928 28.635 211.226 26.907 211.226 24.2381V24.2331Z" fill="#1A16B8"/>
<path d="M219.817 31.7157V11.803H223.396L223.774 14.7334C225.016 12.667 227.541 11.2004 230.519 11.2004C234.776 11.2004 237.563 14.0565 237.563 18.5277V31.7157H233.118V18.7508C233.118 16.5331 231.647 15.0693 229.16 15.0693C226.26 15.0693 224.301 17.0586 224.276 19.6506V31.7002L219.817 31.7157Z" fill="#1A16B8"/>
<path d="M240.013 21.6461C240.013 15.4931 243.819 11.2014 249.131 11.2014C251.959 11.2014 254.294 12.3653 255.687 14.2445V3.53833H260.135V31.7165H256.554L256.14 28.1837C255.011 30.7013 252.522 32.2857 249.282 32.2857C243.894 32.278 240.013 27.9196 240.013 21.6461ZM255.698 21.6077C255.698 17.6646 253.437 14.9214 250.198 14.9214C246.881 14.9214 244.582 17.7005 244.582 21.6846C244.582 25.6686 246.845 28.5221 250.123 28.5221C253.401 28.5221 255.687 25.6738 255.687 21.6077H255.698Z" fill="#1A16B8"/>
<path d="M174.259 27.6304C174.26 27.3737 174.122 27.1362 173.9 27.008L171.393 25.5646C171.17 25.4362 170.895 25.4369 170.673 25.5661L168.149 27.0312C167.928 27.1592 167.792 27.3943 167.791 27.6489L167.78 30.5607C167.78 30.8176 167.917 31.0551 168.139 31.1833L170.646 32.6267C170.87 32.755 171.144 32.7544 171.366 32.6253L173.89 31.1606C174.112 31.0324 174.248 30.7973 174.248 30.5426L174.259 27.6304Z" fill="#1A16B8"/>
<path fill-rule="evenodd" clip-rule="evenodd" d="M104.206 15.451C104.813 15.8005 105.186 16.4476 105.183 17.1474L105.152 26.302C105.15 26.9959 104.778 27.637 104.177 27.9861L96.2414 32.5906C95.6348 32.9425 94.8862 32.9441 94.2791 32.5945L86.3945 28.0555C85.7872 27.7059 85.4143 27.0586 85.4168 26.3587L85.4498 17.205C85.4523 16.5113 85.8234 15.8705 86.4247 15.5215L94.3585 10.9161C94.9651 10.5639 95.7138 10.5624 96.3211 10.912L104.206 15.451ZM98.3434 16.4992C100.21 17.5735 101.356 19.5798 101.349 21.7308C101.341 23.8849 100.174 25.9006 98.3069 26.984C96.4424 28.0659 94.1266 28.0792 92.2604 27.0048C90.3939 25.9303 89.2475 23.9235 89.2552 21.7721C89.263 19.6188 90.4297 17.6039 92.296 16.5205C94.1607 15.4381 96.4769 15.4246 98.3434 16.4992Z" fill="#1A16B8"/>
</g>
<defs>
<clipPath id="clip0_551_765">
<rect width="260.471" height="36" fill="white" transform="translate(0.721191)"/>
</clipPath>
</defs>
</svg>
