<svg width="91" height="36" viewBox="0 0 91 36" fill="none" xmlns="http://www.w3.org/2000/svg">
<g clip-path="url(#clip0_551_757)">
<path d="M17.0498 25.714C24.1212 25.714 29.9069 19.9283 29.9069 12.8569C29.9069 9.89976 29.0069 7.32833 27.3355 5.14261C28.8783 3.98547 29.9069 2.0569 29.9069 -0.000244141H17.0498C9.97834 -0.000244141 4.19263 5.78547 4.19263 12.8569C4.19263 19.9283 9.97834 25.714 17.0498 25.714ZM17.0498 5.91404C20.9069 5.91404 23.9926 8.99976 23.9926 12.8569C23.9926 16.714 20.9069 19.7998 17.0498 19.7998C13.1926 19.7998 10.1069 16.714 10.1069 12.8569C10.1069 8.99976 13.1926 5.91404 17.0498 5.91404Z" fill="#1A16B8"/>
<path d="M33.5068 29.1857C32.7353 27.2571 31.1925 25.8428 29.1353 25.2C25.7925 28.4142 21.421 30.0857 17.1782 30.0857C12.8068 30.0857 8.5639 28.4142 5.22104 25.2C3.1639 25.8428 1.62104 27.2571 0.849609 29.1857C5.22104 33.6857 11.1353 36 17.0496 36C22.9639 36 28.8782 33.6857 33.5068 29.1857Z" fill="#1A16B8"/>
<path d="M73.4921 4.24268C71.8207 4.24268 70.6636 5.39982 70.6636 7.07125C70.6636 8.74268 71.8207 9.89982 73.4921 9.89982C75.1636 9.89982 76.3207 8.74268 76.3207 7.07125C76.3207 5.39982 75.1636 4.24268 73.4921 4.24268Z" fill="#1A16B8"/>
<path d="M43.664 30.4715C45.2262 30.4715 46.4926 29.2051 46.4926 27.6428C46.4926 26.0806 45.2262 24.8142 43.664 24.8142C42.1019 24.8142 40.8354 26.0806 40.8354 27.6428C40.8354 29.2051 42.1019 30.4715 43.664 30.4715Z" fill="#1A16B8"/>
<path d="M59.8641 11.7C58.3212 11.7 56.9069 12.2142 55.6212 13.1142C55.6212 9.51424 55.6212 5.52852 55.6212 5.52852C54.0784 4.75709 52.2784 4.75709 50.6069 5.52852V30.2142C52.1498 30.9857 54.0784 30.9857 55.6212 30.2142V29.1857C56.7784 30.0857 58.3212 30.6 59.8641 30.6C62.4355 30.6 64.7498 29.3142 66.0355 27C66.9355 25.4571 67.3212 23.5285 67.3212 21.2142C67.3212 18.9 66.8069 16.9714 66.0355 15.4285C64.7498 13.1142 62.5641 11.7 59.8641 11.7ZM58.9641 26.2285C56.6498 26.2285 55.6212 23.9142 55.6212 21.0857C55.6212 18.2571 56.6498 15.9428 58.9641 15.9428C61.2784 15.9428 62.3069 18.5142 62.3069 21.0857C62.3069 23.6571 61.2784 26.2285 58.9641 26.2285Z" fill="#1A16B8"/>
<path d="M70.9211 12.2143V30.0857C72.464 30.8571 74.3926 30.8571 75.9354 30.0857V12.2143C74.3926 11.4429 72.5926 11.4429 70.9211 12.2143Z" fill="#1A16B8"/>
<path d="M90.2064 26.1001H88.2779C87.5064 26.1001 86.8636 25.4572 86.8636 24.6858V16.0715C88.2779 16.0715 90.0779 16.0715 90.0779 16.0715C90.7207 14.7858 90.7207 13.3715 90.0779 12.0858H86.8636V7.45723C85.3207 6.6858 83.5207 6.6858 81.8493 7.45723V11.9572H79.0207C78.3779 13.2429 78.3779 14.6572 79.0207 15.9429C79.0207 15.9429 80.8207 15.9429 81.8493 15.9429V26.2287C81.8493 29.1858 83.7779 30.3429 87.5064 30.3429C89.1779 30.3429 90.2064 30.2144 90.2064 30.2144C90.8493 29.0572 90.8493 27.3858 90.2064 26.1001Z" fill="#1A16B8"/>
</g>
<defs>
<clipPath id="clip0_551_757">
<rect width="90" height="36" fill="white" transform="translate(0.721191)"/>
</clipPath>
</defs>
</svg>
