<svg width="173" height="30" viewBox="0 0 173 30" fill="none" xmlns="http://www.w3.org/2000/svg">
<path d="M0 0H25.8621V9.82759H12.4138V14.4828H21.2069V21.2069H12.4138V30H0V0Z" fill="#1A16B8"/>
<path d="M29.4828 0H39.8276V30H29.4828V0Z" fill="#1A16B8"/>
<path d="M86.8965 11.8966V6.2069H94.6552V0H76.0345V30H94.6552V23.7931H86.8965V18.1034H92.069V11.8966H86.8965Z" fill="#1A16B8"/>
<path d="M98.2759 0H124.138V8.7931H111.207V15H119.483V21.2069H111.207V30H98.2759V0Z" fill="#1A16B8"/>
<path d="M138.621 0H127.759V30H144.31V23.7931H138.621V0Z" fill="#1A16B8"/>
<path fill-rule="evenodd" clip-rule="evenodd" d="M43.4483 0H67.2414V3.10345H72.4138V15.5172H67.2414V20.1724H72.4138V30H59.4828V21.2069H53.7931V30H43.4483V0ZM62.069 7.24138V13.4483H53.7931V7.24138H62.069Z" fill="#1A16B8"/>
<path d="M155.172 0H143.276V11.8966H147.414V15H150V18.1034H152.586V30H163.448V18.1034H166.034V15H168.621V11.8966H172.759V0H160.862V11.8966H155.172V0Z" fill="#1A16B8"/>
</svg>
