<svg width="126" height="36" viewBox="0 0 126 36" fill="none" xmlns="http://www.w3.org/2000/svg">
<mask id="mask0_551_739" style="mask-type:luminance" maskUnits="userSpaceOnUse" x="1" y="0" width="124" height="36">
<path d="M124.83 0.194336H1.17773V35.8062H124.83V0.194336Z" fill="white"/>
</mask>
<g mask="url(#mask0_551_739)">
<path d="M18.9836 35.8061C28.8176 35.8061 36.7896 27.8342 36.7896 18.0002C36.7896 8.16634 28.8176 0.194336 18.9836 0.194336C9.1497 0.194336 1.17773 8.16634 1.17773 18.0002C1.17773 27.8342 9.1497 35.8061 18.9836 35.8061Z" fill="#1A16B8"/>
<path d="M97.5285 13.5204C100.793 13.5204 104.5 14.7745 104.721 18.7876H100.159C100.063 17.6275 98.9865 17.0946 97.5605 17.0946C96.2293 17.0946 95.6275 17.5962 95.6275 18.1919C95.6275 18.6935 96.0079 19.1638 97.2123 19.3833L100.095 19.8536C102.979 20.3865 104.88 21.766 104.88 24.4624C104.88 27.9738 101.679 29.6041 97.6873 29.6041C93.6632 29.6041 90.3997 27.9425 90.0827 23.898L94.6453 23.9293C94.8668 25.2461 95.9758 25.8419 97.5919 25.8419C98.9544 25.8419 99.7785 25.4343 99.7785 24.7759C99.7785 24.2742 99.3034 23.8666 98.2892 23.7099L95.1838 23.1769C92.5221 22.738 90.6846 21.2644 90.6846 18.5994C90.6846 15.4015 93.4409 13.5204 97.5285 13.5204ZM78.2951 13.5796C79.9714 13.5796 81.3629 14.018 82.5024 14.7383V13.9241H87.6261V29.1136H82.5024V28.2679C81.3629 28.9883 79.9714 29.4268 78.2951 29.4268C74.1514 29.4268 70.672 26.013 70.672 21.5032C70.672 16.9619 74.1514 13.5796 78.2951 13.5796ZM48.2808 7.78467L55.9644 19.1799L63.6161 7.78467H67.6166V29.1311H62.2508V18.4265L57.4566 25.7407V25.7721H54.4721V25.7407L49.646 18.3637L49.6778 29.1311H44.312V7.78467H48.2808ZM112.836 6.89771V19.6427L118.198 13.9435H124.322L118.484 20.1438L124.83 29.1311H118.675L114.993 23.8702L112.836 26.1562V29.1311H107.696V6.89771H112.836ZM79.307 17.7136C77.2196 17.7136 75.7013 19.4048 75.7013 21.5032C75.7013 23.6015 77.2196 25.2613 79.307 25.2613C80.4457 25.2613 81.5531 24.9482 82.5024 23.852V19.1542C81.5531 18.0581 80.4457 17.7136 79.307 17.7136Z" fill="#1A16B8"/>
<path fill-rule="evenodd" clip-rule="evenodd" d="M29.731 13.6233V19.5365H11.707L10.9316 19.5366C11.7524 23.1244 15.0096 25.8044 18.903 25.8044C22.1217 25.8044 24.9057 23.9726 26.2376 21.3105H29.731V26.2774C29.731 27.4531 28.7626 28.4062 27.5681 28.4062H10.2652C9.07066 28.4062 8.10229 27.4531 8.10229 26.2774V13.6233H29.731ZM24.1632 21.3105C23.0161 22.961 21.0881 24.0441 18.903 24.0441C16.7178 24.0441 14.7898 22.961 13.6427 21.3105H24.1632ZM14.2905 15.0425C12.5955 15.0425 11.1933 16.2761 10.9601 17.8808H12.8038C13.0065 17.2632 13.5955 16.8164 14.2905 16.8164C14.9855 16.8164 15.5745 17.2632 15.7772 17.8808H17.6209C17.3877 16.2761 15.9855 15.0425 14.2905 15.0425ZM23.5427 15.0425C21.8478 15.0425 20.4456 16.2761 20.2124 17.8808H22.056C22.2587 17.2632 22.8477 16.8164 23.5427 16.8164C24.2378 16.8164 24.8268 17.2632 25.0295 17.8808H26.8731C26.6399 16.2761 25.2377 15.0425 23.5427 15.0425ZM27.5681 7.1189C28.7626 7.1189 29.731 8.07197 29.731 9.2476V11.8494H8.10229V9.2476C8.10229 8.07197 9.07066 7.1189 10.2652 7.1189H27.5681Z" fill="#EECB50"/>
</g>
</svg>
