<svg width="97" height="24" viewBox="0 0 97 24" fill="none" xmlns="http://www.w3.org/2000/svg">
<g clip-path="url(#clip0_564_1685)">
<path d="M66.934 14.1277C65.6074 12.157 62.4072 11.1084 60.1174 10.4907C59.8496 10.4201 59.5732 10.3495 59.2776 10.2775H59.2541C58.0201 9.96568 56.6201 9.62008 55.5303 9.02886C54.2816 8.345 53.6699 7.45818 53.6699 6.3184C53.6699 6.1331 53.6861 5.94926 53.7214 5.7669V5.73454C53.739 5.65072 53.761 5.56835 53.7875 5.486C53.7905 5.47424 53.7934 5.46394 53.7979 5.45364V5.44187C53.9596 4.96979 54.2302 4.54182 54.5876 4.19327C55.5127 3.25645 56.9907 2.72994 58.6467 2.72994H58.6981C59.9173 2.75641 61.1174 3.03879 62.2219 3.5594C63.3249 4.05944 64.3206 4.76684 65.1588 5.64188L65.1794 8.01557V8.04057H67.2399V0.890121H65.1839V2.51081C65.1839 2.53434 65.1721 2.55787 65.1515 2.56964C65.1323 2.56964 65.1074 2.55787 65.0956 2.54464C64.2249 1.88282 63.2558 1.36074 62.2248 0.997481C61.1189 0.619517 59.96 0.418033 58.7908 0.401855C57.4495 0.401855 56.3539 0.557748 55.4392 0.856297C54.6788 1.10925 53.9714 1.50339 53.3552 2.01666C52.6846 2.54022 52.1462 3.2138 51.783 3.9815C51.4315 4.72272 51.2476 5.53159 51.2433 6.35075C51.2329 6.83608 51.2933 7.31993 51.4227 7.78908C51.5815 8.30677 51.8183 8.79797 52.1256 9.24506C52.1521 9.28771 52.183 9.32741 52.2109 9.36859C52.2389 9.40977 52.2403 9.40829 52.255 9.42742L52.2742 9.45242C53.6243 11.3172 56.6392 12.1437 58.8379 12.7512L58.8981 12.7674L59.3865 12.9027L59.9159 13.0453C61.0615 13.3262 62.1836 13.6997 63.269 14.163C63.8353 14.413 64.3353 14.791 64.7279 15.2704C65.0912 15.7132 65.3382 16.241 65.4441 16.8043C65.547 17.3661 65.5045 17.9456 65.3206 18.4854C65.1045 19.1074 64.747 19.6722 64.2765 20.1324C63.7602 20.5928 63.1528 20.9399 62.4954 21.1532C61.8556 21.359 61.1909 21.4782 60.5188 21.5076C59.4438 21.559 58.3673 21.437 57.3319 21.1473C55.5759 20.5914 53.9728 19.5193 52.933 18.2088C52.8977 18.1662 52.8728 18.1176 52.8566 18.0647L52.836 16.0234V15.9969H50.7756V23.4709H52.8375V21.2855C53.6993 22.0429 54.6965 22.6297 55.7788 23.0121C57.0436 23.4783 58.3761 23.7327 59.7232 23.765H59.8908C61.035 23.765 63.7116 23.765 65.8119 21.987C66.3927 21.4841 66.8752 20.8767 67.231 20.1942C67.5736 19.5383 67.7973 18.8266 67.8914 18.0927C67.9869 17.3896 67.9546 16.6749 67.7943 15.9837C67.6428 15.3116 67.3501 14.6777 66.9354 14.1277H66.934Z" fill="#1A16B8"/>
<path d="M46.587 14.1277C45.287 12.1673 42.0736 11.1128 39.7704 10.4922C39.5087 10.4231 39.2367 10.3569 38.9483 10.2848C36.4511 9.66861 33.3407 8.89798 33.3054 6.31252C33.3054 5.92279 33.3877 5.53747 33.5481 5.18304C33.7201 4.80948 33.9598 4.47122 34.254 4.18445C35.1908 3.26086 36.66 2.72994 38.3028 2.72994H38.3542C39.5734 2.75641 40.772 3.03879 41.875 3.5594C42.9736 4.05944 43.9649 4.76684 44.7943 5.64188L44.8355 8.01557V8.04204H46.896V0.890121H44.8398V2.51081C44.8398 2.53434 44.8282 2.5564 44.809 2.56964C44.7928 2.56964 44.7751 2.56964 44.7516 2.54464C43.881 1.88282 42.9118 1.36074 41.8809 0.997481C40.7749 0.619517 39.6161 0.418033 38.4469 0.401855C37.0982 0.401855 35.9996 0.557748 35.0878 0.856297C34.3289 1.11072 33.626 1.50339 33.0113 2.01666C32.3406 2.54022 31.8023 3.2138 31.439 3.9815C31.0861 4.72419 30.9008 5.53453 30.8964 6.35664C30.8861 6.84197 30.9464 7.32434 31.0729 7.7935C31.2288 8.30824 31.4596 8.79797 31.7568 9.24506C33.0509 11.2614 36.2173 12.1276 38.5277 12.7615L38.5822 12.7762L39.041 12.9027L39.5249 13.0321L39.5704 13.0439C40.7161 13.3247 41.8382 13.6983 42.9236 14.1615C43.4928 14.4144 43.9943 14.7969 44.3914 15.2763C44.7561 15.7249 45.0047 16.2573 45.1105 16.8249C45.212 17.3882 45.1678 17.9676 44.9826 18.5074C44.7649 19.1295 44.4046 19.6928 43.9326 20.1516C43.4193 20.6104 42.8148 20.9561 42.1589 21.1649C41.5176 21.3708 40.8514 21.487 40.1778 21.512C40.0396 21.512 39.894 21.5208 39.7469 21.5208C38.8057 21.5237 37.8689 21.3959 36.9629 21.1414C36.8586 21.109 36.7527 21.0722 36.6511 21.0355H36.635C36.4247 20.9604 36.2129 20.8796 36.01 20.784C34.9908 20.3369 34.0598 19.7148 33.2583 18.9442L33.2171 18.9044C33.0921 18.7795 32.9656 18.6472 32.8436 18.5074L32.7495 18.4001C32.695 18.3353 32.6421 18.2735 32.5936 18.2074C32.5597 18.1647 32.5347 18.1162 32.5186 18.0647L32.498 16.0234V15.9969H30.4081V23.4709H32.4906V21.2855C33.3524 22.0429 34.3495 22.6297 35.432 23.0121C36.6968 23.4783 38.0291 23.7327 39.3763 23.765H39.544C40.6823 23.765 43.3471 23.765 45.4649 21.987C46.0458 21.4841 46.5282 20.8767 46.8842 20.1942C47.2268 19.5428 47.4518 18.8354 47.5474 18.1059C47.643 17.4029 47.6107 16.6882 47.4503 15.9969C47.3003 15.3189 47.0062 14.6822 46.5886 14.1262L46.587 14.1277Z" fill="#1A16B8"/>
<path d="M25.4536 21.6928L19.8209 13.1776C20.7754 13.2143 21.7254 13.0304 22.5961 12.6392C23.827 12.0142 24.8168 11.223 25.4242 10.0523C25.9183 9.0861 26.1742 8.01544 26.1697 6.93009C26.1697 5.22263 25.4962 3.58576 24.2961 2.37097C22.9945 1.19149 21.3695 0.616455 19.3252 0.616455H8.41426V2.97249H10.7306V21.7222H8.2113V23.6929H15.525V21.7222H13.169V13.2129H17.1104L22.6284 21.7222H20.1209V23.6929H27.992V21.7222H25.5301C25.5007 21.7237 25.4727 21.7133 25.4521 21.6943L25.4536 21.6928ZM19.2061 2.8666C21.0607 2.8666 22.4843 3.60341 23.2049 4.86967C23.9108 6.1624 23.8858 7.73161 23.1387 9.00228C22.3989 10.2509 21.524 10.9406 19.5856 10.9406H13.1675V2.8666H19.2061Z" fill="#1A16B8"/>
<path d="M86.6922 16.869C86.6922 14.0423 85.2641 11.9996 82.8949 11.1245C84.9038 10.0686 85.7907 8.33316 85.7907 6.54628C85.7907 2.42103 82.3301 0.235596 77.8166 0.235596C75.3533 0.254715 72.7281 1.07388 70.9338 3.59169L72.8075 4.81382C73.8104 3.46374 75.2415 2.42103 77.8166 2.42103C81.0948 2.42103 83.4214 3.752 83.4214 6.28744C83.4214 8.8229 81.0889 10.07 78.7004 10.07H75.4474V12.4114H78.8888C81.9346 12.4114 84.3421 14.0527 84.267 16.8425C84.0964 19.8089 81.483 21.4016 78.0622 21.4016C75.8607 21.4016 73.4163 20.7089 71.5913 18.7574L71.4971 18.7221L69.8984 20.4722L69.9735 20.4912C72.2677 22.6443 74.9958 23.7576 78.0608 23.7576C82.7816 23.7488 86.6922 21.1943 86.6922 16.8704V16.869Z" fill="#1A16B8"/>
<path d="M6.69308 10.9243H0.764771V13.3451H6.69308V10.9243Z" fill="#1A16B8"/>
<path d="M95.0886 10.9243H89.1603V13.3451H95.0886V10.9243Z" fill="#1A16B8"/>
</g>
<defs>
<clipPath id="clip0_564_1685">
<rect width="95.2941" height="23.5294" fill="white" transform="translate(0.764648 0.235352)"/>
</clipPath>
</defs>
</svg>
