<svg fill="none" viewBox="0 0 560 640" xmlns="http://www.w3.org/2000/svg" xmlns:xlink="http://www.w3.org/1999/xlink"><linearGradient id="a" gradientUnits="userSpaceOnUse" x1="0" x2=".000001" y1="0" y2="640"><stop offset="0" stop-color="#1c68f3" stop-opacity=".25"/><stop offset=".75" stop-color="#edbfef" stop-opacity=".05"/><stop offset="1" stop-color="#f0c0ee" stop-opacity="0"/></linearGradient><path d="m473.516 639h-225.875v-638h227.75c64.242 0 119.485 12.7854 165.767 38.3132l.003.0016c46.282 25.3203 81.871 61.7372 106.781 109.2742l.002.003c25.117 47.535 37.697 104.45 37.697 170.783 0 66.541-12.581 123.666-37.698 171.409l-.001.003c-24.91 47.744-60.707 84.369-107.406 109.898l-.002.001c-46.49 25.528-102.15 38.314-167.018 38.314zm-92.563-114.938v1h1 85.938c40.113 0 73.927-7.103 101.398-21.362l.002-.001c27.709-14.484 48.484-36.843 62.32-67.03 14.039-30.384 21.03-69.499 21.03-117.294 0-47.379-6.991-86.183-21.031-116.359-13.836-30.185-34.506-52.44-62.009-66.716-27.47-14.259-61.284-21.362-101.398-21.362h-86.25-1v1zm-246.641-523.062v638h-133.312v-638z" stroke="url(#a)" stroke-width="2"/></svg>