<svg width="320" height="321" viewBox="0 0 320 321" fill="none" xmlns="http://www.w3.org/2000/svg">
<path fill-rule="evenodd" clip-rule="evenodd" d="M43.75 290.5C43.75 298.094 37.5938 304.25 30 304.25C22.4063 304.25 16.25 298.094 16.25 290.5C16.25 282.906 22.4063 276.75 30 276.75C37.5938 276.75 43.75 282.906 43.75 290.5ZM27.79 290.5L23.895 286.605L26.105 284.395L30 288.29L33.895 284.395L36.105 286.605L32.21 290.5L36.105 294.395L33.895 296.605L30 292.71L26.105 296.605L23.895 294.395L27.79 290.5Z" fill="#FE5F35"/>
<path d="M67.3238 95.2212H36.53L75.0223 133.621L36.53 172.021H67.3238L105.816 133.621L67.3238 95.2212Z" fill="#1C68F3"/>
<path d="M141.743 95.2212H167.404V172.021H141.743V95.2212Z" fill="#141414"/>
<path fill-rule="evenodd" clip-rule="evenodd" d="M180.235 95.2212V172.021H216.161C253.009 172.021 282.881 154.829 282.881 133.621C282.881 112.413 253.009 95.2212 216.161 95.2212H180.235ZM205.896 157.252H216.161C238.837 157.252 257.219 146.672 257.219 133.621C257.219 120.57 238.837 109.99 216.161 109.99H205.896V157.252Z" fill="#141414"/>
<rect x="103.251" y="157.251" width="25.6615" height="14.7692" fill="#1C68F3"/>
<rect x="0.64" y="1.14" width="318.72" height="318.72" stroke="url(#paint0_linear_760_2179)" stroke-width="1.28"/>
<defs>
<linearGradient id="paint0_linear_760_2179" x1="65.6763" y1="92.76" x2="174.292" y2="5.37873" gradientUnits="userSpaceOnUse">
<stop stop-color="#EECB50"/>
<stop offset="0.580696" stop-color="#55B8FF"/>
<stop offset="1" stop-color="#1A16B8"/>
</linearGradient>
</defs>
</svg>
