<svg width="66" height="50" viewBox="0 0 66 50" fill="none" xmlns="http://www.w3.org/2000/svg">
<path d="M55.9196 4.19998C51.6197 2.23333 47.053 0.799995 42.2864 0C41.6863 1.03334 41.0196 2.43332 40.5529 3.53333C35.483 2.79998 30.4497 2.79998 25.4497 3.53333C24.983 2.43332 24.283 1.03334 23.7163 0C18.9164 0.799995 14.3498 2.23333 10.0798 4.19998C1.44652 16.9333 -0.886813 29.3666 0.279848 41.6332C6.01314 45.7998 11.5465 48.3333 16.9831 50C18.3165 48.1999 19.5165 46.2665 20.5498 44.2333C18.5832 43.4999 16.7165 42.5999 14.9165 41.5331C15.3832 41.2 15.8498 40.8333 16.2832 40.4666C27.1498 45.4333 38.9198 45.4333 49.6529 40.4666C50.1196 40.8333 50.5529 41.2 51.0196 41.5331C49.2196 42.5999 47.353 43.4999 45.3863 44.2333C46.4197 46.2665 47.6197 48.1999 48.9529 50C54.3862 48.3333 59.9529 45.7998 65.6562 41.6332C67.0894 27.4333 63.3862 15.1001 55.9196 4.19998ZM22.0498 34.0666C18.7831 34.0666 16.1164 31.1 16.1164 27.4667C16.1164 23.8334 18.7164 20.8666 22.0498 20.8666C25.3497 20.8666 28.0496 23.8334 27.9829 27.4667C27.9829 31.1 25.3497 34.0666 22.0498 34.0666ZM43.9531 34.0666C40.6863 34.0666 38.0163 31.1 38.0163 27.4667C38.0163 23.8334 40.6196 20.8666 43.9531 20.8666C47.253 20.8666 49.9529 23.8334 49.8862 27.4667C49.8862 31.1 47.2864 34.0666 43.9531 34.0666Z" fill="#55B8FF"/>
</svg>
