<svg width="55" height="50" viewBox="0 0 55 50" fill="none" xmlns="http://www.w3.org/2000/svg">
<path d="M9.35484 0H44.5161V50H39.3548V27.0968H39.3042C38.7338 20.7669 33.4139 15.8065 26.9355 15.8065C20.457 15.8065 15.1372 20.7669 14.5668 27.0968H14.5161V50H9.35484V0Z" fill="#55B8FF"/>
<path d="M0 7.09678L2.09677 14.1936H3.87097V42.9032C2.98018 42.9032 2.25806 43.6253 2.25806 44.5161V46.4516H1.93548C1.0447 46.4516 0.32258 47.1737 0.32258 48.0645V50H18.3871V48.0645C18.3871 47.1737 17.665 46.4516 16.7742 46.4516H16.4516V44.5161C16.4516 43.6253 15.7295 42.9032 14.8387 42.9032H12.9032V7.09678H0Z" fill="#55B8FF"/>
<path d="M39.6774 42.9032C38.7866 42.9032 38.0645 43.6253 38.0645 44.5161V46.4516H37.7419C36.8511 46.4516 36.129 47.1737 36.129 48.0645V50H54.1935V48.0645C54.1935 47.1737 53.4714 46.4516 52.5806 46.4516H52.2581V44.5161C52.2581 43.6253 51.5359 42.9032 50.6451 42.9032V14.1936H52.4193L54.5161 7.09678H41.6129V42.9032H39.6774Z" fill="#55B8FF"/>
</svg>
