<svg width="78" height="50" viewBox="0 0 78 50" fill="none" xmlns="http://www.w3.org/2000/svg">
<g clip-path="url(#clip0_1061_3447)">
<path d="M52.6425 16.0123C52.5787 16.0797 52.4959 16.1261 52.4051 16.1453C52.3143 16.1645 52.2199 16.1556 52.1342 16.1199C52.0486 16.0842 51.9758 16.0232 51.9256 15.9452C51.8754 15.8672 51.8501 15.7757 51.8531 15.683C51.8531 15.2942 51.8531 14.8667 51.8344 14.4623C51.375 -2.32078 26.2531 -2.32078 25.7938 14.4623C25.783 14.8691 25.7776 15.276 25.7775 15.683C25.7775 16.0936 25.2788 16.3017 24.9881 16.0123C24.7031 15.728 24.4069 15.438 24.1169 15.1617C11.9938 3.62109 -5.75812 21.5211 5.70188 33.6992C5.98 33.9942 6.2625 34.2867 6.54938 34.5773C20.3763 48.498 38.8106 48.4998 38.8144 48.4998C38.8175 48.4998 57.2544 48.4986 71.0819 34.5773C71.3706 34.288 71.6531 33.9961 71.9294 33.6998C83.3894 21.5073 65.6263 3.62109 53.5144 15.1617C53.2173 15.4385 52.9265 15.7221 52.6425 16.0123Z" fill="#55B8FF" stroke="#55B8FF" stroke-width="2.90062" stroke-miterlimit="10"/>
<path fill-rule="evenodd" clip-rule="evenodd" d="M49.494 28.6271C49.1052 28.6271 48.9702 29.1927 49.219 29.4921C49.6749 30.0426 49.9236 30.7354 49.9221 31.4502C49.9221 33.1402 48.5615 34.5102 46.8827 34.5102C45.204 34.5102 43.8434 33.1402 43.8434 31.4502C43.8434 31.3596 43.7265 31.3146 43.6734 31.3877C43.194 32.0508 42.8702 32.7952 42.7377 33.5765C42.6627 34.0165 42.3071 34.3808 41.8609 34.3808H41.6146C41.0321 34.3808 40.5515 33.9058 40.6371 33.3296C41.2271 29.3808 45.0915 26.5171 49.494 26.5171C53.8959 26.5171 57.7609 29.3808 58.3502 33.3296C58.4365 33.9052 57.9565 34.3808 57.3734 34.3808C56.7909 34.3808 56.3296 33.9033 56.2027 33.3346C55.6265 30.7465 52.9559 28.6271 49.494 28.6271ZM22.5052 31.4502C22.5052 31.3315 22.3515 31.2671 22.2796 31.3621C21.7671 32.0352 21.4171 32.7971 21.2696 33.6008C21.1821 34.0758 20.799 34.4696 20.3165 34.4696H20.1352C19.5534 34.4696 19.0727 33.9946 19.1584 33.4183C19.7477 29.4683 23.6127 26.6065 28.0146 26.6065C32.4171 26.6065 36.2827 29.4677 36.8715 33.419C36.9577 33.994 36.4771 34.4702 35.8946 34.4702C35.3121 34.4702 34.8509 33.9921 34.724 33.4233C34.1484 30.834 31.4771 28.7165 28.0152 28.7165C27.7002 28.7165 27.5852 29.1608 27.7959 29.3946C28.3042 29.9584 28.5849 30.6911 28.5834 31.4502C28.5834 33.1402 27.2227 34.5102 25.544 34.5102C23.8659 34.5102 22.5052 33.1402 22.5052 31.4502ZM43.754 38.4965C43.2427 38.2171 42.6065 38.4171 42.1946 38.8296C41.4009 39.6233 40.1977 40.1671 38.8052 40.1671C37.4096 40.1671 36.2077 39.6296 35.4159 38.8346C35.0046 38.4221 34.369 38.219 33.8571 38.4965C33.3446 38.774 33.1484 39.4215 33.5159 39.874C34.7171 41.3552 36.664 42.2758 38.8052 42.2758C40.9477 42.2758 42.8909 41.3446 44.0909 39.8758C44.459 39.424 44.2652 38.7758 43.7534 38.4965H43.754Z" fill="#FFF9F2"/>
</g>
<defs>
<clipPath id="clip0_1061_3447">
<rect width="77.5" height="50" fill="white"/>
</clipPath>
</defs>
</svg>
