<svg width="45" height="50" viewBox="0 0 45 50" fill="none" xmlns="http://www.w3.org/2000/svg">
<g clip-path="url(#clip0_1061_3322)">
<path d="M5.74768 20.2719C6.24212 21.3226 7.47822 23.424 7.47822 23.424L21.6315 0L7.84905 9.64153C7.04559 10.1978 6.36573 10.9394 5.87129 11.8047C4.57339 14.4623 4.57339 17.5525 5.74768 20.2719Z" fill="url(#paint0_linear_1061_3322)"/>
<path d="M0.185182 27.9356C0.494206 32.4474 2.78099 36.6501 6.36567 39.3695L21.6315 49.9999C21.6315 49.9999 12.0517 36.2175 4.01708 22.4968C3.21362 21.0753 2.65738 19.4684 2.41016 17.7997C2.28655 17.058 2.28655 16.3164 2.41016 15.5747C2.22474 15.9455 1.79211 16.749 1.79211 16.749C0.988645 18.4177 0.432401 20.2101 0.123377 22.0642C-0.0620377 24.042 -0.0620377 26.0197 0.185182 27.9356Z" fill="#A0A8D4"/>
<path d="M39.1221 29.7897C38.6277 28.7391 37.3916 26.6377 37.3916 26.6377L23.2383 49.9999L37.0826 40.4201C37.886 39.8639 38.5659 39.1222 39.0603 38.257C40.2964 35.5994 40.3582 32.5091 39.1221 29.7897Z" fill="url(#paint1_linear_1061_3322)"/>
<path d="M44.7461 22.0643C44.4371 17.5525 42.1503 13.3498 38.5656 10.6304L23.2998 0C23.2998 0 32.8796 13.7824 40.9142 27.5031C41.7176 28.9246 42.2739 30.5315 42.5211 32.2002C42.6447 32.9419 42.6447 33.6836 42.5211 34.4252C42.7065 34.0544 43.1392 33.2509 43.1392 33.2509C43.9426 31.5822 44.4989 29.7899 44.8079 27.9975C44.9315 25.958 44.9315 24.042 44.7461 22.0643Z" fill="#A0A8D4"/>
<path d="M5.87123 11.8047C6.36567 10.9394 6.98371 10.1978 7.84898 9.64153L21.6315 0L7.47815 23.3622C7.47815 23.3622 6.24206 21.2608 5.74762 20.2101C4.57333 17.5525 4.57333 14.4623 5.87123 11.8047ZM0.185182 27.9357C0.494206 32.4475 2.78099 36.6502 6.36567 39.3696L21.6315 50C21.6315 50 12.0517 36.2176 4.01708 22.4969C3.21362 21.0754 2.65738 19.4685 2.41016 17.7998C2.28655 17.0581 2.28655 16.3164 2.41016 15.5748C2.22474 15.9456 1.79211 16.7491 1.79211 16.7491C0.988645 18.4178 0.432401 20.2101 0.123377 22.0643C-0.0620377 24.042 -0.0620377 26.0198 0.185182 27.9357ZM39.1222 29.7899C38.6278 28.7392 37.3917 26.6378 37.3917 26.6378L23.2384 50L37.0827 40.4203C37.8861 39.864 38.566 39.1224 39.0604 38.2571C40.2965 35.5995 40.3583 32.5093 39.1222 29.7899ZM44.6847 22.1261C44.3757 17.6143 42.0889 13.4116 38.5042 10.6922L23.3002 0C23.3002 0 32.8799 13.7824 40.9146 27.5031C41.718 28.9246 42.2743 30.5315 42.5215 32.2002C42.6451 32.9419 42.6451 33.6836 42.5215 34.4252C42.7069 34.0544 43.1396 33.2509 43.1396 33.2509C43.943 31.5822 44.4993 29.7899 44.8083 27.9975C44.9319 25.958 44.9319 24.042 44.6847 22.1261Z" fill="#55B8FF"/>
</g>
<defs>
<linearGradient id="paint0_linear_1061_3322" x1="22.2753" y1="0.58597" x2="4.11608" y2="20.2719" gradientUnits="userSpaceOnUse">
<stop offset="0.58" stop-color="#A0A8D4"/>
<stop offset="0.73" stop-color="#8791C7"/>
<stop offset="0.91" stop-color="#6470B4"/>
</linearGradient>
<linearGradient id="paint1_linear_1061_3322" x1="22.6565" y1="49.4551" x2="40.8089" y2="29.7831" gradientUnits="userSpaceOnUse">
<stop offset="0.58" stop-color="#A0A8D4"/>
<stop offset="0.73" stop-color="#8791C7"/>
<stop offset="0.91" stop-color="#6470B4"/>
</linearGradient>
<clipPath id="clip0_1061_3322">
<rect width="44.9321" height="50" fill="white"/>
</clipPath>
</defs>
</svg>
