<svg width="150" height="150" viewBox="0 0 150 150" fill="none" xmlns="http://www.w3.org/2000/svg">
<path fill-rule="evenodd" clip-rule="evenodd" d="M82.4999 0C86.6422 0 89.9999 3.35786 89.9999 7.5V20.6802C89.9999 27.362 98.0782 30.7082 102.803 25.9835L112.123 16.6637C115.052 13.7348 119.8 13.7348 122.73 16.6637L133.336 27.2703C136.265 30.1992 136.265 34.948 133.336 37.8769L124.016 47.1967C119.292 51.9215 122.638 60 129.319 60H142.5C146.642 60 150 63.3578 150 67.5V82.5C150 86.6423 146.642 90 142.5 90H129.319C122.638 90 119.292 98.0783 124.016 102.803L133.336 112.123C136.265 115.052 136.265 119.8 133.336 122.73L122.73 133.337C119.8 136.265 115.052 136.265 112.123 133.337L102.803 124.016C98.0782 119.292 89.9999 122.638 89.9999 129.319V142.5C89.9999 146.642 86.6422 150 82.4999 150H67.5C63.3578 150 60 146.642 60 142.5V129.319C60 122.638 51.9214 119.292 47.1966 124.016L37.8769 133.337C34.948 136.265 30.1992 136.265 27.2703 133.337L16.6637 122.73C13.7347 119.8 13.7347 115.052 16.6637 112.123L25.9835 102.803C30.7082 98.0783 27.362 90 20.6802 90H7.5C3.35787 90 0 86.6423 0 82.5V67.5C0 63.3578 3.35786 60 7.5 60H20.6802C27.3619 60 30.7082 51.9215 25.9835 47.1967L16.6637 37.8769C13.7347 34.9479 13.7347 30.1992 16.6637 27.2703L27.2703 16.6637C30.1992 13.7348 34.948 13.7348 37.8769 16.6637L47.1966 25.9835C51.9214 30.7082 60 27.362 60 20.6802V7.5C60 3.35786 63.3578 0 67.5 0H82.4999ZM75 112.5C95.7104 112.5 112.5 95.7105 112.5 75C112.5 54.2894 95.7104 37.5 75 37.5C54.2893 37.5 37.5 54.2894 37.5 75C37.5 95.7105 54.2893 112.5 75 112.5Z" fill="url(#paint0_linear_551_1494)"/>
<path fill-rule="evenodd" clip-rule="evenodd" d="M55.3733 73.6397H63.4756C63.5999 71.1617 64.0412 68.7641 64.7627 66.4883C62.7373 65.7397 60.8187 64.7699 59.0365 63.6088C56.9647 66.4679 55.6465 69.9086 55.3733 73.6397ZM60.9255 61.3729C62.4452 62.3331 64.0708 63.1395 65.7801 63.7704C67.033 60.8802 68.7504 58.2342 70.8393 55.9252C66.9994 56.7366 63.5745 58.6728 60.9255 61.3729ZM73.4582 57.3695C71.4406 59.4851 69.7814 61.9364 68.5741 64.627C70.1494 65.0141 71.7824 65.2568 73.4582 65.3408V57.3695ZM73.4582 68.2462C71.4222 68.1542 69.4392 67.8513 67.5318 67.3568C66.8974 69.3553 66.5033 71.4607 66.3817 73.6397H73.4582V68.2462ZM76.3603 73.6397V68.2338C78.3187 68.1285 80.227 67.8279 82.065 67.3494C82.6842 69.3514 83.0688 71.4583 83.1874 73.6397H76.3603ZM73.4582 76.5417H66.3817C66.5033 78.7202 66.8975 80.8245 67.5321 82.8244C69.4395 82.33 71.4223 82.0272 73.4582 81.9352V76.5417ZM76.3603 81.9476V76.5417H83.1874C83.0688 78.7236 82.6843 80.8316 82.0653 82.8321C80.2272 82.3535 78.3188 82.0529 76.3603 81.9476ZM73.4582 84.8405C71.7824 84.9246 70.1495 85.1672 68.5742 85.5544C69.7815 88.244 71.4415 90.6949 73.4582 92.8105V84.8405ZM70.8411 94.2566C68.7524 91.9477 67.0336 89.3015 65.7802 86.4109C64.0709 87.0418 62.4453 87.8483 60.9255 88.8085C63.5749 91.509 67.0005 93.4454 70.8411 94.2566ZM59.0365 86.5725C60.8187 85.4114 62.7375 84.4416 64.763 83.6929C64.0414 81.4161 63.6 79.0197 63.4756 76.5417H55.3733C55.6465 80.2727 56.9647 83.7135 59.0365 86.5725ZM78.8876 94.2753C82.718 93.4851 86.1397 91.5767 88.7963 88.9064C87.2468 87.9121 85.5854 87.0784 83.836 86.4287C82.6106 89.3188 80.9312 91.9657 78.8876 94.2753ZM81.0471 85.5676C79.5339 85.1922 77.9672 84.9503 76.3603 84.8543V92.7441C78.2923 90.6484 79.8842 88.2255 81.0471 85.5676ZM84.8335 83.7035C85.5399 81.4244 85.9718 79.0233 86.0933 76.5417H94.4452C94.1685 80.3212 92.8194 83.8029 90.7009 86.6837C88.8793 85.4787 86.9129 84.4745 84.8335 83.7035ZM94.4452 73.6397C94.1685 69.8602 92.8194 66.3785 90.7009 63.4977C88.8792 64.7027 86.9127 65.7069 84.8332 66.478C85.5397 68.7582 85.9717 71.1581 86.0933 73.6397H94.4452ZM83.8359 63.7527C85.5854 63.103 87.2468 62.2693 88.7963 61.275C86.1393 58.6043 82.7169 56.6957 78.8859 55.9057C80.9292 58.2153 82.6101 60.8622 83.8359 63.7527ZM76.3603 57.4387V65.3271C77.9672 65.2311 79.5338 64.9892 81.047 64.6138C79.8841 61.9568 78.2915 59.5343 76.3603 57.4387ZM52.4183 75.0907C52.4183 62.6693 62.4879 52.5998 74.9093 52.5998C87.3307 52.5998 97.4002 62.6693 97.4002 75.0907C97.4002 87.5121 87.3307 97.5816 74.9093 97.5816C62.4879 97.5816 52.4183 87.5121 52.4183 75.0907Z" fill="url(#paint1_linear_551_1494)"/>
<defs>
<linearGradient id="paint0_linear_551_1494" x1="74.9999" y1="0" x2="74.9999" y2="173.398" gradientUnits="userSpaceOnUse">
<stop offset="0.151042" stop-color="#1A16B8"/>
<stop offset="0.932292" stop-color="#70D7E6"/>
</linearGradient>
<linearGradient id="paint1_linear_551_1494" x1="74.9999" y1="0" x2="74.9999" y2="173.398" gradientUnits="userSpaceOnUse">
<stop offset="0.151042" stop-color="#1A16B8"/>
<stop offset="0.932292" stop-color="#70D7E6"/>
</linearGradient>
</defs>
</svg>
