<svg width="461" height="231" viewBox="0 0 461 231" fill="none" xmlns="http://www.w3.org/2000/svg">
<path d="M4.39936 36.5803L2.83651 38.6922L4.55424 41.0154H3.83617L2.47044 39.178L1.12582 41.0154H0.442953L2.15364 38.7345L0.590791 36.5803H1.30886L2.51268 38.2628L3.7165 36.5803H4.39936Z" fill="#1C68F3"/>
<path d="M12.9785 77.0308L9.22388 77.0308L9.22388 1.00008L12.9785 1.00008" stroke="#1C68F3" stroke-width="0.469325"/>
<path d="M152.541 77.6174H202.407V92.2838H167.208V139.216H202.407V153.883H152.541V77.6174Z" fill="#141414"/>
<path d="M228.806 77.6174H246.406L224.407 115.75L246.406 153.883H228.806L206.807 115.75L228.806 77.6174Z" fill="#141414"/>
<path d="M202.407 77.6174H184.807L206.807 115.75L184.807 153.883H202.407L224.407 115.75L202.407 77.6174Z" fill="#1C68F3"/>
<path d="M116.853 77.6174L152.052 153.883H137.386L116.853 109.395V153.883H102.187V77.6174H116.853Z" fill="#141414"/>
<path d="M245.917 77.6174V92.2838H253.25V153.883H267.917V92.2838H295.783V77.6174H245.917Z" fill="#141414"/>
<rect x="303.116" y="77.6174" width="14.6664" height="76.2653" fill="#141414"/>
<path fill-rule="evenodd" clip-rule="evenodd" d="M325.116 77.6174V153.883H345.649C366.709 153.883 383.782 136.81 383.782 115.75C383.782 94.69 366.709 77.6174 345.649 77.6174H325.116ZM339.782 139.216H345.649C358.609 139.216 369.115 128.71 369.115 115.75C369.115 102.79 358.609 92.2838 345.649 92.2838H339.782V139.216Z" fill="#141414"/>
<rect x="281.117" y="139.216" width="14.6664" height="14.6664" fill="#1C68F3"/>
<rect x="25.8853" y="1.23466" width="434.126" height="76.0307" stroke="black" stroke-width="0.469325"/>
<rect x="460.01" y="1.23466" width="229.031" height="76.0307" transform="rotate(90 460.01 1.23466)" stroke="black" stroke-width="0.469325"/>
<rect x="101.916" y="1.23466" width="229.031" height="76.0307" transform="rotate(90 101.916 1.23466)" stroke="black" stroke-width="0.469325"/>
<rect x="25.8851" y="154.235" width="434.126" height="76.0307" stroke="black" stroke-width="0.469325"/>
<rect opacity="0.5" x="25.6506" y="1" width="76.5" height="76.5" fill="#EECB50"/>
<rect opacity="0.5" x="383.745" y="1" width="76.5" height="76.5" fill="#EECB50"/>
<rect opacity="0.5" x="383.745" y="154" width="76.5" height="76.5" fill="#EECB50"/>
<rect opacity="0.5" x="25.6504" y="154" width="76.5" height="76.5" fill="#EECB50"/>
</svg>
