<svg width="296" height="80" viewBox="0 0 296 80" fill="none" xmlns="http://www.w3.org/2000/svg">
<path d="M52.8435 0H105.151V15.3846H68.2281V64.6154H105.151V80H52.8435V0Z" fill="#141414"/>
<path d="M132.844 0H151.305L128.228 40L151.305 80H132.844L109.767 40L132.844 0Z" fill="#141414"/>
<path d="M105.151 0H86.6897L109.767 40L86.6897 80H105.151L128.228 40L105.151 0Z" fill="#1C68F3"/>
<path d="M15.4076 0L52.3307 80H36.946L15.4076 33.3333V80H0.0229492V0H15.4076Z" fill="#141414"/>
<path d="M150.792 0V15.3846H158.485V80H173.869V15.3846H203.1V0H150.792Z" fill="#141414"/>
<rect x="210.792" width="15.3846" height="80" fill="#141414"/>
<path fill-rule="evenodd" clip-rule="evenodd" d="M233.869 0V80H255.408C277.499 80 295.408 62.0914 295.408 40C295.408 17.9086 277.499 0 255.408 0H233.869ZM249.254 64.6154H255.408C269.002 64.6154 280.023 53.5947 280.023 40C280.023 26.4053 269.002 15.3846 255.408 15.3846H249.254V64.6154Z" fill="#141414"/>
<rect x="187.715" y="64.6155" width="15.3846" height="15.3846" fill="#1C68F3"/>
</svg>
