<svg width="321" height="320" viewBox="0 0 321 320" fill="none" xmlns="http://www.w3.org/2000/svg">
<g clip-path="url(#clip0_760_1460)">
<rect width="320" height="320" transform="translate(0.350586)" fill="#55B8FF"/>
<path opacity="0.4" d="M87.2384 184.789L160.351 142.577L233.463 184.789V269.211L160.351 311.423L87.2384 269.211V184.789Z" stroke="white"/>
<path opacity="0.4" d="M56.9275 167.289L160.351 107.577L263.774 167.289V286.711L160.351 346.423L56.9275 286.711V167.289Z" stroke="white"/>
<path opacity="0.4" d="M31.8128 152.789L160.351 78.5774L288.888 152.789V301.211L160.351 375.423L31.8128 301.211V152.789Z" stroke="white"/>
<path opacity="0.4" d="M-4.56027 131.789L160.351 36.5774L325.261 131.789V322.211L160.351 417.423L-4.56027 322.211V131.789Z" stroke="white"/>
<path opacity="0.4" d="M-62.584 98.2887L160.351 -30.4226L383.285 98.2887V355.711L160.351 484.423L-62.584 355.711V98.2887Z" stroke="white"/>
<path d="M160.851 171L212.379 200.75V260.25L160.851 290L109.322 260.25V200.75L160.851 171Z" fill="url(#paint0_linear_760_1460)"/>
<circle cx="160.5" cy="210.5" r="14.5" fill="#FFF9F2"/>
<path d="M161 230C144.984 230 132 242.984 132 259H190C190 242.984 177.016 230 161 230Z" fill="#FFF9F2"/>
<circle cx="82.3505" cy="73.0001" r="40" transform="rotate(24.1664 82.3505 73.0001)" fill="url(#paint1_linear_760_1460)"/>
<circle cx="115.851" cy="126.5" r="13.5" transform="rotate(33.6363 115.851 126.5)" fill="url(#paint2_linear_760_1460)"/>
<circle cx="129.851" cy="157.5" r="8.5" fill="url(#paint3_linear_760_1460)"/>
<circle cx="40" cy="40" r="40" transform="matrix(-1 0 0 1 279.351 33)" fill="url(#paint4_linear_760_1460)"/>
<circle cx="8.5" cy="8.5" r="8.5" transform="matrix(-1 0 0 1 195.351 149)" fill="url(#paint5_linear_760_1460)"/>
<circle cx="200.851" cy="126.5" r="13.5" fill="url(#paint6_linear_760_1460)"/>
<circle cx="21.3506" cy="191" r="40" fill="url(#paint7_linear_760_1460)"/>
<circle cx="86.8506" cy="197.5" r="13.5" fill="url(#paint8_linear_760_1460)"/>
<circle cx="40" cy="40" r="40" transform="matrix(-1 0 0 1 340.351 151)" fill="url(#paint9_linear_760_1460)"/>
<circle cx="13.5" cy="13.5" r="13.5" transform="matrix(-1 0 0 1 248.351 184)" fill="url(#paint10_linear_760_1460)"/>
</g>
<defs>
<linearGradient id="paint0_linear_760_1460" x1="161.351" y1="290" x2="165.049" y2="132.087" gradientUnits="userSpaceOnUse">
<stop stop-color="#EECB50"/>
<stop offset="1" stop-color="#1A16B8"/>
</linearGradient>
<linearGradient id="paint1_linear_760_1460" x1="218.351" y1="170.5" x2="56.2736" y2="45.7039" gradientUnits="userSpaceOnUse">
<stop stop-color="#EECB50"/>
<stop offset="1" stop-color="#1A16B8"/>
</linearGradient>
<linearGradient id="paint2_linear_760_1460" x1="145.851" y1="140" x2="102.772" y2="121.991" gradientUnits="userSpaceOnUse">
<stop stop-color="#EECB50"/>
<stop offset="1" stop-color="#1A16B8"/>
</linearGradient>
<linearGradient id="paint3_linear_760_1460" x1="140.851" y1="191" x2="128.423" y2="145.209" gradientUnits="userSpaceOnUse">
<stop stop-color="#EECB50"/>
<stop offset="1" stop-color="#1A16B8"/>
</linearGradient>
<linearGradient id="paint4_linear_760_1460" x1="112.5" y1="178.5" x2="25.7285" y2="-2.03238" gradientUnits="userSpaceOnUse">
<stop stop-color="#EECB50"/>
<stop offset="1" stop-color="#1A16B8"/>
</linearGradient>
<linearGradient id="paint5_linear_760_1460" x1="19.5" y1="42" x2="7.07252" y2="-3.79108" gradientUnits="userSpaceOnUse">
<stop stop-color="#EECB50"/>
<stop offset="1" stop-color="#1A16B8"/>
</linearGradient>
<linearGradient id="paint6_linear_760_1460" x1="181.351" y1="156" x2="209.413" y2="110.657" gradientUnits="userSpaceOnUse">
<stop stop-color="#EECB50"/>
<stop offset="1" stop-color="#1A16B8"/>
</linearGradient>
<linearGradient id="paint7_linear_760_1460" x1="157.351" y1="288.5" x2="-4.7264" y2="163.704" gradientUnits="userSpaceOnUse">
<stop stop-color="#EECB50"/>
<stop offset="1" stop-color="#1A16B8"/>
</linearGradient>
<linearGradient id="paint8_linear_760_1460" x1="116.851" y1="211" x2="73.7724" y2="192.991" gradientUnits="userSpaceOnUse">
<stop stop-color="#EECB50"/>
<stop offset="1" stop-color="#1A16B8"/>
</linearGradient>
<linearGradient id="paint9_linear_760_1460" x1="176" y1="137.5" x2="13.923" y2="12.7038" gradientUnits="userSpaceOnUse">
<stop stop-color="#EECB50"/>
<stop offset="1" stop-color="#1A16B8"/>
</linearGradient>
<linearGradient id="paint10_linear_760_1460" x1="43.5" y1="27" x2="0.421809" y2="8.99102" gradientUnits="userSpaceOnUse">
<stop stop-color="#EECB50"/>
<stop offset="1" stop-color="#1A16B8"/>
</linearGradient>
<clipPath id="clip0_760_1460">
<rect width="320" height="320" fill="white" transform="translate(0.350586)"/>
</clipPath>
</defs>
</svg>
