<svg width="420" height="420" viewBox="0 0 420 420" fill="none" xmlns="http://www.w3.org/2000/svg">
<g clip-path="url(#clip0_760_1526)">
<rect width="420" height="420" fill="#EECB50"/>
<path d="M102.394 378.557L23.7353 423.963L-54.9231 378.557L23.7353 333.151H23.7662L102.394 378.557Z" stroke="#947300" stroke-width="3.23077" stroke-miterlimit="10" stroke-linejoin="round"/>
<path d="M181.052 333.153L102.394 378.559L23.7661 333.153L102.394 287.747H102.425L181.052 333.153Z" stroke="#947300" stroke-width="3.23077" stroke-miterlimit="10" stroke-linejoin="round"/>
<path d="M417.027 378.557L338.399 423.963H338.369L259.71 378.557L338.369 333.151L417.027 378.557Z" stroke="#947300" stroke-width="3.23077" stroke-miterlimit="10" stroke-linejoin="round"/>
<path d="M495.686 423.964L417.028 469.37L338.4 423.964L417.028 378.558H417.059L495.686 423.964Z" stroke="#947300" stroke-width="3.23077" stroke-miterlimit="10" stroke-linejoin="round"/>
<path d="M417.028 287.714L338.369 333.12L259.742 287.714L338.369 242.308H338.4L417.028 287.714Z" stroke="#947300" stroke-width="3.23077" stroke-miterlimit="10" stroke-linejoin="round"/>
<path d="M259.71 378.557L181.051 423.963L102.393 378.557L181.051 333.151L259.71 378.557Z" stroke="#947300" stroke-width="3.23077" stroke-miterlimit="10" stroke-linejoin="round"/>
<path d="M338.368 333.121V333.152L259.71 378.558L181.052 333.152L259.71 287.746V287.715H259.741L338.368 333.121Z" stroke="#947300" stroke-width="3.23077" stroke-miterlimit="10" stroke-linejoin="round"/>
<path d="M75.9231 157.526C75.9231 148.605 83.1554 141.372 92.0769 141.372H210H344.077V294C344.077 302.922 336.845 310.154 327.923 310.154H92.0769C83.1554 310.154 75.9231 302.922 75.9231 294V157.526Z" fill="#55B8FF"/>
<path d="M210 141.372H344.077V127.615C344.077 118.694 336.845 111.462 327.923 111.462H235.36C229.334 111.462 223.809 114.816 221.028 120.163L210 141.372Z" fill="#55B8FF"/>
<path d="M172.332 197.077H159.923L175.434 223.962L159.923 250.847H172.332L187.842 223.962L172.332 197.077Z" fill="#1A16B8"/>
<path d="M202.319 197.077H212.659V250.847H202.319V197.077Z" fill="#1A16B8"/>
<path fill-rule="evenodd" clip-rule="evenodd" d="M217.83 197.077V250.847H232.306C247.154 250.847 259.191 238.81 259.191 223.962C259.191 209.114 247.154 197.077 232.306 197.077H217.83ZM228.17 240.507H232.306C241.444 240.507 248.851 233.099 248.851 223.962C248.851 214.825 241.444 207.417 232.306 207.417H228.17V240.507Z" fill="#1A16B8"/>
<rect x="186.808" y="240.506" width="10.3404" height="10.3404" fill="white"/>
</g>
<defs>
<clipPath id="clip0_760_1526">
<rect width="420" height="420" fill="white"/>
</clipPath>
</defs>
</svg>
