<svg width="150" height="36" viewBox="0 0 150 36" fill="none" xmlns="http://www.w3.org/2000/svg">
<g clip-path="url(#clip0_551_1183)">
<path d="M29.5514 36H8.01891C4.03753 36 0.785156 32.7431 0.785156 28.7663V7.23375C0.785156 3.25237 4.03753 0 8.01891 0H29.5514C33.5283 0 36.7852 3.25237 36.7852 7.23375V28.7663C36.7852 32.7431 33.5283 36 29.5514 36Z" fill="#5177FF"/>
<path d="M23.0214 11.8688C22.7705 11.9543 22.865 12.2513 23.1283 12.2468L24.4895 12.2186L21.767 19.5176L19.1964 14.7926C18.7973 14.0471 18.2156 13.4149 17.5057 12.9553C16.7959 12.4957 15.981 12.2236 15.1374 12.1646H14.3724C13.3983 12.2306 12.4648 12.58 11.6867 13.1696C10.9085 13.7592 10.3198 14.5635 9.99276 15.4834L5.79876 27.0023C5.79209 27.0202 5.78982 27.0394 5.79215 27.0584C5.79448 27.0774 5.80133 27.0955 5.81214 27.1113C5.82295 27.1271 5.83739 27.14 5.85425 27.149C5.87111 27.1581 5.88989 27.1629 5.90901 27.1631H12.1888C12.2383 27.1631 12.2833 27.1294 12.3013 27.0844L14.936 19.8304L17.4943 24.5351C17.9519 25.3929 18.6495 26.0986 19.5018 26.5662C20.3542 27.0337 21.3243 27.2427 22.2935 27.1676C23.2647 27.1061 24.197 26.7634 24.9768 26.1813C25.7566 25.5992 26.3503 24.8029 26.6855 23.8894L31.0573 12.1646L32.2048 8.96514C32.2123 8.94384 32.2136 8.92085 32.2086 8.89883C32.2036 8.87682 32.1924 8.85668 32.1763 8.84077C32.1603 8.82486 32.1401 8.81383 32.118 8.80896C32.096 8.80409 32.073 8.80558 32.0518 8.81326L23.0214 11.8688Z" fill="white"/>
<path opacity="0.3" d="M9.98841 15.4801L5.79778 27.0012C5.79108 27.0192 5.78882 27.0386 5.79121 27.0576C5.79359 27.0767 5.80055 27.0949 5.81149 27.1107C5.82242 27.1265 5.83702 27.1394 5.85402 27.1484C5.87103 27.1573 5.88994 27.162 5.90916 27.1621H12.1889C12.2384 27.1621 12.2834 27.1283 12.3003 27.0833L14.9362 19.8293L17.4933 24.5341C17.8913 25.2802 18.4722 25.9131 19.1815 26.3735C19.8908 26.8339 20.7054 27.1068 21.5489 27.1666H22.297L14.3725 12.1636C13.398 12.2278 12.4637 12.5758 11.6846 13.1648C10.9056 13.7537 10.3159 14.5578 9.98841 15.4778V15.4801Z" fill="#515EFF"/>
<path d="M11.9708 19.213L9.05592 27.007C9.04947 27.0248 9.04738 27.044 9.04981 27.0628C9.05225 27.0816 9.05915 27.0996 9.06993 27.1152C9.08072 27.1308 9.09507 27.1437 9.11181 27.1526C9.12855 27.1616 9.14719 27.1664 9.16617 27.1667H12.1924C12.2419 27.1667 12.288 27.133 12.3049 27.088L14.9397 19.834L14.4098 19.0082C13.863 18.1487 12.3499 18.268 11.9708 19.213Z" fill="white"/>
<path opacity="0.3" d="M24.7395 20.1509L27.6465 12.5425C27.6601 12.5065 27.6647 12.4677 27.6601 12.4294C27.6555 12.3912 27.6417 12.3546 27.62 12.3228C27.5982 12.291 27.5692 12.265 27.5352 12.2468C27.5012 12.2286 27.4634 12.2189 27.4249 12.2185H24.4886L21.7661 19.5344L22.2971 20.3601C22.8484 21.2151 24.3626 21.097 24.7395 20.1509Z" fill="#515EFF"/>
<path d="M60.0013 21.3751L49.5613 11.2804C48.7423 10.4884 47.4553 10.2139 46.2875 10.5829C45.1209 10.9542 44.3638 11.8699 44.3638 12.9207V25.5747H48.0841V14.6251L58.5264 24.7186C59.1035 25.2766 59.9135 25.5792 60.7471 25.5792C61.0959 25.5792 61.4536 25.5274 61.7979 25.4161C62.9645 25.0448 63.7228 24.1302 63.7228 23.0783V10.5908H60.0013V21.3751ZM66.2731 14.3899V25.2597H69.9935V14.3899C69.9935 13.9444 70.4435 13.5653 70.9723 13.5653H83.4991V10.4322H70.9723C68.3814 10.4322 66.2731 12.2086 66.2731 14.3899Z" fill="black"/>
<path d="M83.4995 16.4205H71.4463V19.5548H83.4995V16.4205ZM86.6552 13.5653H94.0532V25.2641H97.7747V13.5653H105.173V10.4321H86.6552V13.5653ZM110.999 19.4985V16.4093C110.999 14.8444 112.511 13.5698 114.367 13.5698H125.342V10.4366H114.367C110.458 10.4366 107.278 13.1164 107.278 16.4093V19.4985C107.278 22.7914 110.458 25.4723 114.367 25.4723H121.199V22.338H114.367C112.511 22.3335 110.999 21.0634 110.999 19.4985Z" fill="black"/>
<path d="M121.673 16.3853H114.752V19.5184H121.673C122.199 19.5184 122.64 19.7974 122.64 20.1281V25.2638H126.36V20.1281C126.36 18.0615 124.26 16.3853 121.673 16.3853Z" fill="#5177FF"/>
<path d="M140.963 10.5684H136.344C132.147 10.5684 128.733 13.4472 128.733 16.982V19.0565C128.733 22.5924 132.147 25.4712 136.344 25.4712H140.963C145.162 25.4712 148.574 22.5924 148.574 19.0565V16.982C148.574 13.4427 145.162 10.5684 140.963 10.5684ZM144.857 19.0565C144.857 20.8644 143.113 22.3381 140.968 22.3381H136.349C134.203 22.3381 132.459 20.8689 132.459 19.0565V16.982C132.459 15.1752 134.203 13.7015 136.349 13.7015H140.968C143.113 13.7015 144.857 15.1707 144.857 16.982V19.0565Z" fill="black"/>
</g>
<defs>
<clipPath id="clip0_551_1183">
<rect width="148.5" height="36" fill="white" transform="translate(0.785156)"/>
</clipPath>
</defs>
</svg>
