<svg width="147" height="36" viewBox="0 0 147 36" fill="none" xmlns="http://www.w3.org/2000/svg">
<g clip-path="url(#clip0_551_1111)">
<path d="M101.862 21.255C99.8325 18.2398 94.9361 16.6354 91.4328 15.6904C91.0231 15.5824 90.6001 15.4743 90.148 15.3641H90.112C88.2239 14.8871 86.0819 14.3583 84.4146 13.4537C82.5041 12.4074 81.5681 11.0506 81.5681 9.30671C81.5681 9.02319 81.5929 8.74192 81.6469 8.46291V8.41341C81.6739 8.28516 81.7076 8.15914 81.7481 8.03314C81.7526 8.01514 81.7571 7.99939 81.7639 7.98362V7.96562C82.0114 7.24333 82.4254 6.58855 82.9723 6.05526C84.3876 4.62192 86.6489 3.81637 89.1826 3.81637H89.2613C91.1266 3.85687 92.9628 4.2889 94.6526 5.08544C96.3403 5.85049 97.8637 6.93282 99.1462 8.27164L99.1777 11.9034V11.9416H102.33V1.00144H99.1845V3.4811C99.1845 3.5171 99.1665 3.5531 99.135 3.5711C99.1056 3.5711 99.0675 3.5531 99.0495 3.53285C97.7173 2.52028 96.2345 1.72149 94.6571 1.1657C92.9651 0.587416 91.192 0.279146 89.4031 0.254395C87.3509 0.254395 85.6746 0.492911 84.2751 0.94969C83.1118 1.33671 82.0294 1.93974 81.0866 2.72505C80.0606 3.5261 79.2369 4.55667 78.6812 5.73124C78.1434 6.86532 77.8621 8.10289 77.8554 9.35621C77.8396 10.0988 77.9319 10.8391 78.1299 11.5569C78.3729 12.3489 78.7352 13.1004 79.2054 13.7845C79.2459 13.8497 79.2932 13.9105 79.3359 13.9735C79.3787 14.0365 79.3809 14.0342 79.4034 14.0635L79.4327 14.1018C81.4984 16.9549 86.1111 18.2195 89.4751 19.1488L89.5673 19.1737L90.3145 19.3807L91.1245 19.5988C92.8773 20.0287 94.5941 20.6002 96.2548 21.309C97.1212 21.6915 97.8862 22.2698 98.4868 23.0033C99.0427 23.6807 99.4207 24.4883 99.5827 25.3502C99.7402 26.2097 99.675 27.0964 99.3936 27.9222C99.063 28.8739 98.5162 29.738 97.7962 30.4422C97.0063 31.1465 96.077 31.6775 95.0711 32.0039C94.0923 32.3189 93.0753 32.5012 92.047 32.5462C90.4021 32.6249 88.7551 32.4382 87.1709 31.9949C84.4843 31.1444 82.0316 29.504 80.4407 27.499C80.3867 27.4339 80.3486 27.3595 80.3237 27.2785L80.2922 24.1553V24.1148H77.1399V35.5501H80.2946V32.2064C81.6131 33.3652 83.1388 34.2631 84.7948 34.8481C86.7299 35.5614 88.7686 35.9506 90.8296 36.0001H91.0861C92.8368 36.0001 96.932 36.0001 100.145 33.2797C101.034 32.5102 101.772 31.5809 102.317 30.5367C102.841 29.5332 103.183 28.4442 103.327 27.3214C103.473 26.2457 103.424 25.1522 103.179 24.0947C102.947 23.0663 102.499 22.0965 101.864 21.255H101.862Z" fill="black"/>
<path d="M70.7308 21.255C68.7418 18.2555 63.8253 16.6422 60.3014 15.6926C59.9009 15.5869 59.4848 15.4856 59.0436 15.3753C55.2229 14.4325 50.4639 13.2535 50.4099 9.29771C50.4099 8.70142 50.5359 8.11189 50.7813 7.5696C51.0444 6.99807 51.4112 6.48053 51.8612 6.04176C53.2946 4.62867 55.5424 3.81637 58.056 3.81637H58.1346C60 3.85687 61.8338 4.2889 63.5215 5.08544C65.2023 5.85049 66.719 6.93282 67.988 8.27164L68.051 11.9034V11.9439H71.2035V1.00144H68.0576V3.4811C68.0576 3.5171 68.0398 3.55085 68.0105 3.5711C67.9857 3.5711 67.9586 3.5711 67.9226 3.53285C66.5906 2.52028 65.1078 1.72149 63.5305 1.1657C61.8383 0.587416 60.0653 0.279146 58.2764 0.254395C56.2129 0.254395 54.5321 0.492911 53.1371 0.94969C51.9759 1.33896 50.9004 1.93974 49.9599 2.72505C48.9337 3.5261 48.1102 4.55667 47.5544 5.73124C47.0144 6.86757 46.7309 8.10739 46.7242 9.36521C46.7084 10.1078 46.8007 10.8458 46.9942 11.5636C47.2327 12.3512 47.5859 13.1004 48.0406 13.7845C50.0206 16.8694 54.8651 18.1948 58.4001 19.1647L58.4834 19.1872L59.1854 19.3807L59.9258 19.5787L59.9955 19.5967C61.7483 20.0263 63.4651 20.598 65.1258 21.3067C65.9967 21.6937 66.764 22.2788 67.3715 23.0123C67.9295 23.6987 68.3098 24.5132 68.4718 25.3817C68.627 26.2435 68.5595 27.13 68.276 27.9559C67.943 28.9077 67.3917 29.7695 66.6695 30.4715C65.8842 31.1735 64.9593 31.7024 63.9558 32.0219C62.9746 32.3369 61.9553 32.5147 60.9248 32.5529C60.7133 32.5529 60.4905 32.5664 60.2655 32.5664C58.8255 32.5709 57.3921 32.3752 56.0059 31.9859C55.8463 31.9364 55.6843 31.88 55.5289 31.8239H55.5043C55.1824 31.709 54.8584 31.5854 54.5479 31.439C52.9886 30.755 51.5643 29.8032 50.3379 28.6242L50.2749 28.5634C50.0836 28.3722 49.8901 28.1697 49.7034 27.9559L49.5594 27.7917C49.4761 27.6925 49.3951 27.598 49.3209 27.4969C49.2691 27.4315 49.2307 27.3574 49.2061 27.2785L49.1746 24.1553V24.1148H45.9771V35.5501H49.1632V32.2064C50.4819 33.3652 52.0074 34.2631 53.6636 34.8481C55.5988 35.5614 57.6373 35.9506 59.6984 36.0001H59.955C61.6966 36.0001 65.7738 36.0001 69.014 33.2797C69.9028 32.5102 70.6408 31.5809 71.1855 30.5367C71.7097 29.54 72.054 28.4577 72.2002 27.3415C72.3465 26.266 72.297 25.1725 72.0517 24.1148C71.8222 23.0775 71.3722 22.1033 70.7332 21.2527L70.7308 21.255Z" fill="black"/>
<path d="M38.3971 32.8295L29.779 19.8013C31.2394 19.8574 32.6929 19.5761 34.025 18.9776C35.9084 18.0213 37.4227 16.8108 38.3521 15.0197C39.1081 13.5413 39.4996 11.9032 39.4927 10.2426C39.4927 7.63021 38.4622 5.1258 36.626 3.26717C34.6347 1.46257 32.1484 0.582764 29.0207 0.582764H12.3269V4.1875H15.8708V32.8745H12.0164V35.8897H23.2063V32.8745H19.6016V19.8553H25.632L34.0745 32.8745H30.238V35.8897H42.2807V32.8745H38.5141C38.4691 32.8768 38.4262 32.861 38.3947 32.8318L38.3971 32.8295ZM28.8383 4.02548C31.6759 4.02548 33.854 5.1528 34.9565 7.09018C36.0365 9.06805 35.9984 11.4689 34.8552 13.4131C33.7234 15.3234 32.3847 16.3788 29.419 16.3788H19.5993V4.02548H28.8383Z" fill="black"/>
<path d="M132.092 25.4491C132.092 21.1243 129.907 17.9989 126.282 16.66C129.356 15.0444 130.713 12.3893 130.713 9.65534C130.713 3.34372 125.418 0 118.512 0C114.744 0.0292518 110.727 1.28258 107.982 5.13482L110.849 7.00468C112.383 4.93906 114.573 3.34372 118.512 3.34372C123.528 3.34372 127.088 5.38009 127.088 9.25933C127.088 13.1386 123.519 15.0467 119.865 15.0467H114.888V18.6289H120.153C124.813 18.6289 128.496 21.1401 128.382 25.4086C128.121 29.9471 124.122 32.384 118.888 32.384C115.52 32.384 111.78 31.3241 108.988 28.3383L108.844 28.2843L106.398 30.962L106.513 30.9911C110.023 34.2853 114.197 35.9887 118.886 35.9887C126.109 35.9752 132.092 32.0668 132.092 25.4513V25.4491Z" fill="black"/>
<path d="M9.6936 16.3538H0.623291V20.0575H9.6936V16.3538Z" fill="#0072FF"/>
<path d="M144.939 16.3538H135.868V20.0575H144.939V16.3538Z" fill="#0072FF"/>
</g>
<defs>
<clipPath id="clip0_551_1111">
<rect width="145.8" height="36" fill="white" transform="translate(0.623291)"/>
</clipPath>
</defs>
</svg>
