<svg width="450" height="450" viewBox="0 0 450 450" fill="none" xmlns="http://www.w3.org/2000/svg">
<rect width="450" height="450" fill="#1A16B8"/>
<path d="M31.892 58.5V56.724H37.22V48.276H33.596V46.812L35.804 46.764C37.268 46.74 37.436 46.38 37.46 42.54H39.188V56.724H43.604V58.5H31.892ZM31.94 93.5C31.94 90.26 32.492 89.3 36.668 87.356C40.628 85.508 41.252 84.548 41.252 82.46C41.252 80.588 39.932 79.268 37.724 79.268C35.228 79.268 33.86 80.828 33.86 83.276C33.86 84.02 33.932 84.74 34.004 85.1H32.18C32.108 84.74 32.036 83.996 32.036 83.18C32.036 79.7 34.124 77.492 37.772 77.492C41.132 77.492 43.22 79.532 43.22 82.46C43.22 84.86 42.332 86.516 37.724 88.676C34.34 90.26 33.956 90.74 33.956 91.724H43.508V93.5H31.94ZM37.556 128.716C33.908 128.716 31.58 126.844 31.58 123.772C31.58 123.436 31.628 122.956 31.652 122.692H33.476C33.452 123.1 33.452 123.34 33.452 123.46C33.452 125.74 34.916 126.94 37.556 126.94C40.268 126.94 41.924 125.692 41.924 123.532C41.924 121.948 40.796 121.132 38.876 121.132H36.404V119.692H38.492C40.316 119.692 41.252 118.708 41.252 117.172C41.252 115.348 39.86 114.268 37.748 114.268C35.204 114.268 33.812 115.54 33.812 117.556C33.812 117.988 33.836 118.324 33.86 118.564H32.036C31.988 118.324 31.94 117.796 31.94 117.268C31.94 114.364 34.1 112.492 37.748 112.492C41.036 112.492 43.172 114.172 43.172 116.956C43.172 118.516 42.284 119.788 40.916 120.1V120.148C42.74 120.388 43.892 121.756 43.892 123.652C43.892 126.748 41.468 128.716 37.556 128.716ZM40.028 163.5V159.78H31.364V158.004L39.764 147.708H41.996V158.004H44.612V159.78H41.996V163.5H40.028ZM33.476 158.004H40.028V150.012H40.004L33.476 157.98V158.004ZM37.868 198.716C34.268 198.716 31.892 197.012 31.892 194.42C31.892 194.204 31.916 193.964 31.94 193.844H33.788C33.764 194.06 33.764 194.204 33.764 194.324C33.764 195.908 35.396 196.94 37.868 196.94C40.244 196.94 41.78 195.308 41.78 193.124C41.78 191.06 40.244 189.764 37.82 189.764C36.044 189.764 34.532 190.58 34.004 191.852L32.132 191.66L32.756 182.708H42.788V184.484H34.412L33.956 190.388H34.004C34.508 189.044 36.068 188.18 38.252 188.18C41.684 188.18 43.748 190.124 43.748 193.124C43.748 196.388 41.468 198.716 37.868 198.716ZM38.036 233.716C33.452 233.716 31.58 230.812 31.58 225.628C31.58 220.636 33.836 217.492 38.036 217.492C41.468 217.492 43.388 219.34 43.388 222.244C43.388 222.532 43.364 222.892 43.34 223.084H41.468C41.492 222.916 41.516 222.652 41.516 222.268C41.516 220.492 40.34 219.268 38.036 219.268C35.036 219.268 33.548 221.62 33.548 225.556C33.548 226.3 33.548 226.9 33.572 227.116H33.62C33.884 225.388 35.684 224.284 38.276 224.284C42.02 224.284 43.916 225.964 43.916 228.652C43.916 231.724 41.588 233.716 38.036 233.716ZM38.06 231.988C40.412 231.988 41.948 230.668 41.948 228.676C41.948 226.924 40.628 225.868 38.084 225.868C35.492 225.868 33.836 227.212 33.836 228.82C34.028 230.644 35.66 231.988 38.06 231.988ZM34.052 268.5C35.372 262.884 38.036 258.276 41.804 254.556V254.532H31.46V252.708H44.084V254.364C39.284 259.188 37.628 262.884 36.308 268.5H34.052ZM37.748 303.716C33.98 303.716 31.58 301.916 31.58 299.012C31.58 297.068 32.876 295.628 34.796 295.292V295.268C33.164 294.956 32.252 293.588 32.252 291.98C32.252 289.172 34.388 287.492 37.748 287.492C41.108 287.492 43.244 289.172 43.244 291.98C43.244 293.588 42.332 294.956 40.7 295.268V295.292C42.596 295.628 43.916 297.068 43.916 299.012C43.916 301.916 41.516 303.716 37.748 303.716ZM37.748 294.668C39.956 294.668 41.372 293.612 41.372 291.98C41.372 290.3 39.956 289.22 37.748 289.22C35.54 289.22 34.124 290.3 34.124 291.98C34.124 293.612 35.54 294.668 37.748 294.668ZM37.748 301.988C40.316 301.988 41.948 300.812 41.948 299.012C41.948 297.26 40.316 296.156 37.748 296.156C35.18 296.156 33.548 297.26 33.548 299.012C33.548 300.812 35.18 301.988 37.748 301.988ZM37.652 338.716C34.052 338.716 31.94 336.916 31.94 334.348C31.94 334.204 31.94 333.868 31.964 333.556H33.836C33.812 333.82 33.812 334.084 33.812 334.18C33.812 335.812 35.18 336.964 37.628 336.964C40.46 336.964 41.924 334.828 41.924 330.676C41.924 330.22 41.924 329.62 41.876 329.164H41.828C41.588 331.06 39.908 332.38 37.244 332.38C33.668 332.38 31.58 330.532 31.58 327.724C31.58 324.58 33.812 322.492 37.556 322.492C41.42 322.492 43.916 324.652 43.916 330.436C43.916 335.932 41.684 338.716 37.652 338.716ZM37.316 330.796C39.932 330.796 41.588 329.332 41.588 327.292C41.468 325.564 39.956 324.244 37.532 324.244C35.012 324.244 33.548 325.636 33.548 327.724C33.548 329.596 35.012 330.796 37.316 330.796ZM31.892 373.5V371.724H37.22V363.276H33.596V361.812L35.804 361.764C37.268 361.74 37.436 361.38 37.46 357.54H39.188V371.724H43.604V373.5H31.892ZM52.2324 373.716C48.3204 373.716 46.0644 370.572 46.0644 365.532C46.0644 360.588 48.3204 357.492 52.2324 357.492C56.1444 357.492 58.4004 360.588 58.4004 365.532C58.4004 370.572 56.1444 373.716 52.2324 373.716ZM52.2324 371.94C54.9444 371.94 56.4324 369.492 56.4324 365.532C56.4324 361.668 54.9444 359.268 52.2324 359.268C49.5204 359.268 48.0324 361.668 48.0324 365.532C48.0324 369.492 49.5204 371.94 52.2324 371.94ZM31.892 408.5V406.724H37.22V398.276H33.596V396.812L35.804 396.764C37.268 396.74 37.436 396.38 37.46 392.54H39.188V406.724H43.604V408.5H31.892ZM46.3764 408.5V406.724H51.7044V398.276H48.0804V396.812L50.2884 396.764C51.7524 396.74 51.9204 396.38 51.9444 392.54H53.6724V406.724H58.0884V408.5H46.3764Z" fill="white"/>
<rect x="81.1327" y="42.5" width="339.367" height="17.5399" fill="#241EEC"/>
<rect x="81.1327" y="77.3459" width="339.367" height="17.5399" fill="#241EEC"/>
<rect x="81.1327" y="112.192" width="339.367" height="17.5399" fill="#241EEC"/>
<rect x="81.1327" y="147.038" width="339.367" height="17.5399" fill="#241EEC"/>
<rect x="81.1327" y="181.884" width="339.367" height="17.5399" fill="#241EEC"/>
<rect x="81.1327" y="216.73" width="339.367" height="17.5399" fill="#241EEC"/>
<rect x="81.1327" y="251.576" width="339.367" height="17.5399" fill="#241EEC"/>
<rect x="81.1327" y="286.422" width="339.367" height="17.5399" fill="#241EEC"/>
<rect x="81.1327" y="321.268" width="339.367" height="17.5399" fill="#241EEC"/>
<rect x="81.1327" y="356.114" width="339.367" height="17.5399" fill="#241EEC"/>
<rect x="81.1327" y="390.96" width="339.367" height="17.5399" fill="#241EEC"/>
<path fill-rule="evenodd" clip-rule="evenodd" d="M331.814 233.728C321.224 226.845 309.321 223.29 297.293 223.299C285.265 223.309 273.366 226.881 262.784 233.781C252.188 240.689 243.252 250.717 236.996 262.972C230.739 275.23 227.427 289.207 227.462 303.482L227.462 303.507V314.771C227.462 314.87 227.461 314.97 227.458 315.07C226.699 340.762 229.631 366.415 236.132 391.032L238.724 400.846L219.055 406.019L216.463 396.205C209.473 369.738 206.322 342.193 207.122 314.623V303.519C207.081 286.121 211.111 268.962 218.872 253.758C226.637 238.547 237.904 225.754 251.659 216.787C265.427 207.81 281.166 203.012 297.277 203C313.389 202.988 329.134 207.761 342.914 216.717L351.436 222.256L340.336 239.266L331.814 233.728ZM370.56 244.714L375.351 253.666C380.641 263.551 383.623 275.443 385.323 286.188C386.351 292.686 386.949 299.015 387.263 304.618H387.557V314.768C387.557 321.742 388.148 328.216 389.865 334.157C395.652 354.18 404.774 367.762 413.381 377.782L420 385.488L404.557 398.699L397.938 390.993C387.871 379.273 377.081 363.174 370.321 339.782C367.879 331.331 367.217 322.773 367.217 314.768C367.217 308.28 366.753 298.969 365.232 289.355C363.691 279.619 361.169 270.255 357.41 263.23L352.618 254.277L370.56 244.714ZM297.335 268.598C289.84 268.598 282.364 271.939 276.644 278.378C270.89 284.856 267.482 293.878 267.482 303.504V313.654H247.141V303.504C247.141 289.231 252.167 275.333 261.424 264.912C270.716 254.451 283.601 248.299 297.335 248.299C311.07 248.299 323.954 254.451 333.247 264.912C342.504 275.333 347.53 289.231 347.53 303.504V314.768C347.53 337.227 354.007 358.97 365.84 376.732L371.471 385.184L354.533 396.423L348.902 387.971C334.756 366.738 327.189 341.053 327.189 314.768V303.504C327.189 293.878 323.781 284.856 318.026 278.378C312.307 271.939 304.831 268.598 297.335 268.598ZM307.506 293.353V326.041C307.476 356.439 315.721 386.029 331.012 410.822L336.343 419.466L319.021 430.106L313.69 421.462C296.347 393.344 287.133 360.042 287.166 326.026C287.166 326.024 287.166 326.022 287.166 326.021V293.353H307.506ZM266.377 337.416L267.427 347.511C269.767 370.007 275.59 391.837 284.61 412.007L288.754 421.275L270.179 429.548L266.035 420.279C256.121 398.109 249.752 374.191 247.195 349.607L246.145 339.512L266.377 337.416Z" fill="url(#paint0_linear_551_1467)"/>
<defs>
<linearGradient id="paint0_linear_551_1467" x1="313.5" y1="203" x2="313.5" y2="430.106" gradientUnits="userSpaceOnUse">
<stop stop-color="#EECB50"/>
<stop offset="1" stop-color="#70D7E6"/>
</linearGradient>
</defs>
</svg>
