<svg width="118" height="150" viewBox="0 0 118 150" fill="none" xmlns="http://www.w3.org/2000/svg">
<path fill-rule="evenodd" clip-rule="evenodd" d="M4.60123 94.7853C2.06022 94.7853 0 96.8453 0 99.3865V145.399C0 147.94 2.06022 150 4.60123 150H71.7791C74.3202 150 76.3804 147.94 76.3804 145.399V99.3865C76.3804 96.8453 74.3202 94.7853 71.7791 94.7853H4.60123ZM68.0982 126.994C70.6392 126.994 72.6994 124.934 72.6994 122.393C72.6994 119.851 70.6392 117.791 68.0982 117.791C65.5572 117.791 63.4969 119.851 63.4969 122.393C63.4969 124.934 65.5572 126.994 68.0982 126.994Z" fill="url(#paint0_linear_551_1512)"/>
<path fill-rule="evenodd" clip-rule="evenodd" d="M91.1043 94.7853C88.5633 94.7853 86.5031 96.8453 86.5031 99.3865V145.399C86.5031 147.94 88.5633 150 91.1043 150H113.19C115.731 150 117.791 147.94 117.791 145.399V99.3865C117.791 96.8453 115.731 94.7853 113.19 94.7853H91.1043ZM102.147 147.239C104.688 147.239 106.748 145.179 106.748 142.638C106.748 140.097 104.688 138.037 102.147 138.037C99.6062 138.037 97.546 140.097 97.546 142.638C97.546 145.179 99.6062 147.239 102.147 147.239Z" fill="url(#paint1_linear_551_1512)"/>
<path fill-rule="evenodd" clip-rule="evenodd" d="M4.60123 0C2.06022 0 0 2.05999 0 4.60123V81.9018C0 84.4431 2.06022 86.5031 4.60123 86.5031H113.19C115.731 86.5031 117.791 84.4431 117.791 81.9018V4.60123C117.791 2.05999 115.731 0 113.19 0H4.60123ZM58.8957 14.7239C61.4367 14.7239 63.4969 12.6639 63.4969 10.1227C63.4969 7.58147 61.4367 5.52147 58.8957 5.52147C56.3547 5.52147 54.2945 7.58147 54.2945 10.1227C54.2945 12.6639 56.3547 14.7239 58.8957 14.7239Z" fill="url(#paint2_linear_551_1512)"/>
<defs>
<linearGradient id="paint0_linear_551_1512" x1="58.8957" y1="0" x2="58.8957" y2="150" gradientUnits="userSpaceOnUse">
<stop stop-color="#EECB50"/>
<stop offset="1" stop-color="#70D7E6"/>
</linearGradient>
<linearGradient id="paint1_linear_551_1512" x1="58.8957" y1="0" x2="58.8957" y2="150" gradientUnits="userSpaceOnUse">
<stop stop-color="#EECB50"/>
<stop offset="1" stop-color="#70D7E6"/>
</linearGradient>
<linearGradient id="paint2_linear_551_1512" x1="58.8957" y1="0" x2="58.8957" y2="150" gradientUnits="userSpaceOnUse">
<stop stop-color="#EECB50"/>
<stop offset="1" stop-color="#70D7E6"/>
</linearGradient>
</defs>
</svg>
