<svg width="150" height="150" viewBox="0 0 150 150" fill="none" xmlns="http://www.w3.org/2000/svg">
<path d="M0 80C0 77.2386 2.23858 75 5 75H36.6667C39.4281 75 41.6667 77.2386 41.6667 80V145C41.6667 147.761 39.4281 150 36.6667 150H5.00001C2.23858 150 0 147.761 0 145V80Z" fill="url(#paint0_linear_551_1507)"/>
<path d="M54.1667 30C54.1667 27.2386 56.4052 25 59.1667 25H90.8333C93.5947 25 95.8333 27.2386 95.8333 30V145C95.8333 147.761 93.5948 150 90.8333 150H59.1667C56.4052 150 54.1667 147.761 54.1667 145V30Z" fill="url(#paint1_linear_551_1507)"/>
<path d="M108.333 5C108.333 2.23858 110.572 0 113.333 0H145C147.761 0 150 2.23858 150 5V145C150 147.761 147.761 150 145 150H113.333C110.572 150 108.333 147.761 108.333 145V5Z" fill="url(#paint2_linear_551_1507)"/>
<defs>
<linearGradient id="paint0_linear_551_1507" x1="118.125" y1="24" x2="118.125" y2="173.752" gradientUnits="userSpaceOnUse">
<stop offset="0.0509862" stop-color="#1A16B8"/>
<stop offset="1" stop-color="#EECB50"/>
</linearGradient>
<linearGradient id="paint1_linear_551_1507" x1="118.125" y1="24" x2="118.125" y2="173.752" gradientUnits="userSpaceOnUse">
<stop offset="0.0509862" stop-color="#1A16B8"/>
<stop offset="1" stop-color="#EECB50"/>
</linearGradient>
<linearGradient id="paint2_linear_551_1507" x1="118.125" y1="24" x2="118.125" y2="173.752" gradientUnits="userSpaceOnUse">
<stop offset="0.0509862" stop-color="#1A16B8"/>
<stop offset="1" stop-color="#EECB50"/>
</linearGradient>
</defs>
</svg>
