<svg width="240" height="240" viewBox="0 0 240 240" fill="none" xmlns="http://www.w3.org/2000/svg">
<rect width="240" height="240" fill="#EECB50"/>
<path d="M69.3748 83.2502H52.5L73.5935 119.813L52.5 156.376H69.3748L90.4682 119.813L69.3748 83.2502Z" fill="#1A16B8"/>
<path d="M110.152 83.25H124.215V156.375H110.152V83.25Z" fill="#1A16B8"/>
<path fill-rule="evenodd" clip-rule="evenodd" d="M131.252 83.25V156.375H150.939C171.132 156.375 187.501 140.006 187.501 119.813C187.501 99.6197 171.132 83.25 150.939 83.25H131.252ZM145.314 142.313H150.939C163.365 142.313 173.439 132.239 173.439 119.813C173.439 107.386 163.365 97.3126 150.939 97.3126H145.314V142.313Z" fill="#1A16B8"/>
<rect x="89.0605" y="142.312" width="14.0623" height="14.0626" fill="white"/>
</svg>
