<svg width="240" height="240" viewBox="0 0 240 240" fill="none" xmlns="http://www.w3.org/2000/svg">
<rect width="240" height="240" fill="#1A16B8"/>
<path fill-rule="evenodd" clip-rule="evenodd" d="M165 103.129V127.734H89.9998L86.7733 127.734C90.1884 142.664 103.742 153.815 119.943 153.815C133.337 153.815 144.921 146.193 150.463 135.116H165V155.783C165 160.676 160.97 164.641 156 164.641H84C79.0295 164.641 75 160.676 75 155.783V103.129H165ZM141.832 135.116C137.059 141.984 129.036 146.491 119.943 146.491C110.851 146.491 102.828 141.984 98.0546 135.116H141.832ZM100.75 109.034C93.697 109.034 87.8622 114.167 86.8918 120.844H94.5636C95.407 118.274 97.8579 116.416 100.75 116.416C103.642 116.416 106.093 118.274 106.936 120.844H114.608C113.638 114.167 107.803 109.034 100.75 109.034ZM139.25 109.034C132.197 109.034 126.362 114.167 125.392 120.844H133.063C133.907 118.274 136.358 116.416 139.25 116.416C142.142 116.416 144.593 118.274 145.436 120.844H153.108C152.138 114.167 146.303 109.034 139.25 109.034ZM156 76.0632C160.97 76.0632 165 80.029 165 84.9209V95.7471H75V84.9209C75 80.029 79.0295 76.0632 84 76.0632H156Z" fill="white"/>
</svg>
