<svg width="463" height="374" viewBox="0 0 463 374" fill="none" xmlns="http://www.w3.org/2000/svg">
<path d="M93.8844 282.928V251.024H5.30941V225.417C11.7461 217.441 18.0429 208.626 24.1998 198.971C30.4966 189.316 36.3037 179.171 41.621 168.536C46.9383 157.902 51.346 147.127 54.8442 136.213H90.736C89.4766 141.95 87.3077 148.177 84.2293 154.893C81.1509 161.47 77.5127 168.187 73.3149 175.043C69.2569 181.9 64.9191 188.546 60.3015 194.983C55.6838 201.42 51.0662 207.297 46.4485 212.614C41.9708 217.791 37.9128 222.199 34.2747 225.837H93.8844V188.896C95.5636 186.097 97.2427 183.159 98.9218 180.08C100.741 176.862 102.49 173.644 104.169 170.425C105.848 167.067 107.318 163.919 108.577 160.98C109.976 157.902 111.166 155.103 112.145 152.584H126.838V225.837H153.074V251.024H126.838V282.928H93.8844Z" fill="url(#paint0_linear_1061_2147)"/>
<path d="M241.588 332.364C229.134 332.364 218.43 330.685 209.474 327.327C200.659 323.969 193.382 319.071 187.645 312.634C182.048 306.198 177.92 298.432 175.261 289.336C172.603 280.101 171.273 269.536 171.273 257.642C171.273 245.748 172.603 235.254 175.261 226.158C177.92 216.923 182.048 209.087 187.645 202.65C193.242 196.214 200.449 191.386 209.264 188.168C218.22 184.809 228.924 183.13 241.378 183.13C253.832 183.13 264.466 184.809 273.282 188.168C282.237 191.386 289.513 196.214 295.111 202.65C300.848 209.087 304.976 216.923 307.494 226.158C310.153 235.254 311.482 245.748 311.482 257.642C311.482 269.536 310.153 280.101 307.494 289.336C304.976 298.432 300.918 306.198 295.32 312.634C289.723 319.071 282.447 323.969 273.492 327.327C264.676 330.685 254.041 332.364 241.588 332.364ZM241.588 308.437C250.403 308.437 257.4 306.757 262.577 303.399C267.894 299.901 271.742 294.724 274.121 287.867C276.5 281.011 277.689 272.405 277.689 262.05V252.815C277.689 242.6 276.5 234.134 274.121 227.418C271.742 220.561 267.894 215.454 262.577 212.096C257.4 208.737 250.403 207.058 241.588 207.058C232.912 207.058 225.916 208.737 220.598 212.096C215.281 215.454 211.433 220.561 209.054 227.418C206.675 234.134 205.486 242.6 205.486 252.815V262.05C205.486 272.405 206.675 281.011 209.054 287.867C211.433 294.724 215.281 299.901 220.598 303.399C225.916 306.757 232.912 308.437 241.588 308.437Z" fill="url(#paint1_linear_1061_2147)"/>
<path d="M397.612 221.195V189.291H309.037V163.684C315.474 155.708 321.771 146.893 327.928 137.237C334.225 127.582 340.032 117.438 345.349 106.803C350.666 96.1683 355.074 85.3938 358.572 74.4794H394.464C393.205 80.2165 391.036 86.4433 387.957 93.1599C384.879 99.7365 381.241 106.453 377.043 113.31C372.985 120.166 368.647 126.813 364.029 133.25C359.412 139.686 354.794 145.563 350.177 150.881C345.699 156.058 341.641 160.466 338.003 164.104H397.612V127.163C399.292 124.364 400.971 121.426 402.65 118.347C404.469 115.129 406.218 111.91 407.897 108.692C409.576 105.334 411.046 102.185 412.305 99.2468C413.704 96.1683 414.894 93.3698 415.873 90.851H430.566V164.104H456.802V189.291H430.566V221.195H397.612Z" fill="url(#paint2_linear_1061_2147)"/>
<path d="M128.06 4.47612H298.033V30.9659V129.795H128.06V30.9659V4.47612Z" stroke="url(#paint3_linear_1061_2147)" stroke-width="8.64267"/>
<circle cx="145.489" cy="16.9668" r="4.46538" fill="url(#paint4_linear_1061_2147)"/>
<circle cx="159.777" cy="16.9668" r="4.46538" fill="url(#paint5_linear_1061_2147)"/>
<circle cx="174.067" cy="16.9668" r="4.46538" fill="url(#paint6_linear_1061_2147)"/>
<line x1="186.253" y1="97.644" x2="239.838" y2="97.644" stroke="url(#paint7_linear_1061_2147)" stroke-width="8.64267"/>
<path d="M159.544 77.9389L174.056 61.944L160.847 47.0723H170.866L178.909 56.6423H179.403L187.715 47.0723H197.015L183.851 61.6295L198.408 77.9389H188.344L178.954 66.8862H178.459L168.844 77.9389H159.544Z" fill="url(#paint8_linear_1061_2147)"/>
<path d="M226.216 77.9389L240.728 61.944L227.519 47.0723H237.538L245.58 56.6423H246.075L254.387 47.0723H263.687L250.523 61.6295L265.08 77.9389H255.016L245.625 66.8862H245.131L235.516 77.9389H226.216Z" fill="url(#paint9_linear_1061_2147)"/>
<defs>
<linearGradient id="paint0_linear_1061_2147" x1="125.484" y1="135.408" x2="3.33001" y2="222.096" gradientUnits="userSpaceOnUse">
<stop offset="0.197917" stop-color="#1A16B8"/>
<stop offset="1" stop-color="#55B8FF"/>
</linearGradient>
<linearGradient id="paint1_linear_1061_2147" x1="288.354" y1="182.326" x2="165.462" y2="271.182" gradientUnits="userSpaceOnUse">
<stop offset="0.197917" stop-color="#1A16B8"/>
<stop offset="1" stop-color="#55B8FF"/>
</linearGradient>
<linearGradient id="paint2_linear_1061_2147" x1="429.213" y1="73.6748" x2="307.058" y2="160.363" gradientUnits="userSpaceOnUse">
<stop offset="0.197917" stop-color="#1A16B8"/>
<stop offset="1" stop-color="#55B8FF"/>
</linearGradient>
<linearGradient id="paint3_linear_1061_2147" x1="264.398" y1="21.5886" x2="191.771" y2="120.131" gradientUnits="userSpaceOnUse">
<stop offset="0.197917" stop-color="#1A16B8"/>
<stop offset="1" stop-color="#55B8FF"/>
</linearGradient>
<linearGradient id="paint4_linear_1061_2147" x1="148.057" y1="13.9304" x2="142.989" y2="19.0879" gradientUnits="userSpaceOnUse">
<stop offset="0.197917" stop-color="#1A16B8"/>
<stop offset="1" stop-color="#55B8FF"/>
</linearGradient>
<linearGradient id="paint5_linear_1061_2147" x1="162.345" y1="13.9304" x2="157.277" y2="19.0879" gradientUnits="userSpaceOnUse">
<stop offset="0.197917" stop-color="#1A16B8"/>
<stop offset="1" stop-color="#55B8FF"/>
</linearGradient>
<linearGradient id="paint6_linear_1061_2147" x1="176.635" y1="13.9304" x2="171.567" y2="19.0879" gradientUnits="userSpaceOnUse">
<stop offset="0.197917" stop-color="#1A16B8"/>
<stop offset="1" stop-color="#55B8FF"/>
</linearGradient>
<linearGradient id="paint7_linear_1061_2147" x1="228.451" y1="102.125" x2="228.43" y2="103.26" gradientUnits="userSpaceOnUse">
<stop offset="0.197917" stop-color="#1A16B8"/>
<stop offset="1" stop-color="#55B8FF"/>
</linearGradient>
<linearGradient id="paint8_linear_1061_2147" x1="190.149" y1="52.0109" x2="173.155" y2="73.7861" gradientUnits="userSpaceOnUse">
<stop offset="0.197917" stop-color="#1A16B8"/>
<stop offset="1" stop-color="#55B8FF"/>
</linearGradient>
<linearGradient id="paint9_linear_1061_2147" x1="256.821" y1="52.0109" x2="239.827" y2="73.7861" gradientUnits="userSpaceOnUse">
<stop offset="0.197917" stop-color="#1A16B8"/>
<stop offset="1" stop-color="#55B8FF"/>
</linearGradient>
</defs>
</svg>
