<svg width="126" height="32" viewBox="0 0 126 32" fill="none" xmlns="http://www.w3.org/2000/svg">
<path d="M25 0H45.9231V6.15385H31.1538V25.8462H45.9231V32H25V0Z" fill="white"/>
<path d="M57.0001 0H64.3847L55.1539 16L64.3847 32H57.0001L47.7693 16L57.0001 0Z" fill="white"/>
<path d="M45.9231 0H38.5385L47.7692 16L38.5385 32H45.9231L55.1538 16L45.9231 0Z" fill="#55B8FF"/>
<path d="M7.15385 0L21.9231 32H15.7692L7.15385 13.3333V32H1V0H7.15385Z" fill="white"/>
<path d="M67.4615 0V6.15385H70.5385V32H76.6923V6.15385H88.3846V0H67.4615Z" fill="white"/>
<rect x="91.4615" width="6.15385" height="32" fill="white"/>
<path fill-rule="evenodd" clip-rule="evenodd" d="M100.692 0V32H109.308C118.144 32 125.308 24.8366 125.308 16C125.308 7.16344 118.144 0 109.308 0H100.692ZM106.846 25.8462H109.308C114.746 25.8462 119.154 21.4379 119.154 16C119.154 10.5621 114.746 6.15385 109.308 6.15385H106.846V25.8462Z" fill="white"/>
<rect x="82.2307" y="25.8462" width="6.15385" height="6.15385" fill="#55B8FF"/>
</svg>
