<svg width="320" height="321" viewBox="0 0 320 321" fill="none" xmlns="http://www.w3.org/2000/svg">
<path fill-rule="evenodd" clip-rule="evenodd" d="M43.75 290.5C43.75 298.094 37.5938 304.25 30 304.25C22.4063 304.25 16.25 298.094 16.25 290.5C16.25 282.906 22.4063 276.75 30 276.75C37.5938 276.75 43.75 282.906 43.75 290.5ZM27.79 290.5L23.895 286.605L26.105 284.395L30 288.29L33.895 284.395L36.105 286.605L32.21 290.5L36.105 294.395L33.895 296.605L30 292.71L26.105 296.605L23.895 294.395L27.79 290.5Z" fill="#FE5F35"/>
<path d="M76.4058 73.4609H48.6396L83.3473 133.621L48.6396 193.781H76.4058L111.113 133.621L76.4058 73.4609Z" fill="#1C68F3"/>
<path d="M85.0104 134.58L85.5639 133.621L85.0104 132.661L51.964 75.3809H75.2969L108.897 133.621L75.2969 191.861H51.964L85.0104 134.58Z" stroke="#E84237" stroke-width="3.84"/>
<path d="M145.428 75.3809H164.727V191.861H145.428V75.3809Z" fill="#141414" stroke="#E84237" stroke-width="3.84"/>
<path d="M199.434 170.642V172.562H201.354H210.61C232.116 172.562 249.551 155.128 249.551 133.621C249.551 112.114 232.116 94.6794 210.61 94.6794H201.354H199.434V96.5994V170.642ZM180.136 191.861V75.3809H210.61C242.775 75.3809 268.85 101.456 268.85 133.621C268.85 165.786 242.775 191.861 210.61 191.861H180.136Z" fill="#141414" stroke="#E84237" stroke-width="3.84"/>
<rect x="110.721" y="172.562" width="19.2985" height="19.2985" fill="#1C68F3" stroke="#E84237" stroke-width="3.84"/>
<rect x="0.64" y="1.14" width="318.72" height="318.72" stroke="url(#paint0_linear_760_2168)" stroke-width="1.28"/>
<defs>
<linearGradient id="paint0_linear_760_2168" x1="65.6763" y1="92.76" x2="174.292" y2="5.37873" gradientUnits="userSpaceOnUse">
<stop stop-color="#EECB50"/>
<stop offset="0.580696" stop-color="#55B8FF"/>
<stop offset="1" stop-color="#1A16B8"/>
</linearGradient>
</defs>
</svg>
